<svg xmlns="http://www.w3.org/2000/svg" viewBox="0 0 697.12 206.44"><defs><style>.cls-1,.cls-2{fill:none;stroke-miterlimit:10;stroke-width:1.1px;}.cls-1{stroke:#00a29b;}.cls-2{stroke:#b2d4d2;}.cls-3{fill:#00a29b;}.cls-4{font-size:189.91px;fill:#fff;font-family:MyriadPro-BoldCondIt, Myriad Pro;font-weight:700;font-style:italic;letter-spacing:-0.08em;}.cls-5{letter-spacing:-0.04em;}.cls-6{letter-spacing:-0.03em;}.cls-7{letter-spacing:-0.04em;}</style></defs><title>pesky-logo-w-l</title><g id="Layer_2" data-name="Layer 2"><path class="cls-1" d="M437,181.11" transform="translate(-71.52 -182.28)"/><path class="cls-2" d="M427.84,283.46" transform="translate(-71.52 -182.28)"/><path class="cls-2" d="M469.48,187.82" transform="translate(-71.52 -182.28)"/><path class="cls-2" d="M419.15,268.67" transform="translate(-71.52 -182.28)"/><path class="cls-3" d="M452.89,263.49a16.4,16.4,0,0,0-.55-2.85A8.25,8.25,0,0,0,452.89,263.49Zm11,51.28c-.44-.12-.55-1.49-.82-2.2C463.47,312.69,463.57,314.07,463.86,314.77Zm-8.58-37a4.19,4.19,0,0,1,.35,1.85C455.29,279.22,455.37,278.24,455.28,277.73ZM449.72,240a3.17,3.17,0,0,1,.23,1.75C449.9,240.8,449.67,240.55,449.72,240Zm1.15,12.68c-.23-.1-.11-.9-.2-1.3-.11,0-.06.31-.06.5-.22-.05-.1-.81-.18-1.16a1.49,1.49,0,0,1,.23.49,13,13,0,0,0-.09-2.57A19.16,19.16,0,0,1,450.87,252.64ZM454,275.88c.26.19.26,1.17.41,1.67C454.1,277.36,454.11,276.38,454,275.88Zm-8.83-55.66c0,.55-.24.76-.11,1.43C444.65,221.41,444.65,220.23,445.12,220.22Zm-7.69,62.27c.29.31.31,1.42.49,2.05C437.64,284.23,437.61,283.12,437.43,282.49Zm-7.33-43.56c-.24-.12,0-.76-.24-1.3C430.22,237.85,430.14,238.5,430.1,238.93Zm1.48,23.77a10.76,10.76,0,0,1-.47-2.37C431.46,260.46,431.62,262.23,431.58,262.7Zm1.16,6.49c-.4-.24-.48-1.39-.68-2.24.19.13.29.58.37,1.05A4.34,4.34,0,0,0,432.74,269.19Zm9.38-51.74c.13.42.05.93.46,1.32a11.79,11.79,0,0,0,.19,3c0,.13.13.15.16.32.17-.14.71.15.5-.45.63.43.37,1.73.05,1.76,0,.53.22.6.3,1a2.68,2.68,0,0,0,.16-2.15,1.64,1.64,0,0,0,1-.38c.23.93.41.88.93,1.23a7.83,7.83,0,0,0,.08,1.4c.08.22.22.23.29.47.31.07.09-.5.4-.43.57,4.29,1.4,8.36,2.21,13,.39,2.3.73,4.85.93,7.23s.31,4.63.41,6.76a6.45,6.45,0,0,1,.55,2.66,11.3,11.3,0,0,0,.24,2.88c.29-.33-.17-1.59,0-2.07.08.68.23,1.43.36,2.18l.37,2.24.69,4.44c.53,3.05,1.1,6,1.77,8.46a49.36,49.36,0,0,0,1.26,8.85c.14.58.26-.06.35.29.33,2,.24,2.06.66,3.87-.67-.11-.89-1.59-1.16-2.91.18,1.36.5,4.19.82,4.2.62,3,1.2,5.31,1.9,8.64.25.33.37,1.05.73,1.05a14.25,14.25,0,0,0,.93,3.26c.16-.28-.23-1.16-.28-1.67.59.88,1.08,3.49.63,4a52.7,52.7,0,0,0,2.4,8.39c-.32,2.64,1.25,5.44,2.06,8.61-.42-2.12.61,1.08.71,1.34a35.42,35.42,0,0,0,2,4.34l1.43,2.76c.52,1,1.13,2.1,1.82,3.22a30.89,30.89,0,0,1,2.49,4.95,32.45,32.45,0,0,1,2,15.57c0,.67.14,1,.09,1.67-.09,0-.05-.3-.05-.48-.68,1.94-2.17,4.08-2.81,1.8-.5.13-1,1-1.54,1.74-1.09-1.5-2.84-1.18-3.74-3-1.08.85-2.15-.27-3.26-.36s-2.72.49-3.29-1.09c-1.93-.44-2.34-2.49-2.79-4.91-.22-1.22-.43-2.54-.74-3.79a18.55,18.55,0,0,0-1.15-3.4,17.68,17.68,0,0,1-2.42-4.11c-.39-.85-.8-1.82-1.17-2.78s-.73-1.89-1.12-2.81c-.2-.55-.46-.54-.66-1-.38-1.32-.74-2.52-1.09-3.67s-.75-2.27-1.11-3.38c-.74-2.2-1.45-4.33-2-6.47.5,2.73,1,4,1.8,7.07.31,1.29-.3-.52-.39-1a322.45,322.45,0,0,1-8.67-34.26c-.27-1.3-.26-3-.79-3.59a32.42,32.42,0,0,0-.9-4.81c-.17,0,0,1,.16.86-.88-1.31-1-5.05-1.76-7.46-.15,2.91,1.67,9.52,2.07,12.74-1.34-5.61-2-10.55-3.38-15.68.24,0-.19-.77.19-.56-.61-2.94-.9-5.63-1.3-8.11-.14-.9-.42-1.75-.59-2.66a7.36,7.36,0,0,1-.08-2.72c-.15-2.6-.3-5.1-.44-7.52s-.32-4.24-.6-6.33c-.56-4.13-1.3-8.57-1.75-12.82.38.4-.14.83.27,1.36a14.72,14.72,0,0,1,0-1.78c-.54-.74-1-4.69-.18-5.43a28.2,28.2,0,0,0,.26,3.83c.19-.34-.13-1.29.21-1.45a16.15,16.15,0,0,1,.44,3.26c.08.24.17,0,.16-.2.44,2.15.16,4.74,1.08,7,0-1-.63-2.42-.35-3.28.19.23.17,1.32.4,2a10,10,0,0,0-.21-2.61c-.23.86-.15-.69-.36-1.34.62,1.65,1.11,3.6,1.63,2.33-.32-2.48-.49-2.81-.77-4.44-.14.34.1.63-.31.41l.16.85c-.16-.91-.79-1.37-1.1-2.61.14,0,.16.41.23.67.3-.17.32-.67.24-1.29.27,0,.28.79.61.59s-.17-.35-.14-.68c.28-.14.23.77.45.79a19.74,19.74,0,0,0-.37-2.92c.13,0,.23.18.29.47.17-.46-.27-1.36-.37-1.87.48,0,.2-.89.59-1-.19,1.12.47,1.32.05,1.76.78.58.72,2.35,1.24,3.82,0-.83-.27-2-.38-2.93a1,1,0,0,1,.32.64c.09-.09.21-.72-.1-.51.11-.56.45.43.61.59,0-.24,0-.46.41-.44.25.75-.07,2.36.63,3.24a3.76,3.76,0,0,1-.15.73,4.47,4.47,0,0,1,.65,1.82c-.39-1-.15.43-.47.62.35,0,.55,2.15.89,3a22.5,22.5,0,0,0-.58-3.42,1.31,1.31,0,0,1,.29.48,15.31,15.31,0,0,0-1.06-4.92c.31-.11.11-.83.15-1.26-.16-.62-.58-.4-.71-1.1.62-.23.8.1,1.12,1.19-.12-1.28-.86-3.24.21-3.92a8,8,0,0,0,.24,4.72c.12-.73-.55-2.4-.28-2.95.06.5.28.45.45.8.23-.48.11-.2.21-.93.3.29-.05.9.2,1.55.34.21,0-1.14.25-.22.17,0,.2-.7,0-.7.13,0,.62.56,1,.34a13.55,13.55,0,0,0,.39,1.51c.45-.48-.49-1.54-.3-2.06-.2.21-.77-.62-.63.3-.53-.36-.17-.92,0-1.41.31.09.06.56.17.85.84.28,1.28-2.36,1.95-1.09.28.07.11-.39.18-.57.57.77.49,1.84.95,2.82a5.41,5.41,0,0,0-.43-2.21c0-.57.3.11.29.47.56-.45-.46-2.7-.45-3.27.22-.21.67,1.21,1.06,1.39a1,1,0,0,0,0,.88c-.34-.59-.09.22-.42-.09.59.59.63,1.19,1.16,1.89.25-.87-.09-1.89.19-3a3.88,3.88,0,0,1-.43-2.21C441.56,217,442,218.05,442.12,217.45Zm12.18,60.29c.33.23.23,1.75.57,2-.56-3.12-1-6.56-1.56-9.9-.27-1.66-.55-3.31-.87-4.87s-.58-2.89-1-4.18c0,.66.4,1.69.24,2.1a1.49,1.49,0,0,0-.27-.45c.13.52.25,1.21.38,2s.31,1.8.48,2.77a51.21,51.21,0,0,0,1.14,5.44c-.05-.19-.07-.48-.18-.49C453.51,273.72,453.86,277.63,454.3,277.74Zm-15.36-56.49-.57.12a52.52,52.52,0,0,0,1.77,9c-.46-2.62-.81-4.56-.95-6.35.16.11.07-.32.35.28C439.4,222.88,439,222.59,438.94,221.25Zm-4.37,5.28c.16,1,.13,2.94.7,4.1-.08-.59-.55-2.24-.07-1.4A8.38,8.38,0,0,0,434.57,226.53Zm17.74,105.75c-.17-.59,0-.28.27-.35-.44-1.22-.7-2.33-1.24-3.73A4.55,4.55,0,0,0,452.31,332.28Zm-3.73-11.67c-.41.14.27,2.5.71,2.38A14.06,14.06,0,0,0,448.58,320.61Zm-8.69-35c.1,0,.12.21-.06.19.44.52.24,1.46.62,2.2.05-.39,0,.25.26.31-.09.24,0,.35.17.85.43,1.36-.54-3.29-.71-3.6.05,0,.08-.16,0-.17C440.27,285.89,439.78,285,439.89,285.58Zm-1.87-9.4c-.44-1.85.35,2.82,0,.53a67.28,67.28,0,0,0,1.9,8.51C439.16,282.08,438.76,279.24,438,276.18Zm0,3.72c0,.86.27.94.14,1.75,2.19,7.79,2.69,13.76,4.4,21C442.05,295.71,439.62,287.32,438,279.9Zm1.9,10.32c-.17-.51-.18-1.51-.44-1.7C439.64,289,439.65,290,439.92,290.22Zm-5.44-21.7c.3-.33.07-1.29-.14-2A7.27,7.27,0,0,0,434.48,268.52Zm22.58,20.87a8.84,8.84,0,0,1,.72,3c0,.72-.39-1.46-.26-.3A19.35,19.35,0,0,1,457.06,289.39Zm-11.25-66.66c.14-.41.18-.29.47-.62a10.62,10.62,0,0,0,.05,1.23c-.19-.24-.36-.55-.61-.59C445.7,222.55,445.8,222.64,445.81,222.73Z" transform="translate(-71.52 -182.28)"/><path class="cls-3" d="M400.94,311.73a14.47,14.47,0,0,0-.53,2.62A6.72,6.72,0,0,0,400.94,311.73Zm8.88-46.57c.34.27-.1,1.44-.14,2.13C409.34,267,409.79,265.85,409.82,265.16Zm-6.05,34.07c-.16-.36.2-1.33.34-1.68C404.29,298,403.87,298.77,403.77,299.23Zm-8.26,31.6a1.64,1.64,0,0,1,.48-1.14C395.69,330.26,395.79,330.51,395.51,330.83Zm3.33-9.23c.18.17-.2.78-.24,1.13.11,0,.15-.23.21-.39.19.13-.16.7-.2,1a1.14,1.14,0,0,1-.06-.47,8.94,8.94,0,0,0-.75,2A14.7,14.7,0,0,1,398.84,321.6Zm5.51-20.35c-.18-.26.17-1.07.21-1.54C404.73,300,404.38,300.77,404.35,301.25Zm-15.86,43.37c.33-.3.64-.21,1-.65C389.57,344.35,388.82,345,388.49,344.62Zm33.58-43c-.15-.36.22-1.29.28-1.86C422.5,300.13,422.13,301.06,422.07,301.64Zm-10.69,40.6c.11.25-.47.66-.62,1.26C410.61,343.09,411.08,342.59,411.38,342.24Zm9-22a8.26,8.26,0,0,1-.44,2.12C419.68,322.15,420.19,320.64,420.4,320.27Zm1.27-5.76c.27.35-.1,1.39-.19,2.13C421.21,316.28,421.75,315.07,421.67,314.51Zm-32.94,33.67c.2-.3.59-.49.57-1a7,7,0,0,0,1.77-1.67c.06-.1,0-.17.1-.28-.22-.05-.41-.58-.64-.12-.16-.67.82-1.18,1.06-1,.31-.31.22-.48.41-.75-.65.27-1.08.27-1.45,1a2,2,0,0,0-.93-.51c.41-.64.24-.74.09-1.28a4.47,4.47,0,0,0,.77-.79c.08-.17,0-.27.07-.45-.19-.24-.36.21-.55,0,4.19-5.26,6.66-11.68,9.1-18.63-.16-2,.77-2.72,1.22-4.92-.39.16-.45,1.36-.78,1.75,1.29-5.2,2.86-10.91,3.34-15.46a41.12,41.12,0,0,0,2-7.83c.08-.54-.25,0-.22-.36.41-1.79.53-1.82.79-3.48.59.33.25,1.65,0,2.85.32-1.21,1-3.68.75-3.81.55-2.76.84-4.88,1.44-7.91-.11-.36.05-1-.28-1.14a11.77,11.77,0,0,0,.37-3.06c-.25.17-.23,1-.37,1.49-.22-1,.32-3.31.94-3.57a47.23,47.23,0,0,0,1.05-7.88c1.35-2,1-5,1.58-7.9-.49,1.91-.11-1.13-.1-1.42.11-1.71.16-3.58.32-5.36a43.77,43.77,0,0,1,2.07-8.81c.24-.8.51-1.6.82-2.4s.69-1.64,1.09-2.44a28.32,28.32,0,0,1,2.9-4.53,25.45,25.45,0,0,1,8.13-6.86c.63-.4.85-.73,1.53-1.09,0,.08-.26.22-.44.33a7.14,7.14,0,0,1,3.18-.21c.78.21.94.66,0,1.56.38.35,1.47.28,2.44.45a4.1,4.1,0,0,0-.36,2.38,3.82,3.82,0,0,1-.5,2.37c1.25.51.86,2,1.37,3,.27.56.71,1.1.95,1.64a1.69,1.69,0,0,1,0,1.66c.7,1.86-.08,2.9-1.26,4.34a22,22,0,0,0-3.52,5.09c-.18,2.22-1.59,4.41-1.86,7.41-.07.43.17.53.15.92a58,58,0,0,0-.89,6.27c-.21,2.07-.4,4.07-.72,6a63.39,63.39,0,0,0,1.17-6.41c.23-1.16.06.53,0,1-1,8.9-2.88,20.11-5,31.2-.22,1.16-.83,2.56-.55,3.24a26.23,26.23,0,0,0-.87,4.3c.14.1.33-.81.16-.77.36,1.4-.84,4.57-1,6.89,1.22-2.45,1.84-8.58,2.62-11.36-.76,5.09-1.83,9.44-2.48,14.34-.21-.11-.11.74-.39.41-.48,2.68-1.15,4.93-1.72,7.14-.4,1.55-.39,3.28-1.3,4.63a97.72,97.72,0,0,1-5.19,13.27,58.92,58.92,0,0,1-7,11.21c0-.55.69-.49.76-1.16a11.16,11.16,0,0,1-1.27,1.23c-.12.93-2.71,3.95-3.82,3.79a20.88,20.88,0,0,0,2.62-2.73c-.37.09-.83,1-1.19.82a21,21,0,0,1,2-2.54c.11-.22-.13-.11-.25,0,1.19-1.78,3.13-3.48,3.89-5.82-.61.78-1.09,2.23-1.88,2.67,0-.3.75-1.08,1-1.77a10.89,10.89,0,0,0-1.55,2.05c.74-.46-.35.6-.64,1.2.67-1.6,1.56-3.33.34-2.76-1.38,2-1.49,2.31-2.4,3.63.33-.14.36-.5.5-.07l.47-.7c-.51.75-.38,1.51-1,2.56-.07-.12.18-.39.31-.61-.33-.1-.69.22-1.07.69-.2-.18.36-.72,0-.83s-.13.35-.38.55c-.3-.11.38-.67.24-.85a22.63,22.63,0,0,0-1.81,2.18c0-.13,0-.29.14-.52-.44.17-.8,1.06-1.1,1.45-.32-.36-.78.4-1.12.17.94-.54.64-1.15,1.24-1.12-.1-.93,1.19-2,1.82-3.33-.57.54-1.16,1.46-1.77,2.14a.91.91,0,0,1,.23-.63c-.12,0-.64.3-.29.39-.46.27,0-.59,0-.81-.16.15-.29.32-.58,0,.34-.64,1.67-1.44,1.75-2.5a3.65,3.65,0,0,1,.59-.38,4.21,4.21,0,0,1,.71-1.64c-.35.92.39-.19.75-.11-.27-.2,1-1.83,1.22-2.65a27.18,27.18,0,0,0-1.72,2.73,1.5,1.5,0,0,1,.09-.52A16.07,16.07,0,0,0,399,349c-.29-.15-.64.45-1,.69-.32.49.13.66-.28,1.19-.58-.31-.46-.64.06-1.55-.79.88-1.67,2.6-2.86,2.19a6.28,6.28,0,0,0,3.09-3c-.57.37-1.25,1.87-1.82,2,.3-.34.12-.46.24-.8-.48.11-.21,0-.78.39,0-.39.65-.49.92-1.07-.09-.37-.76.7-.33,0-.08-.15-.6.27-.44.44-.08-.11-.05-.78-.43-.89a9.17,9.17,0,0,0,.74-1.17c-.63,0-.69,1.26-1.16,1.43.28,0,.09.92.63.28.11.59-.52.66-1,.81-.14-.28.35-.36.47-.62-.38-.75-2.46.4-2.06-.8-.14-.24-.33.13-.5.18.13-.83.89-1.37,1.21-2.25a4,4,0,0,0-1.15,1.54c-.37.31-.13-.28.11-.47-.67-.15-1.48,1.8-1.88,2.08-.28-.06.37-1.13.23-1.51a.77.77,0,0,0,.6-.45c-.17.56.2-.06.21.35,0-.75.36-1.1.44-1.86-.73.29-1.15,1.09-2.1,1.48a2.59,2.59,0,0,1-1.18,1.44C388.82,348.82,389.25,348,388.73,348.18Zm15.95-48.61c-.22-.32.41-1.55.18-1.87-1.19,5.68-3.08,12.07-3.6,16.86.2-.57.24-1.57.54-1.86a1.38,1.38,0,0,0,.08.48c.3-1.91,1.58-6.35,1.79-9.07,0,.18-.11.42,0,.47C404,303.21,405.05,299.82,404.68,299.57Zm-11.3,49,.46.35a25.23,25.23,0,0,0,4.5-6.64,29.94,29.94,0,0,1-3.29,4.52c-.05-.17-.26.14-.07-.41C394.15,347.29,394.24,347.75,393.38,348.54Zm6.59-.05c.57-.76,1.87-2,2.18-3.21-.31.45-1,1.88-.85,1A7.75,7.75,0,0,0,400,348.49Zm27.82-92.07c-.15.39-.17.14-.4.07a13.81,13.81,0,0,0-.67,2.84A3,3,0,0,0,427.79,256.42Zm-1.67,9.9c.43.05.76-2.13.31-2.2A10.5,10.5,0,0,0,426.12,266.32Zm-5.23,31.89c-.1,0,0-.21.13-.14-.23-.58.3-1.29.21-2-.19.3.09-.21-.13-.35.17-.17.09-.31.15-.77.08-1.27-.69,2.91-.64,3.23a.08.08,0,0,0,0,.15C420.64,297.82,420.77,298.75,420.89,298.21Zm-1.6,8.46c-.24,1.7.68-2.49.18-.45a56.82,56.82,0,0,0,1.27-7.72C420.32,301.36,419.68,303.84,419.29,306.67Zm1.31-3.1c.33-.71.09-.87.5-1.49.73-7.22,2.43-12.32,3.57-18.83C422.53,289.08,421.73,296.87,420.6,303.57Zm1.94-9.19c0,.48-.39,1.3-.21,1.56C422.36,295.46,422.71,294.64,422.54,294.38Zm-2.73,20.05c-.41.17-.56,1.06-.58,1.69A7.36,7.36,0,0,0,419.81,314.43Zm-13.48-25.61a7.56,7.56,0,0,1,.44-2.75c.25-.62-.17,1.36.13.34A16.24,16.24,0,0,1,406.33,288.82Zm-16.78,54c-.34.12-.3,0-.71,0a4.75,4.75,0,0,0,.7-.66c0,.26-.07.53.09.72C389.52,343,389.5,342.92,389.55,342.86Z" transform="translate(-71.52 -182.28)"/><path class="cls-3" d="M441.76,301.71c.61-.19,1.57-.2,1.95-.51A4,4,0,0,0,441.76,301.71Zm-34.41,5.6c0-.39.84-.29,1.24-.43C408.52,307.27,407.74,307.15,407.35,307.31Zm24.95-3.85c-.19.27-1,.26-1.26.25C431.27,303.4,432,303.53,432.3,303.46Zm24.25-5.14c-.06.17-.84.29-.94.15C456.1,298.45,456.22,298.24,456.55,298.32Zm-7.4,1.36c0-.23.59-.16.83-.27,0-.1-.21,0-.33,0,0-.22.51-.14.72-.24a.69.69,0,0,1-.28.25c.36.16,1.1-.18,1.61-.21A8,8,0,0,1,449.15,299.68Zm-15.66,2.57c-.11.25-.79.19-1.12.32C432.48,302.32,433.16,302.38,433.49,302.25Zm34.68-6.14c-.33-.06-.43-.37-.84-.35C467.49,295.44,468.19,295.65,468.17,296.11Zm-40.24-10.56c-.18.26-.89.21-1.27.34C426.84,285.63,427.54,285.69,427.93,285.55Zm28.34-6.61c.09-.23.56.05,1-.13C457.06,279.14,456.59,279,456.27,278.94Zm-16.2,1.74c.22-.28,1-.25,1.43-.4C441.46,280.63,440.37,280.74,440.07,280.68Zm-3.95.93c.12-.38.89-.4,1.37-.58C437.37,281.41,436.43,281.34,436.12,281.61Zm33.89,12c-.26.05-.55-.11-.82.23a4.75,4.75,0,0,0-1.79-.3c-.08,0-.1.1-.2.11.07.19-.13.67.24.56-.29.55-1.06.12-1.06-.21-.32,0-.37.13-.62.15.47.34.68.68,1.29.48a2.72,2.72,0,0,0,.18,1.05c-.57.09-.55.27-.77.74a2.69,2.69,0,0,0-.84-.13c-.13,0-.14.18-.28.21,0,.31.29.17.24.47-5.06-.1-10.28,1.17-15.8,2-1.25,1-2.1.48-3.72,1,.26.29,1.07-.14,1.46,0-3.95,1-8.37,1.61-11.6,2.73a25.45,25.45,0,0,0-6,.79c-.4.1.06.26-.18.33a21.25,21.25,0,0,0-2.69.38c.06-.66,1.08-.77,2-.94-.94.08-2.89.2-2.9.51-1.07.17-2,.35-3,.53s-2,.32-3.18.47c-.25.21-.77.24-.78.58a7.6,7.6,0,0,0-2.32.46c.18.2.81-.05,1.17,0-.66.46-2.46.55-2.77,0a20.94,20.94,0,0,0-5.38.94c-1.59-.78-3.15.3-5,.58,1.23-.08-.59.43-.74.49-1,.38-1.88.88-2.72,1.31-1.57.81-3,1.05-4,1.64a69.58,69.58,0,0,1-7.59,3.52c-.21.16-.23.36-.44.52-.05-.08.05-.13.1-.18-.92,0-2.39-.35-2.17-1.68a3,3,0,0,0-1.45-.52c-.26-1.43-1.5-2.64-1.34-4.11-1-.47-1.22-1.79-1.85-2.71s-2-1.84-1.4-3.13c-.91-1.73.39-3.34,2.44-4.59a33.58,33.58,0,0,1,6.55-2.73c1.82-1.44,4.34-1.46,6.68-2.41.35-.11.33-.36.63-.5,3.47-.76,6.51-1.9,9.58-2.35a28.08,28.08,0,0,0-5.08.76c-.92.14.38-.22.72-.26a90.74,90.74,0,0,1,11.18-2c1.9-.24,3.71-.5,5.57-.8s3.75-.63,5.66-1c.8-.16,1.88,0,2.22-.51a12.56,12.56,0,0,0,3-.58c0-.17-.62,0-.54.11.78-.81,3.17-.73,4.69-1.36-1.94-.26-6,1.16-8,1.31,3.46-.92,6.58-1.35,9.83-2.48,0,.23.49-.16.39.21,1.82-.5,3.44-.72,5-1.05,1.08-.23,2.12-.94,3.26-.67,6.79-1.16,12.78-2.14,18.82-1.92-.3.32-.57-.26-1,.07a7.51,7.51,0,0,1,1.24.29c.54-.45,3.34-.33,3.78.62a11,11,0,0,0-2.67-.32c.23.23.9.05,1,.4a7.92,7.92,0,0,1-2.28,0c-.17.05,0,.17.13.19-1.51.12-3.29-.43-4.89.22.69.07,1.69-.34,2.28,0-.16.16-.92,0-1.42.16a4.71,4.71,0,0,0,1.81.09c-.59-.33.47-.06.93-.2-1.16.43-2.5.68-1.64,1.35,1.7,0,1.92-.17,3-.21-.22-.18-.43,0-.26-.37l-.6,0c.64,0,1-.6,1.85-.73,0,.13-.29.1-.47.13.11.32.44.41.87.42,0,.27-.55.16-.44.52s.25-.11.48,0c.07.3-.54.12-.57.34a11.13,11.13,0,0,0,2,0,.31.31,0,0,1-.34.21c.3.25.94,0,1.29-.06,0,.48.58.35.62.75-.73-.37-.92.25-1.18-.24-.46.66-1.63.36-2.64.67a14.21,14.21,0,0,0,2,0,.57.57,0,0,1-.45.22c.05.1.47.31.34,0,.37.18-.31.37-.42.51.15,0,.3,0,.26.47-.51.14-1.56-.4-2.18.17a2,2,0,0,1-.48-.25c-.39.14-.56.45-1.23.41.67-.26-.28-.19-.4-.54,0,.35-1.45.29-2,.52a9.73,9.73,0,0,0,2.29-.16.78.78,0,0,1-.32.23,7.41,7.41,0,0,0,3.3-.4c.06.32.54.22.83.32.41-.06.29-.52.77-.53.11.65-.13.76-.86.93.85.06,2.19-.33,2.55.83a3.57,3.57,0,0,0-3.1-.5c.47.21,1.61-.2,1.95.16-.33,0-.31.21-.55.32.29.31.12.14.58.36-.2.26-.57-.2-1,0-.16.3.74.15.13.28,0,.15.43.29.45.07,0,.13-.4.52-.28.88a6,6,0,0,0-1,.17c.29.52,1-.27,1.33,0-.12-.24.46-.66-.15-.67.27-.46.61,0,.91.25-.08.28-.36-.05-.56,0-.22.78,1.4,1.65.56,2.1-.06.26.23.18.34.27-.52.44-1.18.16-1.81.49a2.24,2.24,0,0,0,1.4-.08c.35.09-.09.28-.32.21.25.63,1.71,0,2.05.1.11.25-.79.46-.93.81-.13-.1-.2-.27-.54-.17.39-.23-.13-.12.09-.39-.4.49-.77.42-1.24.83.52.39,1.17.22,1.84.69a1.48,1.48,0,0,1,1.37-.06C470.31,293.12,469.67,293.34,470,293.61Zm-37.78,8.88c-.14.32-1.19.14-1.33.46,4.26-.75,9.24-1.22,12.63-2.6-.44,0-1.13.37-1.44.21a.93.93,0,0,0,.29-.26c-1.39.47-4.82.88-6.73,1.61.13,0,.32-.05.32-.16C434.93,301.91,432.29,302.08,432.23,302.49Zm35.71-12.64,0-.58a17,17,0,0,0-5.81.49,22.22,22.22,0,0,1,4.08-.09c-.07.14.2.11-.2.3C466.89,290,467.09,289.67,467.94,289.85Zm-3.17-5.1c-.68,0-2-.28-2.76.16.4,0,1.51-.27.94.09A3.79,3.79,0,0,0,464.77,284.75Zm-69.47,8.78c.37,0,.18.09.24.33a15.33,15.33,0,0,0,2.4-.58A2.15,2.15,0,0,0,395.3,293.53Zm7.92-2c-.1-.42-1.8-.07-1.69.38A7.06,7.06,0,0,0,403.22,291.52Zm22.9-3.77c0,.1-.12.1-.12-.08-.31.4-.92.13-1.36.44.25.09-.16,0-.18.23-.16-.11-.23,0-.54.1-.84.31,2.06-.26,2.25-.41,0,.06.11.1.11,0C426,288.1,426.5,287.69,426.12,287.75ZM432,286.5c1.16-.34-1.8.2-.34,0a31.82,31.82,0,0,0-5.34,1.33C428.31,287.29,430.1,287.08,432,286.5Zm-2.4-.2c-.55-.07-.58.2-1.11,0-4.85,1.65-8.5,1.54-12.95,2.11C419.84,289,425,287.46,429.63,286.3Zm-6.43,1.08c.31-.11.93,0,1-.27C423.93,287.23,423.31,287.14,423.2,287.38Zm13.52-4c.25.31.86.13,1.25-.07A3.42,3.42,0,0,0,436.72,283.36ZM424.2,304.41a4.26,4.26,0,0,1-2.12.41c-.52-.07,1-.24.21-.23A11.07,11.07,0,0,1,424.2,304.41Zm42.46-8c.23.19.16.21.34.55a3.7,3.7,0,0,0-.72-.13c.15-.15.34-.27.37-.52C466.77,296.31,466.71,296.39,466.66,296.4Z" transform="translate(-71.52 -182.28)"/><path class="cls-3" d="M520.56,253.39c.12-.7.14-1.49.2-2.31a18.54,18.54,0,0,0-.08-2.47,12.87,12.87,0,0,0-.4-2.28,8.33,8.33,0,0,0-.6-1.74A23.85,23.85,0,0,1,520.56,253.39Zm-21.3,39.07c-.49.21-2.35-.87-3.47-1.26C496.28,291,498.13,292.07,499.26,292.46Zm4.95-15.93a9.85,9.85,0,0,1-2.06,2.07C502.42,278,503.64,277.1,504.21,276.53ZM480.6,228a7.68,7.68,0,0,1,2.9-.33C482,227.77,481.57,228,480.6,228Zm22.9,2.42a22.08,22.08,0,0,1-2.62-.82c0,.12.57.26.94.4-.2.17-1.6-.5-2.3-.61a4,4,0,0,1,1,.1,10.21,10.21,0,0,0-2.22-.73l-2.68-.54A27,27,0,0,1,503.5,230.43Zm2.25,43.16c-.1.42-1.26,1.34-1.79,2C504.06,275.13,505.23,274.21,505.75,273.59Zm-56.48-30.22c1-.78,1.41-.74,2.49-1.57a4.19,4.19,0,0,1-1.27,1.14C449.93,243.3,449.36,243.6,449.27,243.37ZM489.68,265a17.17,17.17,0,0,1-2.11,2.24A17.17,17.17,0,0,1,489.68,265Zm-11.17-17c-.14.26-1,.15-1.6.51C477.14,248.16,478,248.1,478.51,248.06Zm20.81,3.09c-.21.1-.05,0-.11,0C499.45,250.94,499.43,251.1,499.32,251.15Zm.09.2-.27-.11C499.49,251.28,499.22,251.27,499.41,251.35Zm-53-.06a13.49,13.49,0,0,1,.73-1.48,10.14,10.14,0,0,0,.77-1.59,32.79,32.79,0,0,1,4.68-4.26c.2-.17.2-.28.45-.47-.27,0,0-.86-.87-.06a3.4,3.4,0,0,1,1.52-1.34c.6-.3,1.13-.4,1.19-.25a14,14,0,0,0,1.37-1,6,6,0,0,0-3.26,1.5c-.26-.36-.17-.5-.9-.66,1.46-1.11,1.29-1.19,1.7-2,.62-.29,1.27-.64,2-1.09.31-.23.3-.39.64-.62,0-.37-.77.26-.75-.11a75.34,75.34,0,0,1,20.83-8.6,45.21,45.21,0,0,1,24.51.92,15.53,15.53,0,0,1,5.41,1.85c.8.41,1.59.91,2.47,1.46.45.28.91.58,1.48,1s1.38,1,2.11,1.53a8.44,8.44,0,0,0-2.2-1.85c-.85-.57-1.7-1-2.14-1.39.71.38,1.42.77,2.18,1.27a27.72,27.72,0,0,1,2.75,2,21.28,21.28,0,0,1,4.52,5.19,17.94,17.94,0,0,1,2.36,6.32,18.18,18.18,0,0,1-.12,6.66,22.79,22.79,0,0,1-2.26,6.18c-.26.49-.51.95-.81,1.43s-.53.86-.76,1.19c-.44.65-.89,1.28-1.33,1.86-1.75,2.31-3.48,4.13-4.66,5.53-3,2.52-6.86,6.35-9.94,9.54-.64.66.2.16-.17.57-2.27,2.16-2.4,2.14-4.43,4.19-.18-.71,1.54-2.27,3-3.74-1.56,1.43-4.88,4.31-4.74,4.61L491.32,288l-.08.07h0l0,0-.07.08-.14.16a5.2,5.2,0,0,1-.62.63c.18.06,0,.15.55.14-.11.1-.31.23,0,.23H491l.12,0c.2,0,0-.06.14-.09s.32,0,.32,0-.15.1-.65.29c.18.07.35.16.55.22a1.1,1.1,0,0,0,.31,0l.15,0s0,0,.06,0,0,0,.07,0l.35.11c3.19,2.4,8,3.6,12.69,5.8-3-1.55,1.86.52,2.28.69l7.9,3c4.65,1.81,8.17,3.77,11.29,5.09a179,179,0,0,1,21.11,10.79c.67.31,1.06.33,1.73.66,0,.08-.32-.08-.51-.16,1.67,1.46,3.63,3.69.93,3.4,0,.54.85,1.34,1.53,2.19-2,.45-2.1,2.32-4.68,2.27.79,1.48-1,1.92-1.48,2.92s0,3-2.68,2.42c-2.56,3.06-15.52-5.09-22.53-8.62-4.42-1.43-8.44-4.25-13.33-6.22-.7-.31-.9-.12-1.53-.36-6.61-3.26-12.84-5.39-18.79-7.88,3.62,1.76,5.43,2.4,9.66,4.3,1.74.82-.82-.21-1.46-.52l-12.85-5.16c-7-2.8-14.87-5.79-23.43-9.15l14.91-13.57,4.05-3.79,2.05-1.93c.43-.42.86-.84,1.3-1.25l4.73-4.63c1.38-1.36,3.34-2.86,3.76-3.85a60.33,60.33,0,0,0,5-5.1c0-.19-1.09.89-.89.91a21.9,21.9,0,0,1,3.29-3.84l1.12-1.13,1.05-1.1A13.9,13.9,0,0,0,500.2,254c-.62.53-1.41,1.29-2.48,2.35s-2.38,2.42-3.63,3.73c-2.5,2.62-5,5.3-6.79,6.88l8.3-8.66,2-2.1c.62-.67,1.14-1.25,1.61-1.85a14.34,14.34,0,0,0,1.22-1.68,3.29,3.29,0,0,0,.23-.39c.1-.18,0-.1.07-.16a1.84,1.84,0,0,0,.05-.25c.21.1,0-.19.33,0a1.83,1.83,0,0,0-.43-2,.82.82,0,0,0-.32-.17.71.71,0,0,1-.21-.07l-.53-.26a11.51,11.51,0,0,1-2.2-1.33,24.25,24.25,0,0,0-8-2,32.28,32.28,0,0,0-8.22.46,55.43,55.43,0,0,0-15.83,5.91c.39-.59,1.05-.3,1.6-1-.71.24-1.59.72-2.21.88a15.24,15.24,0,0,1-3,2.06c-1.18.68-2,1.09-2.52.93.85-.66,1.84-1.05,3.52-2.16-.5,0-1.41.82-1.7.59a20.15,20.15,0,0,1,3.75-2.25c.27-.2-.07-.16-.3,0,2.58-1.61,5.88-2.52,8.63-4.16-1.27.34-3,1.49-4.11,1.6a25.6,25.6,0,0,1,2.52-1.22,14,14,0,0,0-3.28,1.28c1.15-.15-.84.45-1.61,1,1.91-1.46,4.35-2.69,2.61-2.7a41.38,41.38,0,0,0-5.52,3c.47-.06.78-.44.61.08l1-.62c-1.13.66-1.53,1.51-3,2.53,0-.15.47-.4.76-.61-.29-.19-.95.09-1.67.52-.13-.24.88-.72.54-.93s-.4.37-.81.53c-.27-.18.88-.66.85-.9a16.56,16.56,0,0,0-3.23,2.08c0-.15.06-.32.36-.54-.59.12-1.27,1.06-1.61,1.45-.29-.39-.83.4-1.16.19,1-.6.87-1.28,1.5-1.2.16-1.09,2.24-2.14,4-3.52a24.84,24.84,0,0,0-3.49,2.17,1.6,1.6,0,0,1,.63-.72c-.14,0-.94.28-.57.42-.68.27.32-.69.48-.95-.29.15-.54.34-.68-.1.81-.74,3-1.43,4-2.63a5.74,5.74,0,0,1,1-.28,8,8,0,0,1,2.27-1.62c-1.25.89.62-.08.94.14-.13-.33,2.79-1.57,3.92-2.21a27.94,27.94,0,0,0-4.55,2.11,2.77,2.77,0,0,1,.58-.52,22.82,22.82,0,0,0-6.26,3.82c-.25-.23-1.11.42-1.66.67-.71.56-.29.81-1.05,1.4-.52-.4-.24-.82,1-1.86a24.6,24.6,0,0,0-2.51,1.89c-.8.64-1.48,1.17-2.16,1.09,1.52-.93,3.24-2.25,5.55-3.94a9.11,9.11,0,0,0-1.91,1.22,7.25,7.25,0,0,1-1.68,1.14c.56-.46.41-.61.77-1-.68.15-.29,0-1.22.55.21-.53,1.11-.7,1.86-1.4.15-.49-1.46.86-.38-.08,0-.2-1,.34-.88.57,0-.15.49-1,.08-1.18,1.12-.94.66-.43,1.91-1.48-.8-.11-1.94,1.58-2.67,1.84.35,0-.5,1.25.64.36-.26.78-1.11.91-1.81,1.23,0-.37.68-.58,1-.94,0-.51-.89-.32-1.64-.1s-1.37.36-.65-.67c0-.35-.59.32-.86.47.8-1.47,2.42-2.44,3.67-3.63a7.38,7.38,0,0,0-1.6,1.05,7.82,7.82,0,0,0-1.45,1.4c-.82.64,0-.43.57-.78-.43,0-1.41.78-2.29,1.9a20.2,20.2,0,0,0-1.9,3c-.18.09,0-.56.34-1.33a18.56,18.56,0,0,0,.82-1.88,4.75,4.75,0,0,0,1.32-1.18c-.74,1.08.36-.2,0,.52a16.29,16.29,0,0,1,2.4-3.13c-1.39.53-2.88,1.9-4.75,3.49-.55.87-.94,1.6-1.31,2.29s-.71,1.36-1.17,2.3c-.14,0-.05-.68,0-1.17S446.81,250.73,446.41,251.29Zm57.3,24.37c-.12.53-2,1.87-2.1,2.39l5.42-5.32L509.8,270l1.39-1.4c.52-.52,1-1.07,1.56-1.64a36.55,36.55,0,0,0,3.09-3.88,25.49,25.49,0,0,0,1.69-2.78,21.71,21.71,0,0,0,1.38-3.14,17.41,17.41,0,0,0,0-12.27,21.94,21.94,0,0,1,.79,3.28,8.8,8.8,0,0,1,.06,2.78,7.32,7.32,0,0,0-.21-1.4,17.33,17.33,0,0,1-.58,5.85,20.18,20.18,0,0,1-1.29,3.5c-.27.6-.6,1.18-.92,1.77-.17.29-.33.58-.53.88l-.5.79a83.47,83.47,0,0,1-6.36,7.74c.2-.23.53-.53.48-.64C508.1,271.14,503.62,275.18,503.71,275.66Zm-50.42-27.47.39.42a42.57,42.57,0,0,1,5.93-4.08l6.16-3.71c-3.7,1.81-6.29,3.41-8.7,4.77.1-.23-.47.16.29-.54a11.86,11.86,0,0,0-2.09,1.51C454.72,247,454.19,247.48,453.29,248.19Zm8.49.32c1.27-.78,3.82-1.8,5.26-2.92-.78.35-2.87,1.7-1.86.78A14.13,14.13,0,0,0,461.78,248.51Zm48.51,66.81c-.65-.39-.2-.25-.07-.46a51.64,51.64,0,0,0-4.64-2.29A8.37,8.37,0,0,0,510.29,315.32Zm-15.51-7.05c-.14.41,3.13,1.84,3.32,1.43A27,27,0,0,0,494.78,308.27Zm-7.45-38.34c.06.09-.19.29-.26.11-.38.85-1.58,1.5-2.25,2.47.48-.29-.3.22-.24.5-.33.14-.4.35-.92.89-1.39,1.57,3.6-3.32,3.87-3.76,0,0,.22-.07.18-.18C487.16,270.54,488,269.3,487.33,269.93Zm9.88-10.1c1.87-2.08-3,2.89-.61.49-2.59,2.58-6.81,7-8.84,9.32C491,266.2,494.1,263.3,497.21,259.83ZM493,263.22c-1,.76-.95,1.08-1.94,1.69-2,2.22-3.87,4.23-5.75,6.1q-1.39,1.41-2.79,2.73l-2.93,2.75c-3.1,2.86-6.2,5.66-9.47,8.54l-10,8.9c3.65-2.91,7.21-5.9,10.75-9,1.78-1.54,3.52-3.12,5.26-4.72l2.6-2.43,1.3-1.24.87-.84C485,271.64,489.12,267.27,493,263.22Zm-11,10.74c.52-.58,1.68-1.44,1.78-1.85C483.19,272.7,482,273.55,481.93,274Zm19.24-22a.36.36,0,0,0,.37-.52C501.43,251.63,501.2,251.69,501.17,252Zm-9.73,36.4c.13.29-.09.26-.25.36s.08-.2-.16-.11C491,288.49,491.33,288.4,491.44,288.35ZM453.28,240c-.67.2-.5.07-1.11.06.57-.27,1.32-.76,1.89-1-.29.35-.72.76-.72,1.06C453,240.26,453.14,240.1,453.28,240Z" transform="translate(-71.52 -182.28)"/><path class="cls-3" d="M457.78,316.5a13.7,13.7,0,0,0,.47,2.59A6.62,6.62,0,0,0,457.78,316.5ZM455,274.62c.38.13.1,1,.16,1.55C454.74,276,455,275.05,455,274.62Zm2.13,29.91c-.23-.27-.1-1.15-.05-1.46C457.3,303.38,457.07,304.12,457.08,304.53Zm5.71,31.58a1.84,1.84,0,0,1-.4-1.25C462.54,335.52,462.78,335.66,462.79,336.11Zm-2.75-9.8c.23.06.22.79.35,1.12.11-.05,0-.28,0-.45.23,0,.19.69.33,1a1,1,0,0,1-.29-.37c-.12.48.33,1.46.44,2.13A11.94,11.94,0,0,1,460,326.31Zm-1.93-20.2c-.23-.18-.07-.94-.15-1.35C458.19,304.94,458,305.7,458.11,306.11Zm11.95,44.82c-.14-.44.08-.69-.18-1.2C470.27,349.81,470.5,350.77,470.06,350.93Zm5.39-48.11c-.23-.26-.07-1.09-.15-1.58C475.53,301.5,475.38,302.34,475.45,302.82Zm6.49,29.86c.24,0,.07.56.34.89C481.91,333.5,481.94,333,481.94,332.68Zm-3-16.09c.26.24.21,1,.35,1.48C479,318,478.88,316.89,479,316.59Zm-.67-4.15c.37.17.33,1,.46,1.47C478.38,313.75,478.53,312.79,478.28,312.44Zm-4.8,39.72c-.21-.29-.24-.72-.71-.89A9.39,9.39,0,0,0,472,349c-.06-.09-.15-.08-.21-.21-.14.17-.7.1-.39.52-.68-.15-.69-1.28-.38-1.39-.13-.42-.32-.42-.46-.72-.09.7-.29,1.09.24,1.78a1.88,1.88,0,0,0-.88.61c-.4-.69-.56-.59-1.13-.73a5.22,5.22,0,0,0-.32-1.12c-.12-.16-.25-.13-.36-.31-.32,0,0,.44-.31.47-2.64-6.67-5.46-13.42-6.95-20.7-1.16-1.67-.69-2.77-1.25-4.91-.29.31.19,1.41.08,1.9a73.76,73.76,0,0,1-1.38-8c-.32-2.61-.56-5.14-.9-7.23a37,37,0,0,0,.09-7.06c0-.45-.26,0-.29-.25a22.87,22.87,0,0,0,0-2.89c.65.14.62,1.23.68,2.23,0-1,.17-3.09-.15-3.11-.13-2.23-.38-3.72-.67-6-.21-.24-.25-.77-.6-.78a9.63,9.63,0,0,0-.58-2.58c-.19.22.1.95.1,1.35-.5-.67-.71-2.93-.19-3.39-.18-1.36-.31-2.87-.4-4.38s-.14-3-.3-4a6.14,6.14,0,0,0,.61-3.07c0-.47-.07-.91-.12-1.31a10.79,10.79,0,0,1-.1-1.19c-.11,1.13-.33-.58-.4-.78-.27-1-.73-2.2-1.14-3.42-.78-2.35-.9-4.39-1.38-6a57.17,57.17,0,0,1-2-11.67c-.1-.37-.29-.5-.38-.87.09,0,.1.15.15.24.3-1.16,1.09-2.74,2.3-1.7.45-.21.64-.84,1-1.42,1.46.51,3-.23,4.38.68.8-.87,2.12-.44,3.21-.68s2.45-1.25,3.44-.06c3.92-.37,4,7.56,4.62,11.52,1.07,2.2.71,4.74,1.47,7.39.09.41.34.42.45.77.26,2,.66,4.12.84,6.32a47.56,47.56,0,0,1,.13,5.56,21.28,21.28,0,0,0,.25-2.65c0-.89,0-1.87,0-3.4,0-1.27.18.55.14,1,.14,2.32,0,4.46.08,6.23,0,.89.06,1.62.15,2.5s.22,1.8.38,2.81c.32,2,.78,4.34,1.11,7s.51,5.12.64,7.57c.06,1-.21,2.31.21,2.82a17,17,0,0,0,.13,3.62c.16.05.13-.7,0-.64.67,1,.24,3.7.72,5.38a18.17,18.17,0,0,0,0-4.42c-.11-1.77-.27-3.66-.2-4.9.41,4.41.31,7.85,1.15,11.38-.23,0,.12.54-.24.39.33,2,.49,3.68.78,5.31.22,1.14.92,2.2.69,3.38a145.66,145.66,0,0,0,5.34,18.42c-.41-.16,0-.62-.42-.87a7.35,7.35,0,0,1,.18,1.26c.58.37,1.55,2.95.92,3.76a15.08,15.08,0,0,0-.8-2.61c-.13.3.31.86,0,1.09a7.45,7.45,0,0,1-.85-2.17c-.1-.14-.16.06-.12.19a12.21,12.21,0,0,1-.74-2.35,6.79,6.79,0,0,0-1-2.34c.11.7.8,1.57.64,2.25-.2-.12-.31-.89-.58-1.35a4.57,4.57,0,0,0,.46,1.8c.13-.67.22.45.49.86-.77-1-1.44-2.27-1.81-1.22a20.92,20.92,0,0,0,1.26,3c.08-.29-.18-.43.24-.39l-.27-.56c.28.61.93.75,1.37,1.53-.13,0-.2-.24-.3-.4-.25.21-.22.57-.05,1-.26.1-.37-.48-.65-.23s.19.2.22.44c-.25.19-.32-.48-.54-.43a9.38,9.38,0,0,0,.79,2c-.13,0-.25-.05-.34-.24-.09.39.45.9.64,1.22-.45.16,0,.71-.38.92,0-.87-.67-.78-.34-1.25-.81-.17-1.06-1.46-1.74-2.38a12,12,0,0,0,.79,2c-.15,0-.28-.16-.4-.37-.07.09-.08.6.17.34,0,.45-.48-.17-.66-.23,0,.17.11.32-.31.44-.37-.46-.3-1.75-1.08-2.19a1.89,1.89,0,0,1,0-.59c-.3-.35-.66-.43-.86-1.16.49.63.09-.37.37-.59-.32.12-.78-1.44-1.17-2a10.45,10.45,0,0,0,.93,2.39,1,1,0,0,1-.34-.27,7.81,7.81,0,0,0,1.67,3.34c-.28.18,0,.64.06,1,.25.4.61.1.84.58-.54.37-.76.18-1.24-.52.31.92,1.34,2.11.48,3a5,5,0,0,0-1-3.43c0,.58.92,1.6.76,2.1-.15-.35-.34-.24-.56-.45-.14.43-.07.18,0,.76-.34-.11-.11-.68-.46-1.09-.35-.06.21.85-.19.25-.17,0-.07.58.15.51-.13,0-.68-.23-.95,0-.41-.6-.12-.36-.63-1-.35.51.73,1,.64,1.47.15-.23.83.22.54-.43.55.1.31.64.23,1.08-.31,0-.15-.41-.31-.59-.84.05-.76,2.21-1.63,1.46-.27,0,0,.34-.06.5-.69-.41-.8-1.27-1.41-1.89a3.28,3.28,0,0,0,.81,1.58c.11.45-.3,0-.36-.27-.46.54,1,1.95,1.07,2.39-.16.23-.87-.71-1.27-.72a.71.71,0,0,0-.16-.7c.43.35,0-.2.4-.06-.67-.27-.81-.73-1.44-1.12-.08.77.43,1.47.42,2.46a2.58,2.58,0,0,1,.87,1.59C474.09,352.3,473.51,351.63,473.48,352.16Zm-15.43-47.53c-.29-.22,0-1.38-.25-1.59.06,2.42,0,5.22.13,8.06a35.2,35.2,0,0,0,1.18,7.86c0-.59-.34-1.51-.17-1.88a1.1,1.1,0,0,0,.25.41c-.46-1.83-.62-6.28-1.05-8.73,0,.16,0,.4.12.42C458.22,307.85,458.46,304.74,458.05,304.63Zm17.62,43.51.51-.27a44.38,44.38,0,0,0-3.08-6.43c.77,1.91,1.42,3.3,1.84,4.64-.17,0,0,.27-.38-.11C475,347,475.39,347.12,475.67,348.14Zm3.26-5.34c-.3-.7-.52-2.12-1.2-2.82.15.41.79,1.51.24,1A4.18,4.18,0,0,0,478.93,342.8Zm-8.94-79c0,.39-.11.17-.35.21a17,17,0,0,0,.37,2.69A2.58,2.58,0,0,0,470,263.78Zm1.25,9.69c.45,0,.33-2.31-.14-2.25A14.25,14.25,0,0,0,471.24,273.47Zm2.29,26.76c-.1,0-.09-.17.09-.14-.35-.44,0-1.14-.27-1.75-.11.3,0-.2-.21-.27.13-.18,0-.28,0-.68-.22-1.1,0,2.61.13,2.85a.07.07,0,0,0,0,.14C473.2,300,473.53,300.71,473.53,300.23Zm.37,7.14c.18,1.36.07-2.06.08-.38a43.93,43.93,0,0,0-.54-6.49C473.69,303,473.61,305.11,473.9,307.37Zm.56-2.69c.15-.63-.11-.72.15-1.31a78.34,78.34,0,0,1-.69-8.5,67.85,67.85,0,0,0-.83-8.29,33,33,0,0,0,.12,4.24c.14,1.54.28,3.14.42,4.76C473.93,298.76,474.24,301.89,474.46,304.68Zm-.24-8.05c.09.42-.05,1.2.18,1.38C474.32,297.6,474.46,296.81,474.22,296.63Zm2.27,16.25c-.34.24-.21.9,0,1.33A3.84,3.84,0,0,0,476.49,312.88Zm-19.33-17a4.49,4.49,0,0,1-.29-2.05c.08-.48.2,1,.22.21A8.08,8.08,0,0,1,457.16,295.86Zm11.74,53.23c0,.37-.1.29-.32.65a7.24,7.24,0,0,0-.28-1c.22.15.44.35.69.31C469.05,349.2,468.94,349.16,468.9,349.09Z" transform="translate(-71.52 -182.28)"/><path class="cls-3" d="M576.83,254.89a8.93,8.93,0,0,0,2.12-.2A4.5,4.5,0,0,0,576.83,254.89Zm-36.6,1.25c.16-.38,1.12-.14,1.66-.23C541.73,256.3,540.76,256.05,540.23,256.14Zm26.67-1c-.24.23-1,.11-1.3.05C565.88,254.91,566.54,255.14,566.9,255.13Zm26.3-1.54c-.08.16-1,.21-1.06,0C592.69,253.67,592.84,253.47,593.2,253.59ZM585,254c.08-.22.66-.07.94-.14,0-.12-.22-.07-.36-.08,0-.22.58-.07.82-.14a.79.79,0,0,1-.34.21c.36.21,1.21,0,1.77,0A9.23,9.23,0,0,1,585,254Zm-16.67.1c-.16.22-.82.07-1.18.14C567.25,254,567.92,254.18,568.28,254.11ZM606.56,252c-.38-.06-.5-.36-1-.34C605.78,251.34,606.58,251.53,606.56,252Zm-41.35-15.24c-.23.24-1,.08-1.4.16C564,236.69,564.78,236.84,565.21,236.76ZM595,234.27c.11-.22.55.1.94-.05C595.76,234.54,595.31,234.37,595,234.27Zm-16.33-.42c.26-.23,1-.08,1.51-.17C580.09,234,579,234,578.67,233.85Zm-4.21.29c.19-.35,1-.25,1.51-.36C575.78,234.14,574.83,233.92,574.46,234.14Zm34.2,15.33c-.3.05-.64-.1-.93.24a5.59,5.59,0,0,0-2-.27c-.09,0-.11.1-.23.1.08.2-.15.68.27.57-.34.56-1.2.1-1.19-.22-.37,0-.43.12-.7.13.51.35.74.7,1.44.5a2.32,2.32,0,0,0,.17,1c-.65.08-.62.27-.9.73a3.39,3.39,0,0,0-1-.14c-.15,0-.18.18-.34.21-.07.3.33.17.26.47-5.83-.19-11.74.5-17.79.55-1.51.82-2.32.17-4.12.4.22.33,1.16,0,1.55.21-4.36.4-9,.28-12.5.87a25.74,25.74,0,0,0-6.17-.13c-.41,0,0,.26-.22.3a24.74,24.74,0,0,0-2.73,0c.14-.64,1.18-.61,2.11-.66-.95,0-2.92-.19-3,.11-2.15.08-3.78.26-6.15.31-.26.18-.77.16-.81.51a7.53,7.53,0,0,0-2.37.26c.17.22.83,0,1.19.06-.68.41-2.56.35-2.86-.2a33.27,33.27,0,0,0-6.16.44c-1.76-1-4-.14-6.28-.27,1.51.19-.85.29-1,.31-1.25.15-2.48.39-3.58.58-2.06.35-3.67.13-5,.38-3.2.6-6.13.76-8.47,1-.23.09-.29.27-.53.36,0-.09.08-.1.14-.14-.82-.33-2.09-1-1.57-2.23-.24-.44-.73-.6-1.23-.9.12-1.44-.76-2.94-.2-4.32-.86-.72-.68-2-1-3.12s-1.51-2.31-.44-3.4c-.38-1.92,1.54-3.17,4-3.75a34.89,34.89,0,0,1,7.4-.55c2.23-.8,4.63,0,7.09-.31.36,0,.41-.27.72-.31,3.47.19,6.4-.33,9.32-.38a43.42,43.42,0,0,0-4.79-.1c-.88-.05.38-.14.7-.11l23.34-1.24c.88-.05,2,.22,2.45-.2a14,14,0,0,0,3.27-.13c.05-.16-.64-.13-.58,0,.95-.66,3.45-.23,5.13-.6-2-.58-6.5.21-8.66.07,3.83-.42,7.18-.34,10.73-.94,0,.23.53-.08.36.27,2-.2,3.65-.16,5.27-.25,1.14-.06,2.28-.6,3.39-.16,7-.17,13-.43,18.81,0-.31.32-.55-.27-.94.05a7.93,7.93,0,0,1,1.19.32c.55-.41,3.24-.25,3.69.67a13.64,13.64,0,0,0-2.61-.34c.22.24.88.07,1,.43a7.43,7.43,0,0,1-2.24-.07c-.16,0,0,.17.13.19-1.49.09-3.21-.59-4.83,0,.68.12,1.69-.24,2.25.17-.17.15-.91-.05-1.41.07a4.67,4.67,0,0,0,1.78.2c-.57-.37.47,0,.93-.15-1.16.36-2.51.53-1.7,1.25a29.75,29.75,0,0,0,3.06-.07c-.22-.18-.44,0-.26-.37l-.58,0c.63,0,1-.57,1.84-.68,0,.13-.29.1-.46.12.09.32.42.42.85.44,0,.27-.56.15-.45.51s.25-.11.47,0c.08.3-.53.1-.57.32a9.53,9.53,0,0,0,2,.09.34.34,0,0,1-.34.21c.3.24.93-.05,1.29-.07,0,.47.58.34.63.74-.74-.37-.93.26-1.19-.23-.46.68-1.65.35-2.68.63a13,13,0,0,0,2,.08c-.07.14-.24.2-.46.22,0,.1.47.31.35,0,.37.19-.32.37-.44.51.16,0,.31,0,.26.47-.52.13-1.58-.44-2.23.12a2.54,2.54,0,0,1-.49-.26c-.4.13-.59.43-1.27.35.7-.22-.28-.21-.39-.55,0,.34-1.49.2-2.09.4a10.72,10.72,0,0,0,2.35,0,.89.89,0,0,1-.34.21,7.14,7.14,0,0,0,3.4-.28c0,.32.55.23.84.34.43-.06.31-.51.8-.53.11.65-.13.77-.9.92.88.09,2.26-.34,2.64.82a4,4,0,0,0-3.21-.5c.49.23,1.66-.17,2,.18-.35,0-.33.21-.58.32.31.31.13.15.61.36-.21.25-.6-.19-1.06,0-.17.3.77.16.13.28,0,.16.46.3.48.07,0,.13-.43.53-.31.89a6.45,6.45,0,0,0-1,.15c.3.52,1.08-.24,1.42,0-.13-.23.48-.66-.16-.67.28-.46.64,0,1,.24-.09.29-.38,0-.59,0-.26.78,1.49,1.63.58,2.09-.06.27.26.18.37.27-.56.44-1.28.2-2,.5a2.47,2.47,0,0,0,1.52-.09c.39.09-.09.29-.34.22.26.62,1.87,0,2.24.07.13.25-.86.47-1,.83-.15-.11-.23-.27-.6-.16.43-.24-.14-.12.1-.4-.44.49-.85.43-1.37.85.57.38,1.28.2,2,.66a1.86,1.86,0,0,1,1.53-.08C609,249,608.26,249.2,608.66,249.47ZM567,254.16c-.19.29-1.22,0-1.41.25,4.37-.11,9.55.24,13.34-.59-.47,0-1.25.19-1.54,0a.86.86,0,0,0,.35-.21c-1.53.24-5.14.1-7.19.52.14,0,.33,0,.35-.11C569.79,254,567.09,253.75,567,254.16Zm39.35-8.43,0-.58a24.3,24.3,0,0,0-6.22.34,33.42,33.42,0,0,1,4.36.06c-.09.14.21.11-.22.3C605.2,245.94,605.43,245.57,606.33,245.73Zm-3.22-5.13c-.7,0-2-.34-2.83.05.41,0,1.56-.19,1,.14A3.89,3.89,0,0,0,603.11,240.6Zm-72-.74c.36.07.14.14.14.38a12.52,12.52,0,0,0,2.43.11A2.13,2.13,0,0,0,531.08,239.86Zm7.91,0c0-.43-1.65-.42-1.64,0C538,240.06,538.24,239.86,539,239.86Zm24-1.17c0,.1-.14.08-.12-.09-.38.34-1,0-1.51.25.25.11-.17,0-.23.2-.15-.13-.24,0-.58,0-1,.2,2.23,0,2.46-.09,0,.05.09.1.11,0C562.71,239,563.36,238.68,562.94,238.69Zm6.44-.36c1.27-.16-1.92-.09-.36-.08a33.47,33.47,0,0,0-5.84.52C565.34,238.54,567.27,238.59,569.38,238.33Zm-2.49-.57c-.57-.16-.65.11-1.18-.15-5.37.92-9.37.39-14.25.6C556,239.13,561.82,238.19,566.89,237.76Zm-7,.17c.35-.07,1,.09,1.17-.13C560.68,237.87,560,237.71,559.87,237.93Zm14.91-2c.21.35.86.27,1.3.14A3.93,3.93,0,0,0,574.78,236Zm-16.07,19a4.41,4.41,0,0,1-2.12.17c-.51-.11,1-.13.23-.2A9.37,9.37,0,0,1,558.71,255Zm46.09-2.67c.27.19.19.21.39.56a4.22,4.22,0,0,0-.83-.15c.17-.15.39-.27.44-.51C604.93,252.2,604.87,252.28,604.8,252.29Z" transform="translate(-71.52 -182.28)"/><path class="cls-3" d="M548.64,313.47a10,10,0,0,0,.28,2.23A4.87,4.87,0,0,0,548.64,313.47Zm-1-39.27c.37.19.08,1.21.15,1.78C547.38,275.79,547.66,274.77,547.6,274.2Zm.53,28.61c-.24-.25-.12-1.1-.07-1.4C548.34,301.71,548.11,302.42,548.13,302.81Zm2.1,27.22a1.17,1.17,0,0,1,0-1C550.16,329.53,550.36,329.69,550.23,330Zm-.43-8.16c.22.07.09.67.16.95.12,0,.07-.23.08-.37.22,0,.08.58.15.82a.84.84,0,0,1-.22-.34c-.2.38,0,1.22,0,1.78A9.58,9.58,0,0,1,549.8,321.87Zm-.63-17.59c-.22-.17-.09-.88-.16-1.26C549.23,303.18,549.09,303.89,549.17,304.28Zm1.3,38.22c.12-.32.44-.37.5-.79C551.25,341.94,550.92,342.62,550.47,342.5Zm16-41.61c-.24-.23-.08-1-.17-1.44C566.55,299.69,566.4,300.45,566.48,300.89Zm3,31.87c.22.14-.12.61,0,1.08C569.14,333.61,569.35,333.1,569.46,332.76Zm.28-18c.24.27.13,1.1.23,1.6C569.63,316.24,569.65,315,569.74,314.73Zm-.45-4.37c.36.18.29,1,.41,1.54C569.34,311.72,569.52,310.73,569.29,310.36Zm-16.78,34.55c0-.28.23-.55,0-.9a4.3,4.3,0,0,0,.67-1.78c0-.1-.08-.13-.07-.24-.2,0-.64-.26-.6.14-.49-.41.12-1.11.43-1.05.1-.33-.06-.41,0-.67-.43.42-.78.58-.72,1.24a2.67,2.67,0,0,0-1.07,0c0-.59-.15-.6-.56-.93a3,3,0,0,0,.28-.83c0-.14-.16-.18-.16-.34-.29-.1-.22.28-.51.17,1-5.19.5-10.93.31-17-.86-1.51-.23-2.35-.52-4.2-.33.24,0,1.19-.16,1.6-.55-4.44-.63-9.47-1.3-13.2a31.08,31.08,0,0,0,0-6.62c0-.44-.26,0-.3-.24a28.18,28.18,0,0,0,0-2.92c.65.15.61,1.26.66,2.26,0-1,.2-3.13-.11-3.17-.08-2.3-.24-4.05-.26-6.59-.17-.28-.15-.83-.49-.89a8.79,8.79,0,0,0-.22-2.54c-.22.18,0,.89-.08,1.28-.41-.74-.29-2.75.27-3.06a40.86,40.86,0,0,0-.23-6.61c1-1.85.32-4.23.57-6.72-.27,1.63-.24-.94-.24-1.16-.06-1.39-.22-2.8-.3-4.09-.14-2.41.28-4.34.26-6a47.23,47.23,0,0,1,1.44-11.37c0-.36-.12-.54-.1-.9.1,0,.06.16.07.26.65-1,1.88-2.18,2.71-.87.5-.06.87-.57,1.36-1,1.24.91,3,.71,4,1.93,1-.55,2.15.23,3.26.34s2.72-.38,3.3,1c3.82.82,1.65,7.78,1.14,11.45.44,2.2-.57,4.41-.5,6.89,0,.37.23.43.25.74-.44,3.45,0,6.55-.12,9.58.28-1.88.18-2.79.33-5,.09-.9.12.4.07.73.05,6.81.2,15.48.68,24.18,0,.91-.22,2.07.2,2.53a14.28,14.28,0,0,0,.18,3.38c.16,0,.12-.67,0-.61.69,1,.29,3.56.72,5.28.51-2-.35-6.69-.22-8.93.43,4,.45,7.4,1.15,11-.24,0,.1.55-.26.38.26,2,.3,3.8.45,5.51.1,1.22.69,2.42.28,3.63.39,7.55.58,14.41-.79,21.14-.25-.4.37-.59.1-1.09a7.21,7.21,0,0,1-.51,1.33c.35.69-.38,3.81-1.39,4.1a15.26,15.26,0,0,0,.88-2.92c-.26.21-.24,1-.62,1a11.9,11.9,0,0,1,.49-2.55c0-.19-.17,0-.21.12.16-1.7,1-3.59.64-5.48-.19.75.07,1.94-.4,2.52-.13-.21.14-1,.07-1.6a6.76,6.76,0,0,0-.39,2c.43-.59,0,.54,0,1.07-.19-1.37-.22-2.89-1-2.06-.29,1.88-.19,2.16-.36,3.42.22-.22.08-.49.41-.23l.06-.66c-.07.71.4,1.2.37,2.19-.13-.06,0-.35,0-.55-.34.05-.49.41-.58.88-.27-.05,0-.64-.42-.58s.06.29-.06.52c-.31,0,0-.61-.22-.69a16.29,16.29,0,0,0-.47,2.21c-.11-.07-.17-.19-.14-.42-.3.28-.14,1.05-.21,1.44-.45-.14-.47.57-.87.53.54-.73,0-1.07.5-1.25-.58-.64,0-1.87-.11-3-.21.58-.27,1.46-.46,2.16a.69.69,0,0,1-.12-.54c-.1,0-.4.46-.05.39-.26.36-.3-.42-.41-.57-.06.16-.09.33-.51.19,0-.58.71-1.62.27-2.41a2.93,2.93,0,0,1,.34-.48c-.07-.45-.34-.69-.18-1.41.13.77.24-.28.6-.35-.33,0,0-1.63-.17-2.3a14.75,14.75,0,0,0-.23,2.53,1.07,1.07,0,0,1-.17-.39,9.32,9.32,0,0,0-.22,3.68c-.33,0-.32.55-.49.84,0,.46.44.43.35.95-.65,0-.72-.29-.72-1.13-.25.91-.11,2.46-1.36,2.59a4.13,4.13,0,0,0,1.15-3.24c-.3.46-.16,1.77-.57,2.07.08-.35-.14-.38-.2-.66-.36.25-.16.1-.46.56-.21-.27.3-.58.24-1.09-.26-.23-.3.77-.3.08-.15-.07-.38.41-.16.48-.12-.06-.44-.54-.81-.48a6.25,6.25,0,0,0,.05-1.1c-.56.21,0,1.14-.29,1.43.25-.08.55.62.68,0,.4.38-.1.66-.42.93-.26-.15.11-.38.09-.6-.72-.41-1.89,1.15-2.17.16-.25-.12-.21.21-.34.3-.31-.64.06-1.29-.1-2a2.43,2.43,0,0,0-.21,1.5c-.16.35-.26-.15-.14-.37-.65.13-.36,1.78-.55,2.12-.27.06-.27-.92-.58-1.14.13-.12.31-.16.28-.53.15.46.15-.11.37.17-.4-.52-.26-.9-.57-1.47-.49.46-.42,1.19-1,1.78a1.66,1.66,0,0,1-.25,1.42C552.92,345.33,552.85,344.61,552.51,344.91Zm-3.41-42c-.3-.2,0-1.3-.27-1.51.16,4.68,0,10.3.95,14.26,0-.51-.23-1.31,0-1.62a.88.88,0,0,0,.22.35c-.31-1.59-.28-5.48-.75-7.67,0,.15,0,.36.12.37C549.32,305.9,549.5,303,549.1,302.88Zm7.55,40.66.58.09a18.56,18.56,0,0,0,.63-6.31,24.61,24.61,0,0,1-.66,4.38c-.13-.1-.15.19-.27-.27C556.68,342.39,557,342.68,556.65,343.54Zm5.65-2.39c.13-.75.63-2.11.35-3.06-.07.44,0,1.71-.27,1A4.88,4.88,0,0,0,562.3,341.15Zm2.16-75.47c-.11.35-.16.13-.4.1a10.86,10.86,0,0,0-.31,2.42A2.17,2.17,0,0,0,564.46,265.68Zm-.54,8c.43,0,.5-1.68.06-1.7C563.77,272.61,564,272.9,563.92,273.68Zm.61,24.88c-.1,0-.08-.15.09-.13-.34-.39,0-1-.24-1.56-.12.26,0-.18-.21-.24.13-.16,0-.25,0-.61-.2-1,0,2.32.09,2.55,0,0-.1.1,0,.12C564.2,298.31,564.54,299,564.53,298.56Zm.45,6.66c.18,1.31,0-2,.07-.37a38.85,38.85,0,0,0-.6-6C564.7,301,564.66,303,565,305.22Zm.52-2.58c.15-.6-.12-.67.13-1.22-1-5.55-.41-9.69-.52-14.75C564.09,291.38,565,297.4,565.5,302.64Zm-.21-7.26c.07.36-.09,1.05.14,1.2C565.35,296.22,565.51,295.54,565.29,295.38Zm2.19,15.36c-.34.22-.23.9-.08,1.35A4.1,4.1,0,0,0,567.48,310.74ZM548.27,294a5.08,5.08,0,0,1-.16-2.28c.12-.54.12,1.12.2.25A10.1,10.1,0,0,1,548.27,294Zm2.22,46.88c-.23.21-.24.13-.61.25a3,3,0,0,0,.27-.71c.13.18.21.39.44.48C550.56,341,550.49,341,550.49,340.9Z" transform="translate(-71.52 -182.28)"/><path class="cls-3" d="M581.24,309.51c0,.58-.19,1.43,0,1.85A3.3,3.3,0,0,0,581.24,309.51Zm1.57-31.71c.37.17.06,1,.12,1.45C582.56,279.09,582.86,278.27,582.81,277.8Zm-.95,23.1c-.21-.22,0-.89.06-1.13C582.16,300,581.88,300.59,581.86,300.9ZM581,323.79c-.15-.08-.12-.85.05-.92C581,323.34,581.17,323.5,581,323.79Zm.36-7.18c.21.09,0,.58,0,.83.12,0,.09-.19.11-.31.22.06,0,.51.06.73a.82.82,0,0,1-.17-.32c-.24.3-.09,1.06-.18,1.53A6.83,6.83,0,0,1,581.38,316.61Zm1.38-14.43c-.21-.16,0-.72,0-1C582.93,301.3,582.72,301.86,582.76,302.18Zm-1.45,33.35c.1-.32.4-.39.43-.8C582,334.93,581.77,335.6,581.31,335.53Zm19-34.54c-.21-.22,0-.86,0-1.24C600.47,300,600.26,300.6,600.3,301Zm-.23,26.21c.21.12-.15.47,0,.82C599.72,327.84,599.94,327.46,600.07,327.2ZM602,313c.21.26,0,.93,0,1.34C601.72,314.23,601.89,313.25,602,313Zm.09-3.7c.33.2.17.88.22,1.35C602,310.46,602.3,309.64,602.11,309.3Zm-18.49,28.3c0-.26.16-.54-.15-.83a4.42,4.42,0,0,0,.47-1.72c0-.09-.09-.11-.08-.21-.21.05-.67-.2-.59.17-.52-.35,0-1.05.34-1,.08-.31-.08-.38-.07-.62-.4.41-.76.58-.64,1.2a2.8,2.8,0,0,0-1.06.05c0-.57-.21-.57-.64-.85a2.75,2.75,0,0,0,.24-.81c0-.14-.16-.17-.18-.32-.29-.09-.2.27-.49.18.75-5,.64-10.23,1.15-15.47-.68-1.38.05-2,0-3.6-.35.16-.13,1-.35,1.32,0-3.81.54-7.84.25-10.89a18.66,18.66,0,0,0,.64-5.32c0-.36-.26,0-.27-.22a16.64,16.64,0,0,0,.21-2.35c.63.17.51,1.07.49,1.87.12-.82.43-2.51.12-2.56.09-1.87,0-3.29.17-5.34-.16-.24-.11-.68-.45-.75a5.47,5.47,0,0,0-.09-2.06c-.23.13-.07.72-.15,1-.35-.61-.16-2.23.41-2.44a24.37,24.37,0,0,0,0-5.35c1.08-1.46.39-3.41.65-5.42-.28,1.32-.23-.76-.24-.94-.07-1.12-.22-2.27-.32-3.31-.18-1.95.21-3.5.14-4.82A35.06,35.06,0,0,1,584,257c0-.3-.16-.44-.16-.73.1,0,.07.13.09.21.58-.81,1.73-1.84,2.64-.8.5-.06.84-.49,1.3-.86,1.29.69,3,.47,4.08,1.44,1-.49,2.16.11,3.28.16s2.68-.42,3.34.68c3.89.55,2.08,6.54,1.65,9.64.5,1.87-.48,3.75-.38,5.85,0,.3.23.36.26.63-.43,2.91-.07,5.55-.21,8.11a33.9,33.9,0,0,0,.4-4.19c.1-.76.12.34.06.62,0,5.78-.19,13.15-.43,20.55,0,.77-.39,1.73,0,2.15a11,11,0,0,0-.14,2.88c.15.05.18-.55,0-.52.59.89-.06,3,.16,4.54.76-1.65.36-5.7.67-7.58.1,3.39-.26,6.31,0,9.46-.22-.05,0,.47-.3.3,0,1.73-.16,3.2-.23,4.61,0,1,.39,2.05-.14,3a154.83,154.83,0,0,1-1.78,16.37c-.28-.3.33-.45,0-.82a5.68,5.68,0,0,1-.43,1c.36.52-.07,2.85-1,3.14a10.65,10.65,0,0,0,.6-2.23c-.26.16-.16.76-.53.8a5.94,5.94,0,0,1,.29-1.94c0-.15-.17,0-.2.09,0-1.3.9-2.74.5-4.19-.19.57.08,1.48-.38,1.93-.14-.16.13-.78.06-1.23a3.59,3.59,0,0,0-.37,1.52c.42-.45,0,.42.06.83-.25-1.05-.29-2.24-1.08-1.6a21.87,21.87,0,0,0-.23,2.67c.21-.18,0-.38.39-.19l0-.51c0,.55.47.91.5,1.67-.13,0-.07-.26-.08-.42-.33.05-.46.33-.52.7-.27,0-.09-.5-.46-.44s.08.23,0,.41c-.3,0-.05-.47-.26-.52a6.71,6.71,0,0,0-.28,1.73.29.29,0,0,1-.18-.32c-.27.24,0,.82,0,1.13-.47-.08-.4.48-.8.48.43-.61-.17-.83.34-1-.63-.47-.18-1.47-.36-2.39a9.89,9.89,0,0,0-.28,1.74.48.48,0,0,1-.18-.42c-.1,0-.35.38,0,.3-.22.31-.34-.31-.46-.43-.05.13-.06.27-.49.18-.08-.47.58-1.33.09-1.95a2,2,0,0,1,.31-.39c-.09-.37-.37-.56-.23-1.15.16.63.24-.22.59-.28-.34,0-.06-1.32-.2-1.86a8.46,8.46,0,0,0-.19,2.05.67.67,0,0,1-.18-.32,5.49,5.49,0,0,0,0,3c-.33,0-.29.46-.42.7s.48.32.44.74c-.65,0-.75-.18-.82-.86-.17.76.12,2-1.08,2.21a3.12,3.12,0,0,0,.81-2.74c-.27.4,0,1.46-.37,1.73,0-.29-.18-.3-.26-.52-.34.23-.16.09-.42.49-.23-.21.25-.5.15-.92-.29-.17-.24.66-.3.09-.15,0-.34.37-.11.41-.13,0-.49-.43-.86-.36-.06-.55.08-.29,0-.92-.54.2.14,1-.15,1.22.24-.08.6.49.68-.07.43.29-.05.56-.33.81-.28-.1.07-.33,0-.51-.75-.3-1.76,1.14-2.14.3-.25-.08-.19.21-.3.3-.38-.53-.07-1.13-.3-1.77a1.94,1.94,0,0,0-.07,1.34c-.12.32-.27-.11-.17-.32-.65.17-.15,1.62-.29,1.94-.26.08-.39-.8-.73-1,.12-.12.29-.17.22-.51.19.4.13-.11.38.13-.45-.44-.35-.79-.71-1.27-.44.45-.32,1.09-.86,1.7a1.44,1.44,0,0,1-.06,1.34C584.08,337.93,583.92,337.28,583.62,337.6Zm-.8-36.55c-.28-.19.14-1.05-.13-1.24-.25,3.79-1.05,8.24-.58,11.59.09-.41-.07-1.09.17-1.33a.67.67,0,0,0,.18.32c-.11-1.34.35-4.45.11-6.27,0,.12,0,.29.08.32C582.74,303.5,583.22,301.18,582.82,301.05Zm4.75,34.89.57,0a18.15,18.15,0,0,0,.27-5.43,26.36,26.36,0,0,1-.47,3.78c-.14-.09-.14.17-.28-.22C587.47,334.94,587.81,335.17,587.57,335.94Zm5.42-2.3c.07-.6.53-1.7.22-2.46-.05.35,0,1.37-.23.81A2.9,2.9,0,0,0,593,333.64ZM599.65,271c-.09.3-.15.11-.39.09a8.79,8.79,0,0,0-.29,2A1.64,1.64,0,0,0,599.65,271Zm-.52,6.77c.43,0,.51-1.41.07-1.44C599,276.88,599.18,277.13,599.13,277.79Zm-.56,21c-.1,0-.07-.13.1-.09-.31-.37.09-.87-.13-1.35-.13.21.06-.14-.18-.21.14-.13,0-.21,0-.51-.13-.85-.21,1.94-.11,2.15,0,0-.11.08,0,.1C598.26,298.61,598.54,299.21,598.57,298.84Zm-.18,5.65c.05,1.13.25-1.66.11-.3a25.19,25.19,0,0,0,0-5.15C598.52,301,598.3,302.63,598.39,304.49Zm.78-2.12c.2-.49-.06-.58.24-1-.47-4.77.38-8.22.52-12.52C598.69,292.76,599.17,297.9,599.17,302.37Zm.4-6.15c0,.31-.17.88,0,1C599.57,296.94,599.78,296.37,599.57,296.22Zm.7,13.2c-.37.15-.34.73-.25,1.12A3,3,0,0,0,600.27,309.42Zm-17.58-15.58a3.42,3.42,0,0,1,0-1.85c.15-.42,0,.91.18.22A6.41,6.41,0,0,1,582.69,293.84ZM581.19,334c-.22.22-.23.14-.59.28a3.29,3.29,0,0,0,.23-.71c.13.17.22.37.46.44C581.27,334.11,581.19,334,581.19,334Z" transform="translate(-71.52 -182.28)"/><path class="cls-3" d="M595.25,221.64a1.85,1.85,0,0,1,.27,0A1.31,1.31,0,0,0,595.25,221.64Zm-1.32-3.37c0-.05-.17-.34-.24-.5C593.71,217.82,593.84,218.11,593.93,218.27Zm.51,3.63a2.29,2.29,0,0,0-.29.18A2,2,0,0,1,594.44,221.9Zm2.08.15,0,0Zm-.21-.11.08.05,0,0,.07,0,0,0,.12.08Zm-1.55-.2-.27.13Zm1.13-1.14v0Zm-12,8.06c.29.05.5.69.81,1C584.37,229.59,584.13,228.94,583.88,228.66Zm3.58-19.56c-.05-.22.39-.11.55-.37C588.06,209.07,587.7,209.07,587.46,209.1Zm-7.54,9.07c-.16-.27.17-.87.23-1.24C580.43,217.1,580.09,218,579.92,218.17Zm-.29,3.59c-.34-.18-.22-.9-.24-1.35C579.7,220.6,579.41,221.42,579.63,221.76Zm16.25-1.26v.2s0,0,0,0a.41.41,0,0,0,0,.1.22.22,0,0,1,0,.09l0-.15h0l0,.08,0,.12v0a2.83,2.83,0,0,0,.5,1c.18.23.22.18-.06,0a2.74,2.74,0,0,0-.47-.21l.2.08a2.62,2.62,0,0,0-.89-.21h-.35l.42-.1h0l-.08,0a4,4,0,0,0-1.26.65l0,0a2.37,2.37,0,0,0-.36.36,2.31,2.31,0,0,1,.26-.27,1.42,1.42,0,0,0-.27.29,3.17,3.17,0,0,0,.37-1.44,2.79,2.79,0,0,0,0-.36,10.34,10.34,0,0,0,0-1.14c0,.08,0,.42,0,.59a12.54,12.54,0,0,0-.13-1.45c0-.27-.1-.56-.16-.82l-.09-.38,0-.17,0,0-.25-1h0v0a6.59,6.59,0,0,0,.25.75,8.73,8.73,0,0,0,.93,1.82c-.27-.4.15.22.19.26a5.7,5.7,0,0,0,.61.68l.2.16.07.06.59.4h0l0,0-.17-.09a1.67,1.67,0,0,0,.37.06,2.39,2.39,0,0,0,.76-.11l.09,0h0l.09,0s0,0,0,0l0,0h0a6.55,6.55,0,0,1,.8-.39,27.77,27.77,0,0,1,2.94-1.46c1.14-.51,2.2-1.57,3.19-1.14a2.15,2.15,0,0,1,2.25.27,3.39,3.39,0,0,1,1,2.2,8.16,8.16,0,0,1-1.26,4.69,3.08,3.08,0,0,1-1,2.08c-.53.58-1.12,1-1.57,1.62-.15.15,0,.35-.11.51-1.7,1.2-2.9,2.35-4.33,2.92a6.93,6.93,0,0,0,2.43-1c.46-.21-.12.24-.3.29a13.9,13.9,0,0,1-2.53,1.35,14.19,14.19,0,0,1-3,.89,12.09,12.09,0,0,1-4.36,0A10.86,10.86,0,0,1,586,230.5c-.64-.59-1-1.55-1.53-1.63-.51-1-.82-1.54-1.27-2.32-.16,0,0,.52.18.41a2.29,2.29,0,0,1-.91-1.52c-.19-.67-.28-1.46-.52-2.09a3.6,3.6,0,0,0,0,1.48,7.59,7.59,0,0,0,.54,1.75,21.17,21.17,0,0,0,1.92,3.29,11.42,11.42,0,0,1-2.35-4,17,17,0,0,1-.56-2c-.17-.7-.29-1.39-.4-2.1.23,0-.06-.43.29-.28a9,9,0,0,1,.14-2.12c.13-.63.3-1.21.45-1.78.24-.75.09-1.75.88-2.21a14.47,14.47,0,0,1,4.23-4.89,11.26,11.26,0,0,1,5.68-2.13c-.14.35-.45-.19-.65.18a2.88,2.88,0,0,1,.9.16c.26-.52,2.29-.46,2.55.52a4.56,4.56,0,0,0-1.78-.3c.18.22.61,0,.7.39a4.65,4.65,0,0,1-1.46.08c-.1.06,0,.17.12.17a14.23,14.23,0,0,1-1.52.15,1.83,1.83,0,0,0-1.39.66c.42-.06.87-.61,1.36-.31,0,.17-.56.11-.79.34a2.32,2.32,0,0,0,1.1-.15c-.45-.25.27-.12.5-.29-.59.52-1.25.92-.55,1.45.92-.2,1-.33,1.63-.44-.16-.17-.24,0-.22-.35l-.33.09c.35-.08.44-.65,1-.83,0,.14-.16.12-.26.16a.55.55,0,0,0,.58.38c0,.27-.31.17-.19.52s.12-.12.26,0c.08.29-.28.11-.26.34a4.05,4.05,0,0,0,1.1,0c0,.12-.06.2-.17.21.18.25.49-.05.69-.05,0,.47.3.37.31.77-.37-.4-.46.21-.6-.28-.19.68-.79.32-1.23.67a5.89,5.89,0,0,0,.95,0,.24.24,0,0,1-.19.22c0,.1.24.31.16,0,.18.19-.12.37-.15.5s.14,0,.16.47c-.18.11-.72-.42-.86.16a1.38,1.38,0,0,1-.26-.23c-.13.15-.12.44-.4.43.2-.28-.17-.18-.33-.49.12.32-.53.33-.67.6a2.08,2.08,0,0,0,.89-.27.48.48,0,0,1-.06.22c.45,0,.92,0,1.26-.46.07.31.25.23.38.34.16-.05.07-.51.27-.52.08.65,0,.77-.26.91.31.08.83-.31.92.9-.23-.71-.66-.8-1.08-.59.2.23.56-.15.7.2-.11,0-.09.21-.16.31.11.31,0,.15.2.37,0,.25-.18-.2-.31-.06s.23.17.07.28c0,.16.15.31.13.08a4.15,4.15,0,0,0,0,.88c-.12.1-.08,0-.21.12.14.52.2-.21.31.06,0-.23.07-.65-.09-.67,0-.45.17,0,.24.26s-.08-.05-.13,0a7.67,7.67,0,0,0,.17,1.17,3.09,3.09,0,0,1,0,.93,1.09,1.09,0,0,0,.05.3c0,.39-.11.14-.13.4s.1.15.11,0c0,.1,0,.28,0,.2.06.62.08.08.11.19s0,.45,0,.75v-.18l0-.38v.56a.25.25,0,0,1,0-.08S595.88,220.52,595.88,220.5Zm-1.41,1.38a3.45,3.45,0,0,0-.32.2,3.91,3.91,0,0,1,.75-.4,2.59,2.59,0,0,1,.3-.1l.09,0h0l-.42.1h0a2,2,0,0,1,.61,0l-.19,0h0l-.2,0h-.31l.42-.1h0l-.09,0h0A4.34,4.34,0,0,0,594.47,221.88Zm1.29-3.42,0-.58c-.28-.13-.82-.26-1,.24a.83.83,0,0,1,.75.08c0,.14,0,.13,0,.29C595.64,218.62,595.63,218.27,595.76,218.46Zm-1.54-5.12c-.29,0-1-.21-1.17.26.17,0,.58-.33.43,0C593.74,213.77,594,213.5,594.22,213.34ZM604,227.25c-.2.11-.16,0-.34-.19a6.54,6.54,0,0,0-1.08.87C603.12,228.2,604.09,228.07,604,227.25Zm-3.51,2.68c.22.39,1-.07.75-.45C600.9,229.5,600.89,229.75,600.53,229.93Zm-14-.82c.07-.07.13,0,0,.13.46,0,.56.62,1.07.73-.08-.23.08.13.28,0,0,.19.15.15.4.3s0-.12-.47-.48-1-.82-1.06-.85,0-.13-.07-.07C586.9,229,586.32,228.85,586.54,229.11Zm-2.41-4c-.37-.78.26,1.25,0,.25a6.71,6.71,0,0,0,.88,1.9,6,6,0,0,0,1.48,1.59A11.39,11.39,0,0,1,584.13,225.16Zm0,1.83c0,.47.3.4.27.89a19.79,19.79,0,0,0,2.27,2.31A13.18,13.18,0,0,0,589.4,232a10.33,10.33,0,0,0,5.21,1.1c-.75-.23-1.56-.39-2.48-.61a16,16,0,0,1-3-1,11.23,11.23,0,0,1-3-2A10.49,10.49,0,0,1,584.15,227Zm3.94,4.51c-.32-.12-.73-.64-1-.56C587.41,231.1,587.84,231.61,588.09,231.5Zm-6.63-9.94c.36-.15.31-.64.24-1C581.6,220.9,581.39,221.1,581.46,221.56Zm12.17.87a3.46,3.46,0,0,0,.15-.5c0-.14-.07.3,0,.07C593.74,222.1,593.66,222.36,593.63,222.43Zm2.28-1.66v0l0,.08v0S595.9,220.77,595.91,220.77Z" transform="translate(-71.52 -182.28)"/><path class="cls-3" d="M653.83,251.54c2.27-.2,5.62-.07,7.24-.32-1.46,0-2.73,0-3.92,0S654.9,251.39,653.83,251.54Zm18.22,58.68a5.56,5.56,0,0,1-.06-1.31c0-.62.06-1.39.06-2.23a26.79,26.79,0,0,0-.32-5,10.57,10.57,0,0,1,.54,3.55c0,.84,0,1.74,0,2.6S672.1,309.54,672.05,310.22Zm-48.06-54a5.66,5.66,0,0,1-1.24.84l-1,.59a1.92,1.92,0,0,1,.84-.72ZM711,252a15,15,0,0,1-3.78-.13C709.13,251.94,709.72,251.78,711,252Zm-29.09-1a18.58,18.58,0,0,1,3.29,0c-.06-.12-.75-.11-1.23-.14.18-.21,2,0,2.89,0a8.39,8.39,0,0,1-1.25.16c1.24.25,4.26.16,6.2.29C689.16,251.39,684.55,251.12,681.87,251Zm-55,3c-.35.35-2,.83-2.8,1.3A11.23,11.23,0,0,1,626.91,253.93Zm132.7-3.86a34.41,34.41,0,0,0-3.49-.08C756.85,249.61,759.75,249.59,759.61,250.07Zm-148-7.78c-.42.44-1.38,1.16-2.39,2a23.09,23.09,0,0,0-2.74,2.8,11.82,11.82,0,0,1,2.13-2.39C609.57,243.81,610.73,243,611.59,242.29ZM721.42,233c.42-.21,1.88.15,3.27,0A8.21,8.21,0,0,1,721.42,233Zm-58.16-2.66c1-.27,3.83,0,5.55-.12C668.41,230.58,664.33,230.42,663.26,230.35Zm-15.5.62c.73-.39,3.64-.38,5.6-.55C652.62,230.8,649.14,230.69,647.76,231Zm119.71,15.72a13.83,13.83,0,0,0-3.39.63c-1,0-2.09.05-3.32.15s-2.59.13-4,.24c-.35,0-.42.13-.85.17.28.17-.63.73.91.5-1.3.65-4.38.42-4.3.09-1.31,0-1.55.18-2.56.24a12.65,12.65,0,0,0,5.18.2c0,.45-.16.53.51,1a6.39,6.39,0,0,0-3.39,1c-1,0-2.13-.05-3.46,0-.56.07-.66.21-1.27.26-.31.32,1.19.12.88.44-21.32.69-42.56-.26-63.67-1.13-5.42.59-8.12-.16-14.36-.08.7.33,4,.12,5.31.35-3.81,0-7.62,0-11.43,0s-7.57.09-11.21.3-7.18.43-10.53.72a69.84,69.84,0,0,0-8.9,1.31,30.2,30.2,0,0,0-8.06,1.91c-.64.26-1.26.54-1.85.85-.3.15-.58.3-.86.47l-.41.25-.33.21a9,9,0,0,0-2.06,1.88c-.41.53.2.16,0,.47a5.85,5.85,0,0,0-.35.47s-.05.05-.07.07a.57.57,0,0,0-.1.13.4.4,0,0,0,0,.38c-.31,0-.51-.07-.55-.26a1,1,0,0,1,.16-.62,1.79,1.79,0,0,0-.32.54,1.15,1.15,0,0,0,0,.64c.07.15.16.22.25.18a1.19,1.19,0,0,0,.23.31c0,.05.09.07.13.12s.29.25.48.39a29.17,29.17,0,0,0,3.22,2.11c2.85,1.68,5.8,3.36,9.33,5.29.87.28,2.39,1.13,2.7.9a62.18,62.18,0,0,0,7.23,3.47,33.11,33.11,0,0,0-3.54-1.88c2.25.75,7.88,3.57,8.52,4.46a77.83,77.83,0,0,1,11.6,6.13,33.16,33.16,0,0,1,5.91,5.1,31.43,31.43,0,0,1,4.33,6.25,39.66,39.66,0,0,1,2.32,14.85,32.36,32.36,0,0,1-1.38,8.11c-.22.68-.45,1.36-.7,2s-.56,1.35-.87,2a31.67,31.67,0,0,1-2.1,3.72c1-1.57,1.39-2.15,1.39-2.08a12.22,12.22,0,0,1-.9,1.71,36.21,36.21,0,0,1-3.37,4.67,42.69,42.69,0,0,1-13.86,10.82,45,45,0,0,1-13,3.95,79.18,79.18,0,0,1-10.53.77c-1.93,0-3.83,0-5.7-.14-.94-.06-1.86-.14-2.79-.23l-2.83-.33a66.84,66.84,0,0,1-11.1-2.53,50.05,50.05,0,0,1-19.3-11.16c-1.13-1.1-1.83-1.44-2.9-2.65.09-.06.51.49.84.77-.69-.93-1.36-2-1.93-2.95a16.9,16.9,0,0,1-1.13-2.63c-.21-.68-.16-1.14.11-1.15s.82.37,1.78,1.27a5,5,0,0,0-.51-1.84c-.29-.85-.67-1.86-1-2.81a4.65,4.65,0,0,0,3.12,1,6,6,0,0,1,3.53,1.51c-.34-1.24.12-1.55.73-1.66s1.38,0,1.82-.39.7-1.23,1.16-1.6a.94.94,0,0,1,.93-.15,4.82,4.82,0,0,1,1.7,1,2.56,2.56,0,0,1,1.8.06,18.45,18.45,0,0,1,2.53,1.18c2,1,4.54,2.44,7.67,3.72a64.1,64.1,0,0,0,10.34,3.19,65.84,65.84,0,0,0,10,1.34c3.37-.22,6.7-.34,10-.85a32.64,32.64,0,0,0,4.94-1.12,21.28,21.28,0,0,0,4.63-2.08c.87-.5.85-.8,1.55-1.29a18.59,18.59,0,0,0,8-9.64,15.44,15.44,0,0,0-.31-10.61,14,14,0,0,1,.68,2.73c.09.43.09.87.15,1.28s.06.85,0,1.28a14.79,14.79,0,0,1-1.21,5.93c-.89,1.87.27-.86.47-1.62a14,14,0,0,0-1.3-10.88,13.1,13.1,0,0,0-4.35-4,63.59,63.59,0,0,0-7.72-3.85c-6.15-2.78-12.4-5.88-18.62-9.3-1.56-.85-3.11-1.73-4.67-2.62s-3-1.75-4.77-2.83c-.85-.54-1.75-1.15-2.67-1.83a25.36,25.36,0,0,1-2.94-2.53,18.7,18.7,0,0,1-4.73-7.63,17.13,17.13,0,0,1-.06-9.58,18.05,18.05,0,0,1,1.59-3.91c.18-.31.34-.63.53-.94l.57-.87c.33-.53.71-1,1-1.45,1.42-1.82,2.82-3.13,3.53-4a32.91,32.91,0,0,1,3.6-2.59l1.57-.91,1.52-.81a50,50,0,0,1,6.28-2.68c.08-.11-.58.06-1.22.28s-1.27.52-1.13.55a32.28,32.28,0,0,1,9.14-2.91c3.77-.74,7.76-1.12,10.85-1.55a61.07,61.07,0,0,0-16.54,2.55,44.66,44.66,0,0,0-9.77,4.24l-1.1.67-1.16.77c-.74.53-1.44,1.06-2.09,1.61a28.93,28.93,0,0,0-3.34,3.27,27.72,27.72,0,0,1,5.3-4.95c.48-.32,1-.69,1.45-1l1.35-.83c.92-.5,1.83-1,2.75-1.43a51.39,51.39,0,0,1,10.88-3.65,99.9,99.9,0,0,1,10.21-1.64l9.74-1c-.15.23,2-.14,1.31.23,3.6-.21,7-.41,10.12-.42l4.65-.07h4.46c4.16,0,8.38-.4,12.29.15,12.59.41,24.07,1,34.91,1.43s21.06.64,31.08.48c-1.08.35-1.84-.19-3.23.17,1.28.09,3,0,4.06.17,2-.42,11.12-.9,12.56-.15-3,.17-5.31,0-8.89.33.72.21,3-.14,3.25.2a27.4,27.4,0,0,1-3.7.29l-4,.05c-.57.06,0,.17.41.17-2.56.18-5.33.07-8.15,0s-5.71-.11-8.57.14c2.33.14,5.9-.15,7.77.2a12.38,12.38,0,0,1-2,.08c-.93,0-2-.06-2.89,0a40.49,40.49,0,0,0,6.14.17c-1.89-.33,1.66,0,3.26-.18-4.08.42-8.81.63-6.1,1.33,5.89,0,6.74-.1,10.64-.3-.74-.16-1.51.06-.83-.34l-2,.11c2.2-.11,3.51-.71,6.48-.94a5.79,5.79,0,0,1-1.62.19c.27.3,1.41.38,2.88.31-.05.29-1.93.24-1.6.58s.87-.12,1.63-.1c.22.3-1.86.19-2,.41a64.66,64.66,0,0,0,6.93-.37,2.23,2.23,0,0,1-1.2.31,22.64,22.64,0,0,0,4.48-.43c-.17.49,2,.12,2.11.51-2.53-.08-3.21.61-4.1.18a13.3,13.3,0,0,1-3.94.75l-2.66.24c-.92,0-1.86.12-2.76.23,1,0,2.14,0,3.36-.08l3.62-.25a5.43,5.43,0,0,1-1.62.34c.17.08,1.62.19,1.22-.11,1.27.09-1.16.45-1.59.62.54,0,1.09-.05.86.41a32.88,32.88,0,0,1-3.73.15,16.48,16.48,0,0,0-4.1.38,14.09,14.09,0,0,1-1.67-.19,20.35,20.35,0,0,1-4.53.45c2.49-.26-1-.2-1.26-.54a9.11,9.11,0,0,1-2.94.29c-1.58,0-3.42,0-4.5.12,1,.08,2.72.1,4.33.08l4-.13a7.1,7.1,0,0,1-1.24.23c1.92,0,4,.07,6,0s4.08-.29,6-.59c.15.33,1.91.12,2.91.15,1.51-.16,1.14-.6,2.84-.73.31.62-.54.81-3.22,1.15,1.53-.07,3.52-.3,5.28-.38s3.27-.11,3.89.43a55,55,0,0,0-11.22.41c1.68.13,5.85-.59,7.06-.32a8.31,8.31,0,0,0-2,.47,7.13,7.13,0,0,0,2.11.2c-.78.32-2.1,0-3.74.24-.63.35,2.71,0,.44.25-.16.17,1.58.18,1.67,0-.11.13-1.56.64-1.17,1-2.24.29-1.21,0-3.74.43,1,.45,3.86-.53,5-.35-.42-.2,1.77-.79-.48-.63,1.05-.54,2.26-.19,3.36,0-.32.31-1.35.06-2.08.18-.49.43.79.74,1.8,1s1.73.53.09.93c-.27.29.88.1,1.29.14-2,.66-4.6.55-7.13,1.05a31.37,31.37,0,0,0,5.48-.49c1.37,0-.37.31-1.24.31.88.63,6.68-.7,8-.74.43.2-3.13.82-3.7,1.24a5.46,5.46,0,0,0-2.14.08c1.56-.41-.5-.07.38-.44-1.63.65-3.1.67-5,1.24,2,.22,4.6-.1,7.3,0a23.6,23.6,0,0,1,5.52-.71C768.7,246.06,766.06,246.58,767.47,246.69ZM623.8,255.28a6.63,6.63,0,0,1-1.48,1c-.54.31-1,.63-1.06.87.21-.15.41-.32.63-.46a7.7,7.7,0,0,1,.74-.46,19,19,0,0,1,1.85-1,28.35,28.35,0,0,1,4.29-1.56,61.61,61.61,0,0,1,10.4-1.78c1.87-.2,3.83-.32,5.73-.46s3.78-.33,5.64-.41l10.52-.64c-1.63,0-4.31.18-5.26,0a7.76,7.76,0,0,0,1.2-.25c-1.31.1-3.06.2-5,.28l-3.16.15-3.36.25c-2.28.16-4.65.32-6.75.59a47.89,47.89,0,0,0-5.53,1c.42-.09,1-.16,1.05-.29a48.26,48.26,0,0,0-6.59,1.42C625.42,254.18,623.84,255,623.8,255.28ZM759.39,243.8l-.06-.58c-6.61.51-15.18.79-22.21,1.28,3.21-.08,6-.08,8.55-.19s4.82-.16,7-.21c-.32.17.74.08-.82.35C755.33,244.31,756.18,243.87,759.39,243.8Zm-10.81-4.48c-1.22.05-3,0-4.75.07a36.11,36.11,0,0,0-5.15.25c1.41,0,5.49-.27,3.31.09A36.19,36.19,0,0,0,748.58,239.32ZM640.23,325c1-.27.42,0,.46.24a22,22,0,0,0,6.28-2.94A27,27,0,0,0,640.23,325Zm15.16-14.26c-.1,0-.26.22-.41.59s-.36.84-.58,1.31c-.37.94-.85,1.95-.66,2.06A11.18,11.18,0,0,0,655.39,310.73Zm-50.32-58.5c.07.08-.32.79-.39.56-.35,1.08-.86,2.37-1.24,3.82a12.48,12.48,0,0,0-.37,4.51c0-.69,0-.46,0,0a3.24,3.24,0,0,0,.27,1.29,7,7,0,0,0,.48,2.34l.3.8c.34.79.47,1,.4.82s-.31-.78-.58-1.65a17.41,17.41,0,0,1-.61-3.35,16.54,16.54,0,0,1,.24-4,20.81,20.81,0,0,1,1.71-5s.34-.41.31-.58C604.7,253.61,606.19,250.17,605.07,252.23Zm23.33-15c2.45-.55.61-.26-1.12.13s-3.31.83-.26.08a43,43,0,0,0-11.71,4.49l-1.49.91c-.51.34-1,.7-1.52,1.07a25.8,25.8,0,0,0-2.7,2.32,22.78,22.78,0,0,0-3.79,4.91,23.9,23.9,0,0,1,4.94-5.81,27.47,27.47,0,0,1,2.88-2.17c1-.6,1.89-1.15,2.86-1.65A50.89,50.89,0,0,1,628.4,237.21Zm-9.83,2.41c-2.3.87-2.52,1.27-4.62,2.18l-.65.41-.68.49c-.46.31-.89.65-1.32,1a29.32,29.32,0,0,0-2.41,2.17,30.85,30.85,0,0,0-2.13,2.43c-.34.43-.65.89-1,1.33s-.59.93-.94,1.5a16.78,16.78,0,0,0,1.36,19.78,21.1,21.1,0,0,0,2.3,2.41c.71.65,1.39,1.19,2.07,1.71,1.37,1,2.67,1.85,3.89,2.61l3.52,2.13c4.71,2.8,9.54,5.5,14.83,8.11l-13.91-8.07-3.67-2.18c-1.23-.74-2.61-1.58-4-2.59-.71-.51-1.44-1.06-2.17-1.69-.35-.29-.8-.71-1.21-1.11s-.81-.84-1.19-1.28a19,19,0,0,1-2-2.84,17.66,17.66,0,0,1-1.4-3.18,16.33,16.33,0,0,1-.13-9.09,20.14,20.14,0,0,1,1.72-4.29c.18-.35.39-.68.59-1s.36-.6.55-.86c.39-.54.77-1.1,1.19-1.59a26.56,26.56,0,0,1,5.52-5.15l.78-.53.72-.45c.48-.29,1-.59,1.46-.85C616.59,240.56,617.58,240.08,618.57,239.62ZM604.6,269a15.42,15.42,0,0,1-1.81-4c-.28-1.12-.53-2.06-.64-2.47.08.71.33,1.59.54,2.5A11.29,11.29,0,0,0,604.6,269Zm44.13-36.26c.71.33,3.11.17,4.72,0C651.86,232.74,650.89,232.59,648.73,232.75ZM621,261.8c.79.37,1.67.88,2.7,1.5l3,1.88c1.4,1-3.11-1.71-.79-.23a28.5,28.5,0,0,1-2.53-1.49C622.36,262.82,621.5,262.2,621,261.8Zm132.19-11c1,.13.64.17,1.34.47-.82,0-2,.06-3,0,.67-.17,1.49-.32,1.69-.59C753.64,250.71,753.39,250.81,753.15,250.83Z" transform="translate(-71.52 -182.28)"/><path class="cls-3" d="M677.22,311.41a10.29,10.29,0,0,0,.15,2.24A4.76,4.76,0,0,0,677.22,311.41Zm-.64-38.49c.38.17.12,1.18.21,1.74C676.41,274.49,676.66,273.48,676.58,272.92Zm.58,28c-.23-.25-.09-1.07,0-1.37C677.4,299.87,677.16,300.57,677.16,300.94Zm1.07,27.76a1.41,1.41,0,0,1,0-1.12C678.16,328.16,678.35,328.33,678.23,328.7Zm-.29-8.71c.22.08.06.69.13,1,.12,0,.08-.23.09-.38.21,0,.06.61.12.87a.93.93,0,0,1-.2-.37c-.21.39,0,1.29,0,1.87A10.23,10.23,0,0,1,677.94,320Zm.22-17.57c-.23-.17-.06-.87-.13-1.25C678.26,301.34,678.09,302,678.16,302.42Zm1.5,40.43c.06-.4.35-.52.34-1C680.32,342,680.12,342.89,679.66,342.85Zm15.9-43.28c-.23-.25-.06-1-.13-1.48C695.66,298.34,695.49,299.11,695.56,299.57Zm2,31.41c.22.12-.11.57,0,1C697.24,331.77,697.42,331.3,697.52,331Zm.7-17.17c.23.29.06,1.11.14,1.6C698,315.3,698.11,314.12,698.22,313.81Zm-.22-4.43c.35.21.24,1,.33,1.59C698,310.77,698.22,309.77,698,309.38Zm-15.84,35.73c0-.31.11-.67-.23-1a6.63,6.63,0,0,0,.3-2.13c0-.1-.11-.12-.11-.24-.2.08-.68-.17-.57.27-.55-.37-.09-1.27.24-1.25.05-.39-.12-.45-.13-.74-.36.53-.7.77-.52,1.51a2.11,2.11,0,0,0-1,.17c-.07-.69-.26-.67-.72-1a3.34,3.34,0,0,0,.15-1c0-.16-.17-.19-.2-.37-.31-.08-.18.35-.48.27.26-6.16-.34-12.41-.29-18.8-.8-1.61-.12-2.45-.32-4.35-.34.23-.05,1.22-.24,1.63-.33-4.61-.12-9.53-.64-13.19a28.23,28.23,0,0,0,.24-6.49c0-.43-.26,0-.29-.24a25.32,25.32,0,0,0,0-2.87c.64.17.59,1.26.62,2.23.06-1,.25-3.06-.06-3.11,0-2.26-.19-4-.2-6.47-.17-.27-.15-.82-.49-.86a7.76,7.76,0,0,0-.23-2.49c-.21.17,0,.86-.08,1.24-.39-.72-.31-2.69.25-3a36.28,36.28,0,0,0-.35-6.47c1-1.84.2-4.15.34-6.61-.21,1.62-.28-.9-.29-1.12-.13-1.35-.35-2.73-.5-4-.28-2.35,0-4.26-.1-5.86a50,50,0,0,1,.52-11.21c0-.35-.17-.52-.19-.87.1,0,.08.15.1.25.54-1,1.65-2.31,2.61-1.1.49-.11.81-.65,1.26-1.11,1.32.77,3,.41,4.14,1.52,1-.65,2.16,0,3.27,0s2.67-.64,3.38.64c3.9.46,2.34,7.75,2.07,11.5.6,2.21-.3,4.53-.08,7,0,.37.25.42.29.74-.28,3.53.24,6.67.24,9.76A45.32,45.32,0,0,0,694,271c.06-.91.14.4.1.74.33,6.94.59,15.79.89,24.68,0,.93-.26,2.11.15,2.59a15.69,15.69,0,0,0,.07,3.45c.16.06.14-.67,0-.61.65,1,.16,3.64.51,5.42.62-2-.09-6.86.09-9.14.34,4.06.21,7.59.74,11.34-.24-.05.06.56-.28.37.16,2.08.09,3.85.15,5.55,0,1.21.56,2.42.1,3.58,0,7.38.22,13.63-.26,19.76-.31-.32.28-.57,0-1a7.23,7.23,0,0,1-.33,1.24c.41.58.22,3.41-.71,3.87a14.07,14.07,0,0,0,.37-2.74c-.24.23-.08.92-.44,1a8.58,8.58,0,0,1,.09-2.35c0-.18-.17,0-.18.13-.08-1.57.62-3.37.09-5.07-.13.71.22,1.77-.2,2.35-.15-.18.05-.95-.06-1.48a5.32,5.32,0,0,0-.22,1.86c.37-.58,0,.5.14,1-.35-1.23-.5-2.65-1.23-1.81a32.17,32.17,0,0,0,0,3.22c.19-.23,0-.46.38-.27l0-.61c0,.66.56,1,.66,1.95-.13,0-.09-.31-.12-.49-.32.09-.42.43-.44.88-.27,0-.15-.58-.5-.47s.1.26,0,.49c-.3.07-.1-.56-.32-.6a10.24,10.24,0,0,0-.1,2.1.34.34,0,0,1-.21-.36c-.25.31,0,1,.06,1.36-.48,0-.35.61-.75.65.37-.77-.25-1,.24-1.25-.67-.49-.33-1.73-.6-2.82a15.65,15.65,0,0,0-.11,2.11.61.61,0,0,1-.21-.49c-.1.06-.32.5,0,.37-.2.39-.37-.34-.51-.47,0,.17,0,.33-.47.27-.12-.56.45-1.66-.1-2.35a2.46,2.46,0,0,1,.27-.51c-.13-.43-.42-.63-.34-1.35.22.74.21-.29.56-.39-.34,0-.19-1.58-.37-2.22a11.39,11.39,0,0,0,0,2.48.86.86,0,0,1-.21-.36,7.75,7.75,0,0,0,.24,3.58c-.32.05-.24.58-.35.88.05.46.51.34.52.85-.65.1-.77-.15-.91-1-.09.93.32,2.39-.85,2.77a4.36,4.36,0,0,0,.54-3.37c-.24.51.15,1.75-.2,2.11,0-.36-.21-.34-.32-.6-.31.31-.14.12-.36.63-.25-.23.19-.63,0-1.12-.3-.18-.16.82-.28.14-.16-.05-.31.48-.08.5-.13,0-.52-.46-.88-.33a8.75,8.75,0,0,0-.14-1.12c-.53.31.23,1.15,0,1.5.23-.13.66.51.67-.16.46.31,0,.68-.25,1-.28-.1,0-.41,0-.62-.78-.28-1.64,1.55-2.1.58-.26-.07-.18.27-.27.39-.44-.6-.18-1.36-.48-2.1a2.79,2.79,0,0,0,.07,1.62c-.09.4-.28-.11-.21-.37-.63.27,0,2-.09,2.37-.25.13-.47-.92-.82-1.08.1-.16.27-.24.17-.63.23.45.12-.15.39.1-.49-.47-.43-.9-.84-1.45-.39.59-.21,1.35-.68,2.14a2.07,2.07,0,0,1,.07,1.62C682.65,345.46,682.43,344.69,682.16,345.11Zm-4-44.06c-.29-.21.06-1.28-.23-1.49,0,4.6-.41,10.05.34,14.06,0-.5-.16-1.32.06-1.62a.93.93,0,0,0,.2.37c-.22-1.61,0-5.41-.38-7.59,0,.15,0,.36.1.38C678.24,304,678.54,301.17,678.13,301.05Zm7.79,41.66.58,0a27,27,0,0,0-.27-6.57,40.31,40.31,0,0,1-.1,4.6c-.15-.09-.12.22-.3-.24C685.73,341.51,686.09,341.75,685.92,342.71Zm5.17-3.32c0-.73.36-2.1,0-3,0,.42.17,1.64-.15,1A4.16,4.16,0,0,0,691.09,339.39ZM693,263.67c-.08.36-.14.14-.39.13a12.45,12.45,0,0,0-.18,2.47A2.22,2.22,0,0,0,693,263.67Zm-.16,8.15c.43,0,.44-1.72,0-1.73C692.68,270.74,692.89,271,692.87,271.82Zm.81,25.32c-.11,0-.08-.16.09-.13-.34-.41,0-1-.22-1.6-.12.26,0-.18-.2-.24.13-.16,0-.26,0-.62-.19-1-.07,2.35,0,2.59-.06,0-.11.1,0,.13C693.35,296.88,693.67,297.57,693.68,297.14Zm.24,6.79c.13,1.34.12-2,.08-.38a36.52,36.52,0,0,0-.42-6.16C693.78,299.67,693.69,301.7,693.92,303.93Zm.61-2.61c.17-.6-.1-.69.17-1.24-.82-5.68-.22-9.89-.35-15.06C693.35,289.83,694.2,296,694.53,301.32Zm0-7.41c.07.37-.1,1.07.12,1.23C694.53,294.77,694.71,294.08,694.48,293.91Zm1.7,15.76c-.36.21-.28.9-.16,1.37A4.3,4.3,0,0,0,696.18,309.67Zm-18.7-17.33a4.89,4.89,0,0,1-.13-2.24c.12-.52.11,1.1.2.25A10.79,10.79,0,0,1,677.48,292.34Zm1.9,48.65c-.19.28-.21.19-.56.4a5.52,5.52,0,0,0,.16-.88c.14.19.26.42.5.48C679.47,341.13,679.39,341.06,679.38,341Z" transform="translate(-71.52 -182.28)"/></g><g id="Layer_1" data-name="Layer 1"><text class="cls-4" transform="translate(0 158.96)">P<tspan class="cls-5" x="69.13" y="0">es</tspan><tspan class="cls-6" x="188.96" y="0">k</tspan><tspan class="cls-7" x="257.51" y="0">y</tspan></text></g></svg>