<svg id="Layer_1" data-name="Layer 1" xmlns="http://www.w3.org/2000/svg" viewBox="0 0 1415.27 383.17"><defs><style>.cls-1,.cls-2{fill:none;stroke-miterlimit:10;}.cls-1{stroke:#00a29b;}.cls-2{stroke:#b2d4d2;}.cls-3{fill:#00a29b;}.cls-4,.cls-5,.cls-6{isolation:isolate;font-size:350px;fill:#fff;font-family:MyriadPro-BoldIt, Myriad Pro;font-weight:700;font-style:italic;}.cls-4{letter-spacing:-0.08em;}.cls-5{letter-spacing:-0.04em;}.cls-6{letter-spacing:-0.03em;}</style></defs><title>pesky-mobile-logo</title><g id="Artist"><path class="cls-1" d="M739.53,128.06" transform="translate(0 -140.36)"/><path class="cls-2" d="M735,335.22" transform="translate(0 -140.36)"/><path class="cls-2" d="M805.77,137.15" transform="translate(0 -140.36)"/><path class="cls-2" d="M715.51,306.63" transform="translate(0 -140.36)"/><path class="cls-3" d="M780.63,292.06c-.59-1.89-.92-4.68-1.62-5.87A19.27,19.27,0,0,0,780.63,292.06ZM809.78,394c-.82-.2-1.28-2.93-1.91-4.33C808.68,389.86,809.11,392.64,809.78,394Zm-22.31-73.53c.57.59.86,2.86.95,3.68C787.75,323.43,787.72,321.45,787.47,320.44Zm-16.28-75.31a7.11,7.11,0,0,1,.7,3.45C771.64,246.77,771.19,246.31,771.19,245.13Zm4,25.24c-.43-.19-.34-1.82-.56-2.62-.19.09-.06.63,0,1-.41-.09-.3-1.63-.5-2.32a3.87,3.87,0,0,1,.49,1c.25-1.07-.43-3.5-.55-5.17a43.63,43.63,0,0,1,1.13,8.11Zm9.53,46.48c.51.36.67,2.32,1,3.31C785.26,319.8,785.1,317.84,784.72,316.85ZM759.45,206.06c.15,1.11-.31,1.55,0,2.88C758.78,208.53,758.59,206.16,759.45,206.06Zm-3.7,125.45c.57.6.8,2.82,1.24,4.05C756.42,335,756.18,332.74,755.75,331.51Zm-20.43-86.65c-.46-.23-.15-1.53-.67-2.58C735.32,242.68,735.32,244,735.32,244.86Zm6.37,48c-.59-.77-.81-3.28-1.24-4.78.64.25,1.21,3.84,1.21,4.78ZM745,305.37c-.76-.45-1.1-2.78-1.62-4.3.73.46,1,3.29,1.59,4.3Zm8.58-104.51c.3.83.24,1.86,1.06,2.61a26.28,26.28,0,0,0,.86,5.92c.1.26.26.29.35.63.29-.3,1.32.23.83-1,1.23.81,1,3.44.4,3.51.15,1.07.5,1.19.71,2,.29-1.59.75-2.37-.07-4.32a2.61,2.61,0,0,0,1.77-.83c.58,1.85.9,1.72,1.91,2.38a17.34,17.34,0,0,0,.38,2.79c.18.43.44.45.61.92.59.11.08-1,.67-.9.87,4.23,1.87,8.49,2.94,12.68s2.21,8.59,3.31,13.19c.54,2.3,1.07,4.65,1.56,7.07s.9,4.85,1.27,7.2c.73,4.72,1.26,9.23,1.76,13.52,2,4.15,1,6.39,2.2,11,.5-.67-.43-3-.23-4.08,1.12,5.56,2.53,11.59,4.06,17.73s3,12,4.7,16.85a109.28,109.28,0,0,0,3.74,17.63c.36,1.15.45-.15.69.53.94,4,.79,4.11,1.86,7.71-1.24-.16-1.89-3.11-2.61-5.73.57,2.71,1.64,8.35,2.23,8.34,1.65,6,3.11,10.56,5,17.16.5.64.86,2.09,1.5,2.05a31.94,31.94,0,0,0,2.29,6.45c.25-.57-.62-2.3-.81-3.32,1.23,1.72,2.61,6.91,1.87,8,1.83,6,3.74,12.23,5.94,16.64-.1,5.3,3.31,10.79,5.41,17.07-1.19-4.21,1.33,2.11,1.57,2.64a75.65,75.65,0,0,0,4.55,8.64c1.24,2,2.35,3.91,3.37,5.6,1.21,2,2.58,4.09,4.11,6.23a62.11,62.11,0,0,1,5.51,9.38,63.06,63.06,0,0,1,3.79,10.31,65.54,65.54,0,0,1,2.24,19.9c.06,1.32.37,1.94.36,3.27-.17,0-.12-.58-.16-.94a13.69,13.69,0,0,1-2.28,5.07c-1,1-1.84,1-2.59-1.15-.89.33-1.62,2.16-2.61,3.66a7.87,7.87,0,0,0-3.68-2.44,6.37,6.37,0,0,1-3.44-3c-1.86,1.86-3.93-.22-6-.25-1.13,0-2.37.34-3.45.3a2.78,2.78,0,0,1-2.64-2.06c-3.56-.62-4.54-4.83-5.79-9.8-.62-2.49-1.28-5.21-2.13-7.76-.43-1.27-.87-2.5-1.37-3.63A32.65,32.65,0,0,0,799.5,443a39.66,39.66,0,0,1-5.42-8c-.9-1.63-1.85-3.49-2.71-5.32s-1.71-3.66-2.6-5.44c-.47-1.06-1-1-1.4-1.92-1-2.58-1.83-4.93-2.7-7.19s-1.79-4.46-2.66-6.63-1.73-4.3-2.58-6.4-1.6-4.22-2.33-6.33c.71,2.7,1.34,4.66,2,6.71s1.52,4.17,2.56,7.22c.82,2.54-.64-1-.9-2-3.72-9.36-7.56-20.14-11.27-31.64s-7.28-23.74-10.66-36c-.72-2.57-1-6-2.06-7.11a75,75,0,0,0-2.46-9.54c-.32-.08.2,1.93.43,1.7-1.84-2.56-2.71-10-4.47-14.79.21,5.86,4.65,18.93,5.94,25.33-3.42-11.11-5.48-20.94-8.84-31.09.44,0-.48-1.53.25-1.15-1.61-5.63-2.69-10.75-3.79-15.85-.78-3.59-2.34-7.33-2-10.85-.75-5.49-1.3-10.49-1.92-15.06s-1.26-8.58-2.12-12.78-1.83-8.4-2.78-12.72-1.83-8.59-2.63-12.85c.77.78-.12,1.67.72,2.7a30.24,30.24,0,0,1-.22-3.56c-1.12-1.44-2.63-9.3-1.27-10.87.4,2.58.34,4.64,1.13,7.66.29-.71-.46-2.57.13-2.93a37.21,37.21,0,0,1,1.37,6.5c.19.46.31,0,.25-.42,1.17,4.27,1.11,9.47,3.19,14-.23-2-1.56-4.8-1.2-6.55.38.45.53,2.63,1.08,4a21.9,21.9,0,0,0-.85-5.2c-.27,1.74-.38-1.36-.89-2.65,1.44,3.25,2.65,7.1,3.39,4.52-1-4.93-1.38-5.58-2.18-8.82-.18.69.29,1.26-.49.85l.45,1.69c-.47-1.83-1.69-2.69-2.46-5.13.26,0,.36.81.53,1.31.51-.37.47-1.36.21-2.59.5-.07.64,1.54,1.21,1.12s-.35-.68-.36-1.35c.49-.31.54,1.51,1,1.55a42.49,42.49,0,0,0-1.24-5.78c.25.09.47.34.61.92.24-.94-.71-2.69-1-3.71.88,0,.22-1.79.91-2-.12,2.21,1.12,2.54.48,3.44,1.52,1.11,1.72,4.65,2.92,7.54-.14-1.65-.82-3.91-1.19-5.83a2.4,2.4,0,0,1,.7,1.26c.14-.18.24-1.47-.27-1,.09-1.13.88.82,1.2,1.12,0-.47-.15-.91.67-.9.59,1.48.28,4.72,1.71,6.41a6.78,6.78,0,0,1-.14,1.49c.51,1.14,1.17,1.57,1.5,3.58-.88-2-.19.88-.75,1.28.62-.1,1.38,4.27,2.13,5.94a51.59,51.59,0,0,0-1.63-6.79,3.51,3.51,0,0,1,.61.92,34.24,34.24,0,0,0-2.79-9.75c.54-.25,0-1.67,0-2.54-.39-1.22-1.13-.74-1.48-2.14,1.09-.51,1.47.14,2.25,2.3-.44-2.55-2.18-6.4-.34-7.89-.61,2.55,0,5.75,1.25,9.43.09-1.47-1.43-4.75-1-5.88.21,1,.59.87,1,1.56.34-1,.17-.4.23-1.87.6.54.07,1.79.64,3.08.65.4-.24-2.28.42-.47.31.07.23-1.41-.2-1.4.25,0,1.24,1.07,1.8.61a31,31,0,0,0,1,3c.74-1-1.16-3-.91-4.1-.33.44-1.51-1.18-1.1.66-1-.68-.46-1.84-.21-2.84.57.16.19,1.12.45,1.69,1.57.49,1.92-4.83,3.37-2.35.51.11.14-.78.23-1.15,1.17,1.49,1.21,3.65,2.21,5.56a11.73,11.73,0,0,0-1.17-4.38c-.1-1.14.57.19.61.92,1-1-1.31-5.38-1.37-6.51.36-.43,1.43,2.35,2.16,2.68a2.17,2.17,0,0,0,.12,1.78c-.72-1.17-.12.45-.77-.16,1.18,1.13,1.34,2.33,2.43,3.69.31-1.76-.5-3.77-.17-6.1a8.75,8.75,0,0,1-1.18-4.39c.57-.14,1.5,1.88,1.68.66Zm32.18,119.73c.65.45.73,3.49,1.39,3.94-1.56-6.21-3-13.06-4.55-19.7a172.17,172.17,0,0,0-5-18.25c.19,1.33,1.06,3.42.87,4.31a3.16,3.16,0,0,0-.59-.91c.68,2.09,1.55,5.81,2.49,9.68s2,7.93,3,10.8c-.12-.39-.21-1-.42-1,.65,3.14,2,11,2.78,11.13ZM748.32,208.7l-1,.27c1.14,5.4,2.61,12.4,4.78,17.89-1.28-5.19-2.25-9.07-2.83-12.63.32.2.07-.65.69.54C749.48,211.91,748.67,211.36,748.32,208.7Zm-7,10.93c.46,2,.74,5.87,2,8.14-.25-1.16-1.39-4.43-.38-2.79A18.69,18.69,0,0,0,741.32,219.63ZM792,429.51c-.42-1.13,0-.53.43-.69-1-2.36-1.73-4.53-3-7.24a7.44,7.44,0,0,0,.19,3.57,9.88,9.88,0,0,0,2.35,4.36Zm-9.08-22.81c-.74.31,1,5,1.74,4.68-.39-1.85-1-2.51-1.77-4.68Zm-22.1-69.19a.22.22,0,0,1,.13.26.2.2,0,0,1-.2.13c.89,1,.69,2.89,1.51,4.33,0-.78,0,.51.52.59-.11.5.15.72.46,1.7,1,2.68-1.54-6.53-1.91-7.14.1,0,.12-.33-.09-.34.3,1-.75-.74-.45.47Zm-5-18.67c-1.13-3.65,1.11,5.63.09,1.07a151.57,151.57,0,0,0,4.9,16.88c-1.94-6.23-3.15-11.88-5-18Zm.63,7.45c.11,1.73.64,1.87.54,3.49,5.33,15.4,7.29,27.3,11.67,41.52-2.18-13.72-8.07-30.3-12.24-45Zm5.22,20.49c-.39-1-.58-3-1.09-3.37.35,1,.55,3,1.06,3.37ZM748,303.83c.5-.71-.08-2.59-.6-3.83a17.63,17.63,0,0,0,.57,3.83Zm44.77,39.84c1.09,1.83,1.38,4,1.83,5.9.16,1.46-1-2.88-.52-.56a40.49,40.49,0,0,1-1.34-5.34ZM761.14,211.06c.17-.82.27-.59.75-1.28a22.14,22.14,0,0,0,.29,2.45c-.39-.46-.74-1.06-1.21-1.12C760.88,210.72,761.09,210.88,761.14,211.06Z" transform="translate(0 -140.36)"/><path class="cls-3" d="M686.75,396.06c-.17,1.7-.91,4.11-.72,5.36A15.21,15.21,0,0,0,686.75,396.06Zm11.55-95c.65.49,0,2.92,0,4.32-.66-.54,0-3,0-4.37Zm-7.58,69.45c-.32-.7.23-2.71.45-3.43.36.77-.32,2.44-.45,3.38ZM678.24,435.6a3.81,3.81,0,0,1,.82-2.4c-.52,1.16-.32,1.64-.82,2.35Zm5.51-19.24c.33.31-.3,1.61-.36,2.32.21,0,.26-.49.37-.82.35.22-.25,1.43-.31,2a2.65,2.65,0,0,1-.13-.93c-.6.75-.8,2.87-1.24,4.16a35.17,35.17,0,0,1,1.67-6.78ZM692,374.47c-.34-.49.22-2.17.24-3.13.34.43-.22,2.12-.24,3.08Zm-26.32,90.09c.62-.66,1.21-.56,1.81-1.5C667.67,463.79,666.32,465.13,665.64,464.56Zm58.61-92.22c-.32-.69.27-2.61.32-3.78C724.88,369.22,724.32,371.22,724.25,372.34ZM708.17,455c.22.48-.83,1.4-1.07,2.59C706.8,456.81,707.64,455.73,708.17,455ZM723,409.89c.26.85-.46,2.94-.62,4.29C721.84,413.75,722.64,410.66,723,409.89Zm1.77-11.7c.53.66,0,2.79-.14,4.28-.53-.67.34-3.19.14-4.25Zm-58.56,73.29c.36-.63,1.09-1.1,1-2.08a16.35,16.35,0,0,0,3.31-3.68c.1-.22,0-.34.17-.58-.4-.05-.78-1.05-1.2-.09-.33-1.27,1.5-2.5,2-2.15.56-.68.39-1,.74-1.57-1.21.69-2,.78-2.69,2.38a3.44,3.44,0,0,0-1.78-.79c.76-1.36.45-1.52.14-2.54a9.66,9.66,0,0,0,1.44-1.74c.13-.35-.05-.53.12-.9-.37-.44-.68.49-1,0,7.73-11.36,12-24.8,15.9-39.23-.45-4,1.21-5.64,1.84-10.14-.7.39-.71,2.81-1.28,3.65,2-10.7,4.27-22.46,4.7-31.67a92.31,92.31,0,0,0,2.83-16c.09-1.09-.47,0-.44-.69.57-3.67.78-3.73,1.11-7.12,1.09.57.6,3.28.31,5.72.48-2.47,1.55-7.56,1-7.76.72-5.64,1-9.94,1.83-16.12-.23-.73,0-2.06-.62-2.26a26.34,26.34,0,0,0,.37-6.21c-.45.38-.31,2.14-.53,3.06-.49-1.88.26-6.71,1.36-7.33.61-5.63,1.38-11.55,1.1-16,2.23-4.34,1.32-10.18,2-16.16-.68,3.93-.33-2.25-.33-2.84,0-3.45-.11-7.18,0-10.74.17-6.71,1.8-12.56,2.93-17.67.37-1.59.79-3.19,1.3-4.79s1.13-3.31,1.82-4.91a54,54,0,0,1,5-9.21,52.77,52.77,0,0,1,6.71-8.06,50.33,50.33,0,0,1,8.1-6.36c1.17-.85,1.56-1.49,2.83-2.27.08.15-.48.44-.81.69a24.12,24.12,0,0,1,3.24-.85,10.51,10.51,0,0,1,2.8-.1c.74.11,1.23.4,1.3.85s-.27,1.1-1.1,2a3.39,3.39,0,0,0,2,.36h2.79A7.18,7.18,0,0,0,738,234a7,7,0,0,1-.82,4.45,2.68,2.68,0,0,1,2,2.23,13,13,0,0,0,.9,3c.55,1,1.45,1.89,2,2.86a2.94,2.94,0,0,1,0,3.1,5.29,5.29,0,0,1,.54,2.31,5.83,5.83,0,0,1-.42,2.11,20.64,20.64,0,0,1-2.71,4.36,63.92,63.92,0,0,0-3.71,5.41,34.29,34.29,0,0,0-2.91,5.81,36.6,36.6,0,0,1-1.39,7.12,38.23,38.23,0,0,0-1.33,8.29c-.08.87.37,1,.37,1.82-.6,4.23-.76,8.56-.93,12.75s-.29,8.22-.67,12.19c.87-4.92.88-7.31,1.44-13,.3-2.37.17,1.06,0,1.93-.84,18-3.15,40.78-5.89,63.36-.28,2.37-1.25,5.27-.68,6.59a57.58,57.58,0,0,0-1.16,8.76c.27.17.51-1.67.21-1.57.79,2.75-1.09,9.3-1.2,14,1-2.52,1.62-6.92,2.14-11.37s.94-9,1.51-11.82c-.88,10.34-2.4,19.24-3.11,29.14-.4-.19-.13,1.48-.67.88-.63,5.42-1.65,10-2.49,14.52-.6,3.16-.42,6.61-2,9.44a195.67,195.67,0,0,1-8.53,27.19,120.15,120.15,0,0,1-12.32,23.33c0-1.08,1.25-1.09,1.36-2.41a25.45,25.45,0,0,1-2.31,2.66,13.52,13.52,0,0,1-2.76,4.79c-1.46,1.79-3.19,3.37-4.22,3.35,1.64-1.94,3.19-3.24,4.8-5.85-.7.28-1.52,2.06-2.19,1.86a46.42,46.42,0,0,1,3.65-5.36c.19-.45-.25-.18-.47.12,2.14-3.73,5.66-7.45,6.92-12.16-1.07,1.64-1.89,4.57-3.32,5.59,0-.58,1.33-2.26,1.83-3.66a23.67,23.67,0,0,0-2.77,4.32c1.35-1.06-.62,1.24-1.13,2.48,1.16-3.26,2.73-6.83.49-5.46-2.46,4.14-2.65,4.82-4.3,7.57.61-.34.66-1,1-.23l.82-1.47c-.91,1.57-.62,3-1.81,5.2-.14-.21.32-.8.55-1.25-.62-.12-1.27.57-2,1.57-.39-.31.64-1.48,0-1.61s-.22.71-.7,1.15c-.55-.15.69-1.38.42-1.7a55.23,55.23,0,0,0-3.3,4.61c-.1-.24-.07-.55.25-1-.83.43-1.45,2.22-2,3.05-.61-.63-1.45.94-2.09.57,1.74-1.25,1.16-2.38,2.28-2.43-.22-1.8,2.15-4.15,3.27-6.88-1,1.17-2.12,3.1-3.22,4.56a2,2,0,0,1,.41-1.29c-.23,0-1.2.73-.53.82-.86.63,0-1.14,0-1.56-.3.32-.54.68-1.09.07.61-1.32,3.07-3.15,3.17-5.24a8.24,8.24,0,0,1,1.09-.86c.39-1.09.2-1.82,1.25-3.37-.61,1.88.72-.46,1.39-.37-.52-.33,1.7-3.8,2.14-5.46a62.72,62.72,0,0,0-3.07,5.71,2.86,2.86,0,0,1,.15-1,36,36,0,0,0-4.44,8.24c-.55-.22-1.19,1-1.78,1.55-.58,1,.26,1.26-.48,2.37-1.1-.47-.9-1.14,0-3-1.44,1.89-3,5.42-5.31,4.89,2.21-1,4.09-3.36,5.7-6.52-1,.85-2.27,3.92-3.34,4.28.55-.73.21-.93.43-1.61-.91.33-.4.11-1.46.94,0-.76,1.2-1.11,1.69-2.29-.18-.7-1.4,1.52-.61,0-.17-.27-1.13.66-.82,1-.15-.21-.12-1.52-.83-1.64a20.13,20.13,0,0,0,1.34-2.46c-1.19.08-1.24,2.62-2.13,3.05.52,0,.21,1.77,1.2.4.23,1.13-1,1.41-1.81,1.8-.28-.51.63-.78.85-1.3-.73-1.39-4.61,1.33-3.89-1.1-.28-.43-.63.33-.94.46.22-1.65,1.64-2.88,2.2-4.67a9.2,9.2,0,0,0-2.11,3.28c-.7.69-.26-.52.2-1-1.27-.14-2.74,3.85-3.5,4.49-.53,0,.67-2.28.39-3a1.63,1.63,0,0,0,1.12-1c-.31,1.14.38-.16.41.64,0-1.46.65-2.23.77-3.74-1.36.74-2.14,2.4-3.91,3.38a5.91,5.91,0,0,1-2.2,3.08C666.37,472.69,667.15,471.06,666.19,471.48ZM692.41,371c-.44-.61.59-3.18.15-3.79-.82,5.77-1.93,12-2.9,17.94a161.76,161.76,0,0,0-2.08,16.54c.33-1.17.31-3.2.83-3.84a2.58,2.58,0,0,0,.19,1c.37-3.9,2.28-13,2.4-18.54,0,.37-.15.87,0,.95C691.51,378.42,693.1,371.43,692.41,371ZM675,471.06l.87.58c2.93-3.83,6.47-9.1,8.17-14a64.4,64.4,0,0,1-6,9.61c-.09-.34-.48.33-.13-.79C676.38,468.48,676.58,469.37,675,471.06Zm12.33-1.55c1-1.6,3.41-4.36,3.93-6.74-.56,1-1.87,3.9-1.53,2.13a17.39,17.39,0,0,0-2.4,4.65ZM730,280.64c-.25.81-.3.29-.73.2a30.6,30.6,0,0,0-.93,5.85,6.63,6.63,0,0,0,1.66-6Zm-2,20.19c.78,0,1.14-4.39.33-4.46-.44,1.64-.12,2.42-.31,4.46Zm-6.28,64.78c-.18,0-.08-.42.22-.29-.46-1.14.42-2.64.18-4.11-.31.63.15-.44-.27-.68.29-.37.13-.64.2-1.56,0-2.58-1,5.94-.85,6.57a.17.17,0,0,0-.12.2.15.15,0,0,0,.12.11c.1-1,.38.86.54-.24Zm-2.1,17.23c-.27,3.45,1-5.09.31-.92a129.66,129.66,0,0,0,1.56-15.74c-.49,5.85-1.4,10.93-1.85,16.66Zm2.1-6.42c.52-1.47.08-1.77.76-3.08.62-14.59,3.22-25.1,4.63-38.33-3.27,12-4,27.78-5.37,41.41Zm2.62-18.75c0,1-.57,2.67-.23,3.15,0-1,.59-2.64.25-3.15Zm-3,40.61c-.72.43-.9,2.23-.89,3.48a14.28,14.28,0,0,0,.85-3.48Zm-27-49.18c-.32-1.92.23-3.85.52-5.59.4-1.28-.17,2.75.27.66a32.74,32.74,0,0,1-.83,4.93ZM667.6,460.85c-.65.31-.56.13-1.34.15a13,13,0,0,0,1.31-1.46c0,.5-.12,1,.17,1.4C667.55,461.22,667.51,461,667.6,460.85Z" transform="translate(0 -140.36)"/><path class="cls-3" d="M764.88,368.06c1.21-.46,3.12-.65,3.87-1.28A8.88,8.88,0,0,0,764.88,368.06ZM696.48,384c.09-.72,1.7-.67,2.51-1C698.88,383.7,697.32,383.63,696.48,384Zm49.7-11.09c-.36.52-1.92.64-2.49.66C744.12,373,745.5,373.06,746.18,372.89Zm48.14-13.61c-.09.32-1.65.68-1.88.44C793.44,359.59,793.65,359.22,794.32,359.28Zm-14.76,3.78c0-.43,1.17-.39,1.65-.62-.09-.19-.42,0-.68,0,0-.41,1-.35,1.44-.57a1.49,1.49,0,0,1-.55.51c.75.22,2.21-.52,3.23-.67A17.35,17.35,0,0,1,779.56,363.06Zm-31.12,7.44c-.2.47-1.55.48-2.21.77C746.44,370.8,747.79,370.79,748.44,370.5Zm69.19-17.08c-.67-.07-.92-.61-1.73-.51C816.18,352.29,817.62,352.57,817.63,353.42ZM735.88,341c-.33.5-1.75.53-2.51.84C733.7,341.32,735.12,341.29,735.88,341ZM792,324.06c.15-.43,1.13,0,1.88-.39C793.57,324.31,792.6,324.13,792,324.06ZM759.8,330c.41-.54,2-.62,2.82-1C762.62,329.64,760.4,330,759.8,330Zm-7.83,2.4c.21-.71,1.74-.9,2.69-1.31C754.45,331.78,752.57,331.82,752,332.38Zm69.12,16.23c-.52.14-1.14-.12-1.64.54a10.49,10.49,0,0,0-3.66-.29c-.17.05-.19.2-.4.23.17.34-.18,1.25.56,1-.53,1-2.14.37-2.18-.22-.66,0-.74.29-1.23.36,1,.55,1.45,1.14,2.66.67a4.22,4.22,0,0,0,.47,1.88c-1.14.25-1.07.59-1.49,1.46a6.46,6.46,0,0,0-1.7-.1c-.26.1-.27.35-.56.44-.07.55.61.25.54.8-10.28.61-20.69,3.81-31.69,6.28-2.43,2.06-4.19,1.24-7.39,2.39.55.5,2.13-.43,2.92-.26-7.83,2.51-16.61,4.41-23,7a40.67,40.67,0,0,0-5.82.88c-2.08.44-4.2,1-6.07,1.59-.79.25.14.45-.33.62a50.64,50.64,0,0,0-5.33,1.18c0-1.21,2.09-1.58,3.88-2-1.88.31-5.76.86-5.74,1.41-2.11.49-4,1-5.86,1.45s-3.92.9-6.29,1.37c-.47.42-1.51.55-1.49,1.18a16.7,16.7,0,0,0-4.6,1.2c.38.34,1.61-.22,2.34-.24-1.26.95-4.86,1.38-5.55.45-4.06.72-8.11,1.29-10.78,2.58-3.3-1.16-6.4,1.1-10.1,2,2.49-.39-1.18.9-1.48,1-1.91.9-3.77,2-5.44,3-3.14,1.82-6,2.57-8.06,3.91-2.56,1.64-5.18,3.13-7.73,4.52s-5,2.66-7.3,3.86c-.42.35-.45.73-.86,1.08-.1-.14.1-.25.2-.37-1.83.15-4.7-.07-4.3-2.65-.69-.58-1.74-.49-2.86-.63-.53-2.66-3-4.66-2.73-7.47-2-.65-2.43-3.09-3.68-4.69-1.39-1.79-4-3-2.83-5.57-1.85-3,.6-6.35,4.52-9.1s9.17-4.89,12.63-6.39c3.48-3,8.42-3.54,13-5.72.69-.27.63-.73,1.21-1,3.42-1,6.57-2.18,9.66-3.24a77.78,77.78,0,0,1,9.13-2.7,33.45,33.45,0,0,0-4.76.76c-1.48.36-3,.78-5.2,1.37-1.83.42.71-.46,1.4-.59,3.35-1.09,7-2.13,10.77-3s7.54-1.64,11.31-2.39,7.43-1.49,11.14-2.35c1.86-.4,3.74-.88,5.63-1.34s3.79-1,5.69-1.46c1.6-.42,3.77-.36,4.42-1.3a26.59,26.59,0,0,0,6-1.6c0-.3-1.25,0-1.08.3,1.5-1.6,6.3-1.88,9.28-3.3-3.89-.14-12,3.17-16,3.8,6.86-2.28,13.1-3.62,19.5-6.25,0,.43,1-.38.79.32,3.61-1.23,6.82-1.92,9.87-2.79,2.14-.62,4.15-2.08,6.44-1.79,6.74-1.64,13-3.18,19.21-4.32,3-.62,6.14-1,9.13-1.48a70.38,70.38,0,0,1,9.05-.77c-.57.63-1.18-.39-1.92.28a15,15,0,0,1,2.5.34,7.53,7.53,0,0,1,3.83-.69c1.65,0,3.31.45,3.8,1.25-1.81-.08-3.25-.51-5.38-.19.48.39,1.81,0,2,.59a18,18,0,0,1-4.57.32c-.32.11,0,.31.29.31-1.51.22-3.15.15-4.82.22a11.86,11.86,0,0,0-4.91,1c1.37,0,3.34-.89,4.55-.3-.32.31-1.83.16-2.82.5a10,10,0,0,0,3.61-.11c-1.2-.51,1-.19,1.85-.51-2.27,1-4.93,1.62-3.14,2.7,3.39-.31,3.82-.6,6.08-.85-.47-.29-.87.08-.57-.62l-1.18.17c1.27-.16,1.9-1.23,3.62-1.6,0,.25-.57.23-.92.32.23.56.91.67,1.77.62,0,.49-1.09.38-.81,1s.47-.24.93-.14c.19.53-1,.29-1.09.69a24.33,24.33,0,0,0,4-.21c-.07.23-.25.39-.66.43.63.4,1.88-.21,2.59-.29,0,.86,1.2.54,1.33,1.26-1.52-.57-1.82.59-2.4-.26-.84,1.26-3.23.88-5.22,1.6a31.45,31.45,0,0,0,4-.22,1.29,1.29,0,0,1-.88.47c.12.17,1,.48.69-.1.75.29-.59.73-.8,1,.31,0,.61,0,.57.81-1,.33-3.17-.49-4.34.64a3.9,3.9,0,0,1-1-.38c-.78.31-1.08.89-2.42.94,1.31-.59-.59-.32-.86-.92.07.63-2.87.75-4,1.26a22.78,22.78,0,0,0,4.57-.65,1.58,1.58,0,0,1-.62.47c2.15-.12,4.6-.22,6.58-1.23.15.57,1.12.32,1.69.45.83-.17.54-1,1.49-1.08.3,1.17-.16,1.39-1.62,1.81,1.71,0,4.37-.92,5.21,1.14-1.63-1-3.8-1.12-6.27-.45a5.07,5.07,0,0,0,2.05-.12,2.74,2.74,0,0,1,1.87.13c-.66,0-.6.41-1.07.65.63.52.26.24,1.22.57-.38.49-1.18-.28-2,.07-.28.57,1.51.16.3.49-.06.28.91.48.92.06,0,.24-.75,1-.47,1.64a13.52,13.52,0,0,0-2,.47c.64.9,2-.65,2.69-.2-.27-.4.84-1.25-.38-1.19.49-.87,1.22-.11,1.85.32-.12.53-.72,0-1.11.13-.38,1.44,3,2.78,1.35,3.73-.09.48.49.28.72.45-1,.87-2.36.46-3.61,1.15a5.06,5.06,0,0,0,2.82-.36c.72.12-.15.52-.61.42.56,1.11,3.44-.26,4.15-.12.25.44-1.55,1-1.79,1.62a1,1,0,0,0-1.11-.23c.76-.47-.27-.2.13-.72-.75.94-1.51.87-2.4,1.69,1.09.62,2.37.22,3.79,1a3.39,3.39,0,0,1,2.76-.32c.11.43-1.21.92-.44,1.36ZM746,371.16c-.26.6-2.37.45-2.62,1,8.43-2.08,18.33-3.83,25-6.94-.89.14-2.25.88-2.87.63a1.85,1.85,0,0,0,.56-.52c-2.74,1.1-9.57,2.46-13.33,4.12.26-.1.65-.15.63-.35-2,.49-7.3,1.24-7.37,2Zm70.5-29.1-.13-1a56.14,56.14,0,0,0-5.8.42,25.49,25.49,0,0,0-5.85,1.35,49.06,49.06,0,0,1,8.2-.77c-.13.27.42.17-.36.58,1.85-.05,2.22-.76,3.94-.56Zm-6.91-8.79c-.68.07-1.68,0-2.7,0A6.58,6.58,0,0,0,804,334c.79-.08,3-.74,1.88,0a8.78,8.78,0,0,0,3.64-.73ZM671.38,361.06c.73-.14.36.13.51.55a35.27,35.27,0,0,0,4.69-1.55A4.59,4.59,0,0,0,671.38,361.06Zm15.5-5.17c-.24-.74-3.57.19-3.32,1C684.88,356.81,685.32,356.31,686.88,355.89Zm45.55-10.59c0,.18-.24.2-.26-.12-.58.77-1.82.38-2.69,1,.51.11-.33,0-.35.45-.33-.16-.45.07-1.07.27-1.66.72,4.13-.82,4.5-1.12,0,.1.22.15.21,0-.66.19.42-.65-.34-.48Zm11.75-3.3c2.3-.83-3.59.67-.69,0a74.24,74.24,0,0,0-10.61,3.35c3.89-1.26,7.47-2,11.28-3.35Zm-4.83.05c-1.12,0-1.16.47-2.23.23a59,59,0,0,1-6.83,2.31c-2.19.63-4.29,1.08-6.37,1.48s-4.14.74-6.22,1.09-4.19.7-6.46,1.14a34.64,34.64,0,0,0,6.75-.4c1.16-.17,2.33-.37,3.51-.61s2.39-.55,3.58-.86c4.8-1.21,9.67-3,14.23-4.38Zm-12.84,3.07c.62-.24,1.88-.21,2.09-.67-.62.27-1.87.22-2.08.67Zm26.8-9.68c.54.53,1.73.09,2.5-.34a7.76,7.76,0,0,0-2.49.34ZM730.12,376c-1.27.88-2.83.9-4.19,1.09-1,0,2-.59.4-.44a26.66,26.66,0,0,1,3.78-.65Zm84.48-21.81c.5.31.36.36.76,1a9.15,9.15,0,0,0-1.48-.13c.29-.3.65-.55.7-1,.23,0,.13.16,0,.18Z" transform="translate(0 -140.36)"/><path class="cls-3" d="M915.32,262.84c.18-1.44.16-3.06.2-4.73a38.24,38.24,0,0,0-.46-5c-.14-.83-.28-1.64-.46-2.41s-.43-1.51-.65-2.2a18.27,18.27,0,0,0-1.47-3.44A43.35,43.35,0,0,1,915.32,262.84Zm-36.09,82.7c-.93.41-4.82-1.45-7.13-2.1.92-.4,4.81,1.45,7.12,2.1Zm6.94-36c-.41,1.1-2.93,3.55-3.85,4.42.48-1.26,2.79-3.18,3.84-4.39ZM834,218.37c.4-.43,5.15-1.29,5.68-1a25.34,25.34,0,0,0-3.24.61,17,17,0,0,1-2.45.42Zm45.41,1.69a5.6,5.6,0,0,1-2.25-.47,28.2,28.2,0,0,0-3-.8c.06.22,1.16.44,1.91.66-.37.32-3.21-.78-4.6-.91a8.37,8.37,0,0,1,2,.09A22.19,22.19,0,0,0,869,217.5l-5.35-.72a31.52,31.52,0,0,1,3.63.29c1.35.16,2.79.43,4.24.75a67.36,67.36,0,0,1,7.88,2.24ZM889,303.55c-.18.82-2.36,2.85-3.34,4.15.17-.79,2.36-2.82,3.33-4.12ZM773.94,252.87a13.46,13.46,0,0,1,2.23-1.66,18,18,0,0,0,2.41-1.78,8.91,8.91,0,0,1-2.35,2.39C775.18,252.62,774.13,253.29,773.94,252.87Zm84.18,37.9c-.39,1.07-2.78,3.28-4,4.79.44-1.06,2.83-3.27,4-4.79Zm-26.63-35.4c-.14.26-.62.38-1.24.52a7.91,7.91,0,0,0-2,.75C828.71,255.84,830.38,255.55,831.49,255.37Zm45.6,4.38c-.34.21-.08,0-.19.05.42-.48.42-.17.19-.05Zm.16.44a1.14,1.14,0,0,0-.38-.23h-.08c.32,0,.35,0,.35.07s0,0,.11.19Zm-108.1,8.39c.16-.5.35-1,.56-1.54l.72-1.58a22.44,22.44,0,0,0,1.3-3.17,62.6,62.6,0,0,1,8.53-9,10,10,0,0,1,.85-1c-.53,0,0-1.63-1.67.07a7.25,7.25,0,0,1,2.84-2.84c1.13-.69,2.15-1,2.28-.72a27.13,27.13,0,0,0,2.6-2.19c-2.3.89-3.47.88-6.22,3.51-.5-.63-.35-.9-1.74-1,2.72-2.38,2.41-2.5,3.15-4.11,1.2-.67,2.43-1.47,3.91-2.47.58-.49.55-.78,1.2-1.3,0-.69-1.48.66-1.45,0a188.3,188.3,0,0,1,18.87-11.31,127.12,127.12,0,0,1,21.27-8.65c15.08-4.52,31.9-5.84,48.44-1.48a32.6,32.6,0,0,1,10.86,3c.81.38,1.63.74,2.46,1.17l2.59,1.37c1.83,1,3.93,2.16,6.46,3.79a13.4,13.4,0,0,0-3.68-2.7c-1.72-1-3.45-1.77-4.37-2.42a56.85,56.85,0,0,1,9,5.05q.57.39,1.17.84l1.36,1q1.38,1.09,2.67,2.31a41.28,41.28,0,0,1,4.66,5.23,34.39,34.39,0,0,1,5.84,12.49,35.54,35.54,0,0,1,.47,13.59,42.13,42.13,0,0,1-1.6,6.56,28.18,28.18,0,0,1-1.14,3.11l-.53,1.27-.56,1.18a64.59,64.59,0,0,1-4.66,8.22c-1.58,2.38-3.14,4.52-4.62,6.46L897,296.43c-5.55,5.5-12.83,13.74-18.61,20.55-1.19,1.42.39.28-.31,1.14-4.25,4.66-4.5,4.64-8.3,9-.36-1.33,2.86-4.7,5.62-7.85-2.93,3.1-9.17,9.36-8.91,9.9l-4.63,5.13-2.22,2.44-.12.14h0l-.06.09-.13.17a12.56,12.56,0,0,1-1.18,1.34c.32.12.05.31,1,.27-.2.2-.58.5-.07.47h.14l.22-.07c.36-.12,0-.13.27-.22h.56c.15,0-.24.22-1.1.63.41.12.69.26,1.21.38a4.11,4.11,0,0,0,.93.16h.22c.13,0-.07-.08.63.12,1,.27,2,.52,2.89.75,6.8,4.21,16.58,6.11,26.31,9.87-6.33-2.66,3.8.83,4.67,1.12l16.24,5c9.57,3,16.94,6.45,23.37,8.69a394.72,394.72,0,0,1,43.91,18.73c1.39.55,2.16.56,3.55,1.12-.08.15-.65-.13-1-.25,3.6,2.61,7.92,6.62,2.53,6.22.08,1,2,2.44,3.48,4-3.93.94-3.68,4.4-8.79,4.45,1.86,2.69-1.56,3.6-2.33,5.48-.87,2.1.68,5.55-4.81,4.62-2.22,2.92-10.14.73-19.35-2.89s-19.71-8.7-27-11.79c-9.06-2.38-17.6-7.35-27.68-10.68-1.46-.53-1.82-.19-3.12-.59-13.78-5.59-26.58-9.14-38.89-13.33,7.55,3,11.27,4.07,20,7.3,3.61,1.4-1.68-.33-3-.88l-11.24-3.7-13.5-4.24c-13.89-4.54-30.34-9.56-47.94-15.14,8.26-8.6,18-18.63,28.14-29.31l7.62-8.16,4.69-5.16c3-3.27,6-6.61,8.92-10,2.58-2.93,6.28-6.24,7.07-8.26a132.23,132.23,0,0,0,9.47-11c-.06-.36-2,2-1.68,2,1-2,3.42-4.94,6.17-8.15L873,273.6l1-1.24.93-1.12a31.67,31.67,0,0,0,3-4.18c-1.2,1.2-2.7,2.91-4.73,5.2-2.13,2.44-4.45,5.22-6.79,8-4.68,5.61-9.45,11.34-12.76,14.78l15.59-18.54,3.69-4.44c1.16-1.44,2.16-2.7,3.06-4a34.11,34.11,0,0,0,2.33-3.68,15.81,15.81,0,0,0,1.37-3.16c.41.12.08-.43.61-.11a3.67,3.67,0,0,0-1.13-4L879,257c-.07,0-.23-.16-.37-.23s-.59-.34-.92-.51c-.67-.33-1.39-.65-2.19-1a29.12,29.12,0,0,1-4.83-2.43,51.16,51.16,0,0,0-16.93-3,67,67,0,0,0-16.85,2.1c-11.07,2.87-21.48,8.08-31.49,14.4.75-1.19,2.08-.8,3.14-2.17-1.39.61-3.11,1.73-4.32,2.16a15.13,15.13,0,0,1-2.31,2.07c-1.13.86-2.39,1.76-3.54,2.54-2.34,1.59-4,2.69-5,2.54a24.15,24.15,0,0,1,2.89-2.23c1.12-.77,2.38-1.63,4-2.89a6.16,6.16,0,0,0-1.81,1c-.63.41-1.21.75-1.51.58a19.32,19.32,0,0,1,3.26-2.57c1.41-1,2.9-1.85,4-2.57.52-.44-.14-.27-.59,0,5-3.62,11.51-6.08,17-9.7-2.54.9-5.85,3.41-8.12,3.87.49-.6,3.22-1.73,5-2.82a30.2,30.2,0,0,0-6.45,3.11c2.25-.54-1.66,1-3.15,2.23,3.72-3.17,8.52-6,5-5.62-3.08,1.65-4.79,2.72-6.23,3.67s-2.6,1.78-4.54,3.12c.91-.23,1.51-1,1.2,0l2-1.4c-2.19,1.5-3,3.18-5.75,5.45,0-.28.9-.86,1.47-1.32-.59-.3-1.86.37-3.25,1.36-.26-.43,1.7-1.57,1-1.88s-.76.78-1.55,1.19c-.55-.29,1.69-1.46,1.63-1.9-.87.6-1.85,1.19-2.9,1.92a22.29,22.29,0,0,0-3.39,2.81c0-.28.13-.64.71-1.14-1.15.37-2.48,2.37-3.13,3.25-.28-.35-.68-.1-1.1.2s-.8.66-1.13.49c1.88-1.47,1.66-2.75,2.89-2.77.17-1,1.22-2.24,2.7-3.5s3.41-2.62,5.09-4.14c-1.18.71-2.32,1.47-3.42,2.29s-2.31,1.8-3.31,2.62a3.5,3.5,0,0,1,1.19-1.5c-.27,0-1.81.74-1.08.93-1.32.68.6-1.41.9-1.92-.56.35-1,.77-1.32,0,1.55-1.59,5.83-3.39,7.66-5.86a17.76,17.76,0,0,1,2-.74c1.36-1.18,1.79-2.11,4.39-3.54-2.41,2,1.22-.28,1.85.08-.13-.29,1.22-1.2,2.89-2.19s3.67-2,4.76-2.78a37.62,37.62,0,0,0-4.75,2.38c-1.72,1-3.33,2-4.13,2.54a6.14,6.14,0,0,1,1.11-1.11,49.59,49.59,0,0,0-12.11,8.59c-.49-.38-2.15,1-3.22,1.63-1.36,1.22-.53,1.6-2,2.92-1-.64-.5-1.53,1.94-3.78a50.35,50.35,0,0,0-4.8,4.19c-1.52,1.42-2.8,2.62-4.08,2.62,1.43-1.09,2.94-2.36,4.67-3.84l5.9-5a18.93,18.93,0,0,0-3.68,2.74,16.68,16.68,0,0,1-3.2,2.55c1.06-1,.76-1.25,1.46-2.16-1.31.45-.57.12-2.35,1.32.4-1.06,2.12-1.58,3.55-3.09.27-1-2.8,2-.74,0,0-.38-1.87.87-1.68,1.28-.07-.28.9-2.07.12-2.25,2.13-2,1.25-1,3.65-3.21-1.58,0-3.71,3.39-5.1,4.06.67,0-.93,2.47,1.24.52-.48,1.55-2.1,2-3.42,2.75-.07-.7,1.27-1.25,1.88-2,0-1-1.71-.41-3.14.16s-2.56,1-1.25-1.14c-.07-.64-1.1.73-1.62,1.09,1.44-3,4.49-5.14,6.85-7.66a17.8,17.8,0,0,0-3,2.32,17,17,0,0,0-2.68,3c-1.51,1.39,0-.81,1-1.59-.83,0-2.64,1.75-4.24,4.07a40.38,40.38,0,0,0-3.35,6.25c-.34.26,0-1.16.55-2.68.27-.78.63-1.54.89-2.23a6,6,0,0,0,.52-1.51,10.09,10.09,0,0,0,2.41-2.51c-1.32,2.19.67-.45.1,1,1.07-2.59,2.77-4.06,4.4-6.41-2.63,1.3-5.38,4.19-8.77,7.57a51,51,0,0,0-2.27,4.64c-.65,1.45-1.25,2.85-2,4.82-.26,0-.15-1.34-.07-2.32s.15-1.75-.55-.56Zm116,39.44c-.2,1-3.71,4-3.93,5l10.15-11.44,5.19-5.92,2.59-3c1-1.11,1.91-2.28,2.86-3.47a73.64,73.64,0,0,0,5.56-8,52.2,52.2,0,0,0,2.52-4.73c.4-.82.76-1.68,1.14-2.63a30.49,30.49,0,0,0,1.14-3.25,37.12,37.12,0,0,0,1.68-13.12c-.1-1.07-.17-2.13-.34-3.16s-.4-2-.63-3a37.23,37.23,0,0,0-2.09-5.65,41.13,41.13,0,0,1,2.09,6.57,19,19,0,0,1,.47,5.67,16.22,16.22,0,0,0-.56-2.84,33.19,33.19,0,0,1-.61,12,31.49,31.49,0,0,1-1,3.57c-.19.6-.39,1.22-.62,1.82l-.7,1.72a54.26,54.26,0,0,1-2.85,5.71,88.13,88.13,0,0,1-6.37,9.4l-2.91,3.79c-.83,1.07-1.61,2.08-2.3,3,.38-.5,1-1.14.89-1.34-3.13,3.63-11.52,12.4-11.34,13.31ZM781.79,261.16l.77.71a50.87,50.87,0,0,1,5.38-4.67c1.93-1.48,3.89-2.88,5.9-4.31,4-2.86,8.14-5.67,11.88-8.25-7.17,4.14-12.15,7.7-16.77,10.8.18-.47-.9.4.54-1.09a26.93,26.93,0,0,0-4,3.29C784.48,258.66,783.49,259.62,781.79,261.16Zm16.43-1.29c2.46-1.74,7.42-4.23,10.21-6.63-1.55.82-5.55,3.82-3.62,1.82a31.55,31.55,0,0,0-6.59,4.77ZM905.62,387c-1.36-.68-.46-.46-.24-.84q-4.73-2.24-9.65-4c1.15,1.51,5.71,4.3,9.89,4.84Zm-32.2-12c-.2.76,6.59,3.19,6.88,2.43C877.85,376.16,876.57,376.1,873.42,375Zm-19.64-74.2c.11.14-.34.59-.48.27-.72,1.72-3,3.22-4.24,5.26.91-.67-.56.49-.43,1-.63.34-.76.77-1.75,1.93-2.59,3.33,6.78-7.2,7.29-8.11.07.07.43-.18.34-.39-1,1.25.5-1.32-.73,0Zm18.54-21.69c3.49-4.44-5.7,6.26-1.14,1.07-4.87,5.57-12.77,15-16.58,20C860.75,292.73,866.5,286.45,872.32,279.06Zm-8,7.49c-1.88,1.69-1.77,2.3-3.65,3.69-7.36,9.44-14.3,17.17-21.25,24.51-1.22,1.27-4.76,5-7.6,8s-6,6.13-9,9.24c-6.12,6.22-12.5,12.59-18.88,19.22q10.26-9.48,20.2-19.48c3.32-3.33,6.59-6.73,9.87-10.19l2.45-2.61,2.16-2.34,3-3.27c7.87-8.78,15.56-18.11,22.75-26.77Zm-20.74,23.16c1-1.24,3.18-3.15,3.36-4C845.94,307,843.77,308.86,843.58,309.71Zm36.85-48.49c.67.07.8-.66.62-1.09-.17.43-.57.58-.62,1.09ZM861,336.38c-.22.34-.45.67-.69,1-.09.11-.06.09-.06.11v.1a.29.29,0,0,1-.1.19c-.11.09-.29.14-.43.23-.4.08.16-.41-.27-.22,0-.1.1-.22.28-.31l.26-.13H860l.19-.19ZM781.4,245.75c-1.29.53-1,.24-2.14.35,1.07-.61,2.49-1.68,3.59-2.34-.55.73-1.36,1.59-1.35,2.13-.56.41-.37.08-.1-.13Z" transform="translate(0 -140.36)"/><path class="cls-3" d="M801.74,397.22c.45,1.6.62,4,1.26,5.1A14.82,14.82,0,0,0,801.74,397.22Zm-11.36-83.59c.71.22.32,2,.49,3.16-.7-.38-.29-2.29-.49-3.18Zm8.31,59.79c-.46-.51-.36-2.3-.3-2.92.54.56.23,2.09.3,2.9Zm15.63,62.19a4,4,0,0,1-1-2.43c.38,1.29.84,1.54,1,2.43Zm-6.8-19.14c.44.09.53,1.54.84,2.17.18-.11,0-.55-.09-.89.42,0,.47,1.35.77,1.89a2.2,2.2,0,0,1-.6-.72c-.12,1,.88,2.86,1.2,4.18a25.77,25.77,0,0,1-2.17-6.63Zm-6.69-40c-.44-.34-.27-1.88-.46-2.69.39.32.21,1.86.41,2.68Zm29.8,87.75c-.35-.87,0-1.36-.59-2.34.75.18,1.37,2.05.59,2.34Zm1.16-96.42c-.46-.49-.29-2.18-.5-3.16.45.58.29,2.24.5,3.2Zm17,59.79c.45.06.25,1.1.8,1.75-.63-.12-.68-1.07-.75-1.71Zm-8.47-32.21c.52.45.56,2.06.9,3-.69-.11-1-2.39-.9-3Zm-1.91-8.32c.69.29.74,1.91,1.08,2.94-.74-.29-.61-2.26-1.12-2.94Zm-1.13,79.47c-.45-.56-.6-1.4-1.52-1.71a20.18,20.18,0,0,0-1.93-4.45c-.14-.18-.29-.15-.44-.39-.22.33-1.28.23-.61,1-1.29-.26-1.55-2.46-1-2.69-.34-.81-.67-.81-1-1.39,0,1.38-.31,2.15.81,3.47a3.31,3.31,0,0,0-1.51,1.23c-.89-1.32-1.16-1.12-2.24-1.35a11.6,11.6,0,0,0-.83-2.19c-.24-.3-.49-.24-.73-.58-.58.08.09.86-.48.94-6.24-12.89-12.7-26-16.7-40.3a10.57,10.57,0,0,1-2-4.45,34.28,34.28,0,0,0-1.16-5.18c-.48.64.59,2.77.48,3.77a143.81,143.81,0,0,1-3.83-15.74c-.48-2.6-.94-5.13-1.38-7.54s-.89-4.72-1.35-6.72a82,82,0,0,0-.84-14.17c-.14-.9-.47.08-.58-.46a54.48,54.48,0,0,0-.46-5.84c1.19.21,1.31,2.41,1.55,4.43-.07-2.09-.14-6.27-.72-6.28-.28-2.23-.61-4.12-1-6s-.74-3.75-1.22-6.15c-.42-.46-.58-1.53-1.22-1.52a21.32,21.32,0,0,0-1.49-5.12c-.31.47.35,1.9.42,2.7a8.68,8.68,0,0,1-1.16-3.5c-.21-1.4-.17-2.79.26-3.24-.53-2.67-1-5.64-1.38-8.61l-.53-4.32c-.16-1.32-.33-2.51-.54-3.55a13.4,13.4,0,0,0,.7-6.28c-.09-1-.25-1.89-.4-2.73s-.29-1.59-.39-2.52c0,1.2-.17.88-.36.25L790,307.5c-.68-2.08-1.73-4.44-2.7-6.86-1.84-4.66-2.41-8.72-3.57-11.93a127.31,127.31,0,0,1-5.7-23.19c-.23-.72-.61-1-.84-1.69.16,0,.22.27.31.46.35-2.35,1.51-5.58,3.9-3.59.79-.47,1-1.74,1.54-2.92,2.76.9,5.51-.72,8.12,1,1.3-1.82,3.79-1.06,5.73-1.63,2.19-.63,4.27-2.7,6.27-.4,7.09-1.07,8.74,14.78,10.46,22.66a23.36,23.36,0,0,1,2.18,7,50.29,50.29,0,0,0,1.81,7.67c.22.8.69.79,1,1.49.82,4,1.87,8.09,2.51,12.4A95.47,95.47,0,0,1,822,319a45.46,45.46,0,0,0,.1-5.35c-.06-1.78-.17-3.73-.48-6.73-.22-2.48.4,1.06.39,2,.58,4.55.66,8.84,1,12.45.15,1.83.34,3.36.64,5.16s.69,3.67,1.16,5.7c.91,4,2.13,8.65,3.13,13.82s1.69,10.16,2.29,15.05c.26,2.06-.06,4.66.77,5.63a37.7,37.7,0,0,0,.77,7.27c.3.08.13-1.42-.14-1.28,1.37,2,1,7.45,2.1,10.82.26-2.06-.15-5.39-.62-9s-1-7.33-1.08-9.83c.7,4.39,1.12,8.35,1.63,12.09a70.62,70.62,0,0,0,2.17,10.79c-.43,0,.3,1.07-.38.81.91,4,1.51,7.42,2.32,10.68a28,28,0,0,0,1.24,3.35,8,8,0,0,1,.62,3.44c3.85,14,8.8,25.37,13.56,36.59-.8-.32-.06-1.23-1-1.71a14.2,14.2,0,0,1,.59,2.48c1.16.71,3.56,5.79,2.56,7.4-.75-1.71-.94-3.23-2.07-5.11-.17.59.76,1.68.26,2.14-.83-.87-1.54-3-2.06-4.26-.22-.27-.28.14-.18.39a17.58,17.58,0,0,1-1-2.21l-.85-2.42a15.62,15.62,0,0,0-2.39-4.62c.36,1.41,1.82,3.09,1.66,4.45-.4-.22-.76-1.76-1.37-2.65a10.38,10.38,0,0,0,1.25,3.55c.1-1.34.49.89,1.09,1.68-1.65-2-3.16-4.43-3.62-2.33a46.6,46.6,0,0,0,3,5.84c.09-.56-.42-.83.36-.78l-.62-1.09c.65,1.19,1.89,1.44,2.89,3-.25,0-.44-.47-.64-.78-.43.42-.3,1.15.11,2-.46.21-.79-.92-1.26-.43s.4.39.5.87c-.42.39-.7-.93-1.08-.83a19.93,19.93,0,0,0,1.9,3.88.75.75,0,0,1-.7-.47c-.07.77,1,1.76,1.46,2.39-.8.33.08,1.39-.5,1.82-.23-1.71-1.43-1.52-.92-2.44-1.54-.31-2.29-2.84-3.75-4.62a27,27,0,0,0,1.91,3.94c-.29,0-.56-.3-.83-.7-.1.18,0,1.17.4.66.08.87-.94-.32-1.28-.44.1.34.28.64-.49.9a8.85,8.85,0,0,1-1-2.16,3.71,3.71,0,0,0-1.52-2.12,4.5,4.5,0,0,1,0-1.16c-.63-.69-1.3-.83-1.82-2.26,1,1.23.08-.72.56-1.18-.58.25-1.76-2.82-2.59-3.91a23.18,23.18,0,0,0,2.21,4.7,2.16,2.16,0,0,1-.67-.53,17.4,17.4,0,0,0,3.79,6.52c-.48.37.2,1.27.33,1.92.54.79,1.16.18,1.69,1.11-.93.75-1.38.39-2.43-1,.4.9,1.13,1.93,1.59,2.95a2.56,2.56,0,0,1-.06,2.9c.08-2.12-.92-4.34-2.66-6.7.14,1.14,2,3.11,1.85,4.1-.34-.68-.67-.46-1.12-.86-.17.85-.1.36.08,1.5-.65-.21-.35-1.34-1.08-2.13-.67-.09.57,1.66-.31.49-.31.05,0,1.16.39,1-.23.05-1.32-.41-1.76.13a19.32,19.32,0,0,0-1.39-2c-.53,1,1.57,2,1.5,2.85.24-.45,1.59.41.92-.87,1,.18.72,1.26.65,2.1-.56.08-.36-.79-.69-1.14-.77.07-1,1.16-1.29,2.06s-.54,1.6-1.44.89c-.5.09,0,.66,0,1-1.36-.76-1.74-2.45-3-3.62a7.23,7.23,0,0,0,1.84,3.06c.28.86-.57,0-.73-.52-.74,1.08,2.22,3.76,2.5,4.61-.25.47-1.78-1.33-2.53-1.34a1.45,1.45,0,0,0-.45-1.36c.89.67,0-.39.75-.13-1.31-.49-1.66-1.4-2.92-2.12,0,1.5,1.11,2.84,1.29,4.78a5.83,5.83,0,0,1,2,3.07c-.56.15-1.8-1.14-1.74-.09Zm-36.77-93c-.57-.41-.12-2.76-.68-3.16.44,4.87.71,10.46,1.4,16.11A73.44,73.44,0,0,0,804.58,402c-.13-1.17-.87-3-.61-3.72a2.32,2.32,0,0,0,.52.78,73.33,73.33,0,0,1-1.61-8.2c-.24-1.63-.5-3.31-.78-4.88s-.53-3-.83-4.24c.07.33.07.81.28.83-.31-2.63-.31-8.9-1.07-9.08Zm40,85,.89-.55a107.08,107.08,0,0,0-7.08-12.46c1.82,3.73,3.3,6.44,4.38,9-.33-.06,0,.52-.74-.2.93,2.11,1.77,2.27,2.52,4.24Zm4.92-10.63c-.35-.69-.7-1.73-1.16-2.77a8.4,8.4,0,0,0-1.67-2.76c.36.81,1.78,2.94.66,2,.14,1.19,1.45,2.71,2.14,3.56ZM816,290.22c.07.78-.17.36-.6.45a35.56,35.56,0,0,0,1.13,5.33A5.54,5.54,0,0,0,816,290.22Zm3.82,19.11c.39,0,.49-1.17.34-2.31s-.51-2.19-.92-2.13c-.07,1.67.41,2.4.58,4.43Zm8.11,53.54c-.19,0-.18-.33.15-.29-.7-.84-.18-2.29-.74-3.48-.16.61,0-.4-.42-.51.2-.38,0-.57-.16-1.37-.56-2.17.42,5.23.65,5.71a.16.16,0,0,0-.1.17.13.13,0,0,0,.1.1c-.08-.85.6.62.52-.34Zm1.71,14.35c.52,2.73-.18-4.16.08-.78a100.09,100.09,0,0,0-1.91-13c.84,4.91,1,9.22,1.87,13.78Zm.62-5.5c.19-1.28-.31-1.44.08-2.64-1.26-6-1.83-11.47-2.48-17-.33-2.75-.7-5.52-1.17-8.33s-1-5.49-1.63-8.14a70.71,70.71,0,0,0,.9,8.47c.48,3.06,1,6.23,1.48,9.44,1,6.29,2,12.53,2.82,18.12Zm-1.59-16.12c.22.84.08,2.41.52,2.75-.21-.85-.07-2.44-.52-2.78Zm6.52,32.52c-.57.5-.23,1.83.14,2.69a8.89,8.89,0,0,0-.14-2.72Zm-37.62-32.21a10.3,10.3,0,0,1-.85-4.14c.06-1,.52,2,.43.39a18,18,0,0,1,.42,3.72ZM828.1,460.76c0,.72-.14.56-.46,1.27a19.4,19.4,0,0,0-.73-1.92c.44.27.89.65,1.34.56.14.27-.07.19-.15.06Z" transform="translate(0 -140.36)"/><path class="cls-3" d="M1030.6,255.43c1.34-.27,3.34-.15,4.24-.66A9.89,9.89,0,0,0,1030.6,255.43Zm-73.41,7.49c.28-.72,2.24-.41,3.31-.64C960.22,263,958.25,262.68,957.19,262.92Zm53.48-5.61c-.45.45-2,.34-2.61.28C1008.59,257.06,1010,257.38,1010.67,257.31Zm52.65-6.62a2.71,2.71,0,0,1-2.12.25C1062.32,250.91,1062.62,250.53,1063.32,250.69Zm-16.52,2c.13-.41,1.31-.23,1.87-.4-.07-.2-.45-.09-.73-.09,0-.4,1.15-.21,1.63-.37a1.74,1.74,0,0,1-.67.44c.77.31,2.45-.23,3.57-.25a19.94,19.94,0,0,1-5.65.64Zm-33.48,2.53c-.28.44-1.64.25-2.35.44C1011.25,255.22,1012.61,255.44,1013.32,255.22Zm76.7-9.41c-.77,0-1-.57-2-.46.37-.59,2-.35,2,.49Zm-84.85-21.59c-.44.45-1.94.27-2.8.48C1002.81,224.22,1004.32,224.43,1005.17,224.22Zm59.63-8.86c.19-.41,1.11.1,1.88-.23C1066.32,215.74,1065.43,215.49,1064.8,215.36ZM1031.88,217c.51-.46,2.1-.31,3-.53C1034.76,217.08,1032.49,217.13,1031.88,217Zm-8.42,1.14c.34-.67,1.94-.61,3-.87-.33.67-2.27.42-3,.87Zm70.48,22.82c-.59.15-1.28-.09-1.84.58a12.77,12.77,0,0,0-4.09-.2c-.19,0-.21.2-.45.23.19.34-.23,1.26.6,1-.62,1-2.4.35-2.42-.24-.73,0-.84.29-1.39.35,1.07.57,1.58,1.16,3,.7a3.94,3.94,0,0,0,.47,1.88c-1.29.25-1.23.58-1.73,1.45a8.35,8.35,0,0,0-1.93-.11c-.3.09-.33.35-.66.43-.11.56.68.26.58.81-11.75.52-23.54,2.63-35.7,3.61-2.93,1.71-4.65.65-8.23,1.32.49.58,2.33-.11,3.13.17-8.71,1.35-18.11,1.81-25,3.39a56,56,0,0,0-12.4.65c-.82.14.07.47-.42.57a52.56,52.56,0,0,0-5.47.41c.2-1.19,2.3-1.28,4.16-1.5-1.92,0-5.89.06-5.94.63-4.31.44-7.56,1-12.33,1.43-.49.36-1.53.41-1.57,1a16.75,16.75,0,0,0-4.72.81c.36.37,1.66-.09,2.39-.05-1.32.84-5.1,1-5.76,0-4.34.44-9,.67-12.33,1.68-3.65-1.52-8,.29-12.66.39,3.07.13-1.67.63-2.05.7-2.51.44-5,1.06-7.17,1.56-4.14.93-7.44.78-10,1.44-3.23.81-6.36,1.41-9.28,1.92l-8,1.41c-.47.21-.59.57-1.06.77-.06-.15.16-.2.28-.28a7.08,7.08,0,0,1-2.68-1.17,2,2,0,0,1-.65-2.6c-.5-.76-1.5-1-2.53-1.4.16-2.69-1.67-5.26-.63-7.93-1.76-1.15-1.49-3.64-2.25-5.52-.83-2.1-3.13-4-1.09-6.16-.9-3.46,2.77-6.1,7.68-7.58s10.81-1.83,14.66-2.18c4.36-1.79,9.23-.74,14.13-1.59.73-.07.79-.54,1.41-.67,7-.12,12.82-1.48,18.7-2-3.7-.11-5.41.25-9.66.48-1.77,0,.75-.3,1.4-.29l46.82-5.57c1.77-.21,4.07.13,4.91-.7a31.55,31.55,0,0,0,6.57-.71c.07-.3-1.31-.15-1.17.12,1.83-1.34,6.92-.91,10.24-1.84-4-.77-13,1.32-17.41,1.39,7.66-1.31,14.41-1.66,21.48-3.26,0,.43,1.06-.22.76.44,3.92-.64,7.32-.83,10.56-1.22,2.29-.27,4.53-1.43,6.81-.8,14.08-1.31,26-2.67,37.81-2.79-.57.61-1.13-.42-1.88.23a15.42,15.42,0,0,1,2.43.41c1.05-.84,6.5-.94,7.49.67-1.78-.06-3.18-.48-5.28-.24.46.41,1.77,0,2,.64-1.07.39-3.18.21-4.51.2-.32.11,0,.31.28.32-3,.39-6.52-.58-9.71.66,1.38.12,3.36-.68,4.53,0-.32.29-1.82,0-2.82.34a10.31,10.31,0,0,0,3.59.09c-1.17-.57,1-.14,1.86-.4-2.29.83-5,1.34-3.27,2.52,3.42-.12,3.88-.37,6.14-.58-.46-.3-.88.06-.56-.63l-1.17.14c1.27-.13,1.92-1.18,3.63-1.51,0,.25-.57.22-.92.29.22.57.9.71,1.76.67,0,.5-1.09.36-.84,1s.48-.23.94-.12c.19.54-1.06.26-1.11.67a19.84,19.84,0,0,0,4-.14c-.07.22-.25.39-.66.43.63.4,1.88-.22,2.59-.32,0,.87,1.21.54,1.35,1.25-1.53-.55-1.83.61-2.42-.23-.84,1.29-3.27.86-5.31,1.53a31.46,31.46,0,0,0,4-.14,1.19,1.19,0,0,1-.9.46c.12.17,1,.5.7-.08.77.28-.61.72-.83,1,.32,0,.63,0,.58.81-1,.32-3.24-.56-4.47.55a3.64,3.64,0,0,1-1-.41c-.8.31-1.14.87-2.52.84,1.38-.52-.6-.34-.84-1,0,.62-3,.59-4.17,1a22.07,22.07,0,0,0,4.73-.4,1.74,1.74,0,0,1-.67.44,16,16,0,0,0,6.81-1c.14.58,1.14.34,1.73.49.86-.16.57-1,1.54-1.07.29,1.16-.18,1.42-1.69,1.8,1.78,0,4.5-1,5.39,1.1-1.71-1-3.92-1-6.5-.43,1,.34,3.32-.56,4.06,0-.69,0-.62.42-1.11.66.64.51.26.24,1.26.56-.4.49-1.23-.25-2.14.08-.3.57,1.57.17.3.49-.07.3,1,.48,1,.06,0,.24-.8,1-.51,1.66a15,15,0,0,0-2.1.43c.65.9,2.15-.6,2.85-.17-.28-.4.89-1.27-.39-1.19.52-.88,1.29-.14,2,.29-.14.53-.77,0-1.18.14-.42,1.45,3.19,2.74,1.42,3.72-.11.48.52.27.77.43-1.08.88-2.56.54-3.92,1.19a5.45,5.45,0,0,0,3.06-.38c.78.11-.17.53-.66.44.59,1.1,3.74-.33,4.51-.2.28.43-1.68,1-2,1.65a1.16,1.16,0,0,0-1.22-.2c.84-.5-.3-.2.15-.73-.83,1-1.66.91-2.65,1.74,1.18.61,2.6.17,4.17.9a4.23,4.23,0,0,1,3.06-.38c0,.66-1.43,1.18-.61,1.6Zm-83.25,14.6c-.35.56-2.45.1-2.8.66,8.78-.84,19.23-1,26.75-3-1,0-2.49.52-3.09.18a1.83,1.83,0,0,0,.67-.43c-3,.66-10.32.92-14.4,2,.28-.06.68,0,.69-.25-2.19.15-7.63.07-7.8.84Zm78.16-21-.13-1c-3.75.16-8.61.37-12.48,1.53a80.36,80.36,0,0,1,8.78-.55c-.16.28.44.18-.41.58,2-.06,2.4-.75,4.24-.6Zm-7.06-8.85c-1.4.1-4-.31-5.67.52.81,0,3.11-.58,1.93.12a8.29,8.29,0,0,0,3.74-.68Zm-144.93,9c.73.08.31.23.33.67a28.53,28.53,0,0,0,4.89-.14,4.58,4.58,0,0,0-5.22-.55Zm15.89-1.11c-.09-.78-3.37-.53-3.31.28,1.26.21,1.79-.21,3.31-.3Zm48.13-5.52c0,.19-.29.17-.26-.15-.73.69-2,.14-3,.68.52.17-.34-.06-.43.4-.33-.21-.49,0-1.18.12-1.87.51,4.5-.28,4.93-.52a.12.12,0,0,0,.24,0c-.74.08.53-.61-.3-.55Zm12.89-1.57c2.54-.48-3.86.11-.72-.1a75.43,75.43,0,0,0-11.68,1.8c4.31-.75,8.19-1,12.4-1.72Zm-5.06-.68c-1.17-.2-1.3.29-2.39-.09-10.69,2.44-18.8,2-28.6,3.13,9.28,1,20.83-1.55,31-3.06Zm-14.1,1.33c.7-.18,2,0,2.33-.42-.7.17-2.05,0-2.33.4Zm29.76-5.75c.45.61,1.76.36,2.62.05a8.54,8.54,0,0,0-2.67-.06Zm-30.12,36.84c-1.36.7-2.9.55-4.26.62-1-.14,2.09-.39.44-.4a20.7,20.7,0,0,1,3.77-.23Zm92.33-11.55c.56.32.39.37.83,1a11.91,11.91,0,0,0-1.69-.14c.34-.3.77-.54.84-1,.27-.08.15.08,0,.09Z" transform="translate(0 -140.36)"/><path class="cls-3" d="M984.12,378.84c.32,1.41.29,3.51.84,4.45A11.15,11.15,0,0,0,984.12,378.84Zm-7.42-78.62c.69.34.31,2.42.51,3.57-.7-.35-.33-2.44-.51-3.57Zm4.9,57.33c-.46-.48-.37-2.18-.32-2.8.54.55.24,2,.32,2.78Zm7.89,54.51a2.58,2.58,0,0,1-.2-2.07c0,1.06.37,1.34.2,2.05Zm-2-16.45c.42.12.27,1.34.45,1.89.2-.07.09-.45.07-.74.41,0,.24,1.17.41,1.64a1.69,1.69,0,0,1-.45-.66c-.3.77.27,2.46.31,3.59a21.37,21.37,0,0,1-.79-5.74Zm-3.77-35.25c-.44-.31-.3-1.76-.49-2.51.43.28.28,1.73.49,2.49Zm7.77,77.08c.19-.68.75-.82.82-1.68.54.44,0,1.83-.82,1.66Zm23.14-85.83c-.45-.44-.29-2-.51-2.89.46.48.3,2,.51,2.87Zm10.12,63.59c.41.25-.14,1.25.13,2.16-.56-.38-.28-1.42-.13-2.14Zm-2.12-36.14c.49.53.4,2.21.66,3.19-.64-.07-.78-2.53-.66-3.17Zm-1.48-8.74c.68.33.68,2,1,3.07-.7-.32-.52-2.32-1-3.05Zm-25.72,71.74c0-.57.38-1.16-.15-1.82a7,7,0,0,0,.67-1.67,20.32,20.32,0,0,0,.35-2.07c0-.18-.16-.24-.14-.46-.37.11-1.19-.44-1.08.38-.92-.77.11-2.28.67-2.21.15-.69-.15-.84-.13-1.37-.73.92-1.35,1.3-1.18,2.64a4.24,4.24,0,0,0-1.94.1c0-1.21-.33-1.21-1.12-1.81a6.89,6.89,0,0,0,.41-1.74c0-.29-.29-.35-.32-.66-.54-.18-.36.59-.9.41,1.26-10.76-.53-22.32-1.79-34.61-1.8-2.95-.77-4.72-1.58-8.41-.56.52.2,2.4-.06,3.24-.82-4.45-1.48-9.18-2.14-13.73s-1.3-8.94-2.2-12.62a69.42,69.42,0,0,0-.91-13.27c-.15-.88-.47.07-.58-.45a55,55,0,0,0-.43-5.87c1.19.23,1.28,2.47,1.52,4.46-.07-2-.09-6.3-.66-6.35-.46-4.61-1-8.1-1.38-13.2-.36-.54-.39-1.65-1-1.71a19.37,19.37,0,0,0-.75-5.07c-.37.39.06,1.78,0,2.57-.83-1.44-.89-5.49.09-6.16-.35-4.66-.43-9.59-1.31-13.24A13.1,13.1,0,0,0,978,301a67.17,67.17,0,0,1-.48-7.23c-.28,3.32-.56-1.84-.59-2.28-.29-2.78-.75-5.61-1.06-8.17-.56-4.83,0-8.74-.26-12a102.41,102.41,0,0,1,1.25-23c0-.72-.28-1.07-.28-1.8.16,0,.12.32.15.52,1.06-2.06,3.15-4.65,4.81-2.13.9-.19,1.52-1.27,2.36-2.19,2.35,1.64,5.47,1,7.43,3.31,1.8-1.25,3.93.16,6,.22,2.27.07,4.88-1.15,6.09,1.45,7,1.11,3.9,15.45,3.44,22.91,1.06,4.38-.51,9-.06,14,0,.73.47.82.56,1.46-.38,7,.75,13.21,1,19.31.25-3.83,0-5.63-.06-10,0-1.82.27.79.22,1.46,1,13.73,2.43,31.2,4.54,48.67.21,1.83-.08,4.2.75,5.07a32.23,32.23,0,0,0,.81,6.79c.3.07.12-1.36-.15-1.21,1.39,1.88,1,7.14,2.09,10.55.62-4.12-1.63-13.44-1.73-18,1.36,7.92,1.91,14.86,3.73,22.11-.43,0,.26,1.09-.42.8.79,4,1.13,7.61,1.65,11,.37,2.42,1.63,4.77,1.07,7.25.92,7.56,1.71,14.73,2.06,21.73a118.46,118.46,0,0,1-.61,20.63c-.51-.76.6-1.24,0-2.2a15.07,15.07,0,0,1-.77,2.72,8.78,8.78,0,0,1-.08,4.41c-.4,1.84-1.08,3.59-2,4,.43-2,1.15-3.5,1.28-5.94-.45.45-.33,2-1,2.13a26.21,26.21,0,0,1,.59-5.14c0-.38-.31,0-.36.26.09-3.41,1.44-7.29.48-11-.25,1.54.37,3.86-.41,5.1-.25-.41.12-2.05-.07-3.21a14.63,14.63,0,0,0-.46,4c.71-1.23,0,1.1.16,2.15-.5-2.71-.76-5.76-2.11-4-.11,1.9-.17,3-.16,3.92s0,1.69-.06,3c.37-.47.08-1,.72-.52v-1.33c0,1.43.86,2.34.91,4.32-.23-.09-.12-.68-.13-1.08-.6.14-.84.87-.95,1.83-.49-.07-.17-1.28-.84-1.1s.15.57,0,1.06c-.56.1-.09-1.23-.48-1.35a35.74,35.74,0,0,0-.62,4.48c-.2-.13-.33-.36-.29-.82-.52.61-.15,2.11-.22,2.91-.83-.22-.81,1.2-1.53,1.18.91-1.54-.18-2.12.76-2.57-1.11-1.19-.16-3.73-.52-6.07a12.78,12.78,0,0,0-.32,2.12c-.07.77-.15,1.57-.27,2.29a1.43,1.43,0,0,1-.28-1.06c-.18.09-.68,1,0,.77-.43.77-.59-.8-.8-1.08-.11.33-.13.67-.91.45-.08-1.15,1.11-3.35.22-4.85a4.92,4.92,0,0,1,.56-1c-.19-.9-.72-1.34-.51-2.81.34,1.54.41-.59,1.05-.77-.6,0-.27-3.28-.6-4.6a32.31,32.31,0,0,0-.1,5.11,2,2,0,0,1-.35-.76,32.94,32.94,0,0,0-.3,3.7,12.84,12.84,0,0,0,.33,3.71c-.59.05-.52,1.15-.79,1.75,0,.94.84.79.75,1.85-1.19.07-1.36-.48-1.44-2.14-.36,1.85.06,4.94-2.19,5.39,1.44-1.52,1.84-3.87,1.73-6.68-.48,1-.08,3.58-.8,4.24.11-.72-.29-.73-.43-1.29-.63.56-.29.22-.79,1.19-.41-.52.48-1.22.33-2.23-.5-.42-.47,1.59-.54.22-.27-.12-.65.88-.25,1-.22-.09-.85-1-1.52-.85a13.59,13.59,0,0,0,0-2.21c-1,.5.18,2.29-.37,2.92.45-.21,1.07,1.16,1.24-.16.76.71-.12,1.34-.66,1.93-.5-.26.16-.78.09-1.23-1.34-.7-3.31,2.62-3.92.65-.46-.2-.36.47-.58.67-.64-1.24,0-2.61-.41-4.06a5.47,5.47,0,0,0-.21,3c-.25.74-.49-.26-.3-.73-1.16.37-.47,3.67-.78,4.39-.48.16-.58-1.83-1.17-2.22.22-.26.55-.37.47-1.12.31.9.25-.24.68.3-.78-1-.58-1.79-1.2-2.89-.85,1-.63,2.46-1.72,3.76a3.84,3.84,0,0,1-.29,3c-.62-.21-.81-1.64-1.41-1ZM983.37,357.6c-.56-.37-.13-2.62-.7-3,.22,2.35.45,4.81.67,7.3s.43,5,.72,7.51a76.92,76.92,0,0,0,2.46,13.65c0-1-.62-2.61-.31-3.25a1.9,1.9,0,0,0,.46.69c-.8-3.18-1.34-11-2.52-15.31.07.29.06.72.28.73-.22-2.31-.3-8.14-1.06-8.33Zm19.46,81,1,.09c.63-3.76,1.15-8.75.43-12.82,0,1.86-.1,3.48-.18,4.94a29.76,29.76,0,0,1-.51,4c-.24-.2-.25.4-.51-.51-.35,2,.21,2.56-.28,4.35Zm10-5.65c.16-1.51.89-4.31.27-6.17-.06.88.19,3.42-.36,2.06a5.2,5.2,0,0,0-.14,2,18.38,18.38,0,0,0,.21,2.11Zm-6.62-152.07c-.15.72-.26.28-.7.26a23.77,23.77,0,0,0-.27,4.91,4.68,4.68,0,0,0,1-5.12Zm0,16.19c.78-.05.7-3.45-.12-3.43-.31,1.34.08,1.9.1,3.48Zm4.52,50c-.18,0-.17-.3.15-.26-.69-.76-.14-2.07-.68-3.13-.17.54.06-.36-.39-.46.2-.33,0-.5-.13-1.22-.51-1.94.28,4.67.53,5.13a.12.12,0,0,0-.12.12.12.12,0,0,0,.12.12h0c-.13-.7.58.62.5-.25Zm1.78,13.36c.53,2.62-.19-4,.09-.75a90.33,90.33,0,0,0-2-12.1c.78,4.52,1,8.54,1.89,12.9Zm.58-5.25c.17-1.22-.32-1.34.06-2.47-2.58-11.07-2.14-19.48-3-29.67-1.27,9.66,1.22,21.7,2.92,32.17Zm-1.44-14.6c.18.72,0,2.11.42,2.41-.2-.68,0-2.07-.44-2.36Zm6.25,30.7c-.59.49-.3,1.84,0,2.72a9.19,9.19,0,0,0,0-2.67Zm-37.33-31.44c-.7-1.47-.54-3.11-.6-4.56.14-1.09.38,2.23.4.48a21.94,21.94,0,0,1,.18,4.13Zm10.75,94.37c-.41.45-.43.29-1.1.59a6.43,6.43,0,0,0,.42-1.5c.24.35.42.78.85.92,0,.22-.22.09-.17,0Z" transform="translate(0 -140.36)"/><path class="cls-3" d="M1049.18,366.71c.14,1.17-.18,2.9.25,3.72A7.35,7.35,0,0,0,1049.18,366.71Zm-1.16-64c.69.28.24,2,.41,2.89-.7-.27-.25-2-.41-2.88Zm1.2,46.59c-.42-.42-.16-1.79,0-2.28.44.51,0,1.66,0,2.29Zm1.36,46.17a2.12,2.12,0,0,1,0-1.87c-.12,1,.23,1.26,0,1.88Zm-.26-14.5c.4.15.09,1.16.2,1.66.21,0,.15-.38.17-.63.39.08.09,1,.2,1.45a1.43,1.43,0,0,1-.36-.62c-.4.64,0,2.14-.12,3.11a15.26,15.26,0,0,1-.09-5Zm.7-29.22c-.41-.28-.1-1.44-.22-2.07.41.29.09,1.45.22,2.08Zm1.57,67.3c.13-.66.68-.85.67-1.67.58.36.17,1.76-.67,1.68Zm30.08-72c-.41-.41-.09-1.72-.22-2.48.41.41.1,1.71.22,2.47Zm2.89,52.78c.39.2-.21,1,0,1.65-.54-.34-.19-1.13,0-1.66Zm1.76-28.84c.41.48.09,1.86.22,2.69C1086.93,373.49,1087.11,371.5,1087.32,371Zm-.31-7.45c.63.35.41,1.74.57,2.68C1087,365.87,1087.39,364.22,1087,363.54Zm-30,59.37c-.08-.52.23-1.1-.38-1.65a9.64,9.64,0,0,0,.64-3.53c0-.17-.18-.2-.18-.41-.36.13-1.23-.31-1,.43-1-.63-.09-2.12.49-2.08.12-.63-.19-.75-.2-1.24-.67.88-1.31,1.27-1,2.51a4.38,4.38,0,0,0-1.93.24c-.1-1.15-.44-1.12-1.25-1.64a6.17,6.17,0,0,0,.31-1.66c-.06-.27-.31-.32-.36-.61-.54-.15-.32.57-.87.43.73-10.25-.13-20.67.14-31.29-1.41-2.68-.17-4.08-.48-7.24-.63.37-.12,2-.48,2.7-.47-7.66,0-15.84-.93-21.94a42.31,42.31,0,0,0,.51-10.78c-.07-.72-.48,0-.53-.41a37.78,37.78,0,0,0,.08-4.76c1.17.27,1.07,2.08,1.12,3.71.12-1.66.47-5.1-.09-5.18-.07-3.76-.34-6.62-.37-10.77-.32-.45-.28-1.35-.9-1.43a12.27,12.27,0,0,0-.43-4.13c-.39.29,0,1.44-.14,2.07-.72-1.2-.58-4.47.44-5-.08-3.78,0-7.79-.72-10.76,1.77-3.08.28-6.91.5-11-.35,2.69-.52-1.5-.56-1.85-.26-2.25-.69-4.54-1-6.61-.57-3.91-.06-7.08-.35-9.73a78.74,78.74,0,0,1,.54-18.66c0-.58-.34-.85-.38-1.44.17,0,.14.25.18.41,1-1.71,2.92-3.92,4.7-2,.89-.2,1.45-1.11,2.25-1.9,2.43,1.22,5.51.54,7.58,2.35,1.73-1.13,3.93-.07,6-.11,2.27,0,4.82-1.2,6.16.92,7.12.59,4.59,12.89,4.2,19.19,1.15,3.69-.4,7.59,0,11.81,0,.61.47.69.55,1.23-.4,5.92.58,11.18.65,16.35a75.1,75.1,0,0,0,.2-8.49c.09-1.54.25.67.19,1.24.73,11.63,1.31,26.48,1.81,41.39,0,1.57-.49,3.55.25,4.35a25,25,0,0,0,.11,5.8c.28.09.26-1.14,0-1,1.17,1.71.26,6.12.87,9.1,1.15-3.41-.08-11.5.24-15.33.61,6.81.32,12.73,1.22,19-.42-.07.12.95-.51.63.26,3.48.11,6.46.17,9.32,0,2,1,4.07.11,6-.12,12.39,0,22.89-1.15,33.17-.55-.56.53-.95,0-1.66a11.47,11.47,0,0,1-.67,2.08c.73,1,.25,5.73-1.46,6.45.25-1.54.82-2.72.8-4.57-.45.37-.19,1.54-.85,1.67a12.75,12.75,0,0,1,.28-3.94c-.07-.29-.31,0-.35.21-.07-2.62,1.28-5.62.37-8.5-.26,1.19.33,3-.45,3.95-.26-.31.14-1.59,0-2.49a8.08,8.08,0,0,0-.46,3.12c.69-1,0,.84.2,1.65-.58-2.07-.8-4.46-2.16-3.07a51.06,51.06,0,0,0-.08,5.39c.35-.37,0-.76.7-.43v-1c0,1.12,1,1.78,1.11,3.29-.24-.06-.16-.51-.19-.82-.59.14-.79.72-.85,1.46-.5,0-.24-1-.89-.81s.17.44,0,.83c-.55.11-.15-.95-.54-1a15.54,15.54,0,0,0-.29,3.53.55.55,0,0,1-.36-.61c-.46.51,0,1.65,0,2.27-.86-.09-.66,1-1.38,1.06.7-1.28-.42-1.64.49-2.08-1.2-.84-.52-2.91-1-4.74a24.56,24.56,0,0,0-.28,3.52,1,1,0,0,1-.37-.82c-.18.09-.6.82,0,.62-.37.64-.65-.59-.89-.81-.08.28-.07.55-.87.43-.2-.93.9-2.76-.07-3.93a3.63,3.63,0,0,1,.51-.84c-.21-.73-.74-1.07-.57-2.27.37,1.24.41-.48,1-.64-.63,0-.28-2.65-.59-3.72a18.59,18.59,0,0,0-.1,4.15,1.43,1.43,0,0,1-.36-.62,12.19,12.19,0,0,0,.28,6c-.59.08-.46,1-.67,1.47.07.76.9.58.9,1.43-1.18.15-1.39-.28-1.61-1.63-.21,1.54.48,4-1.67,4.59,1.22-1.39,1.44-3.32,1.13-5.61-.45.83.2,2.93-.46,3.53,0-.6-.36-.58-.55-1-.57.51-.27.21-.68,1-.45-.4.37-1,.14-1.87-.54-.32-.34,1.35-.52.22-.29-.09-.58.78-.16.83-.24-.06-.94-.79-1.59-.59a11.77,11.77,0,0,0-.21-1.86c-1,.48.37,1.92-.13,2.48.43-.2,1.16.89,1.22-.23.82.53,0,1.13-.49,1.67-.52-.17.09-.67,0-1-1.4-.5-3.06,2.52-3.84.89-.48-.13-.34.44-.52.64-.76-1-.26-2.27-.76-3.51a4.2,4.2,0,0,0,0,2.69c-.19.67-.51-.19-.37-.62-1.15.43-.06,3.29-.28,3.95-.46.2-.8-1.55-1.43-1.84.19-.26.49-.39.33-1.05.4.77.22-.24.7.2-.86-.81-.72-1.53-1.44-2.46-.74,1-.45,2.25-1.34,3.55a3.2,3.2,0,0,1,0,2.69c-.47-.08-.84-1.38-1.35-.69ZM1051,349.48c-.53-.34.12-2.13-.4-2.48,0,7.67-.87,16.72.42,23.4.1-.83-.26-2.19.13-2.69a1.46,1.46,0,0,0,.36.61c-.36-2.68.09-9-.58-12.62,0,.24,0,.59.19.62.07-1.9.65-6.63-.09-6.84Zm13,69.58h1c.24-3.27.54-7.51-.2-11a57.85,57.85,0,0,1-.39,7.68c-.25-.16-.22.36-.53-.41-.19,1.72.44,2.14.11,3.73Zm9.55-5.36c0-1.22.73-3.49.08-5,0,.71.25,2.75-.32,1.67a7,7,0,0,0,.28,3.33Zm4.18-126.85c-.14.61-.26.24-.7.22a19.27,19.27,0,0,0-.27,4.15,3.51,3.51,0,0,0,1-4.37Zm-.1,13.67c.78,0,.76-2.9,0-2.89-.28,1.08.1,1.59.09,2.89Zm1.74,42.44c-.19,0-.15-.26.17-.21-.62-.69,0-1.75-.4-2.68-.22.44.08-.3-.36-.41.24-.27,0-.43,0-1-.33-1.67-.12,4,.08,4.35-.1,0-.19.17,0,.21-.13-.69.45.48.51-.26Zm.38,11.39c.23,2.25.25-3.39.16-.63a56.84,56.84,0,0,0-.71-10.34c.29,3.84.11,7.23.5,11Zm1.15-4.37c.3-1-.18-1.16.31-2.08-1.46-9.54-.35-16.59-.63-25.26-1.82,8.07-.29,18.34.27,27.34Zm0-12.43c.12.63-.2,1.79.21,2.07-.17-.63.14-1.79-.26-2.07Zm2.93,26.51c-.64.35-.53,1.51-.31,2.29a6.1,6.1,0,0,0,.26-2.29Zm-33.85-29c-.58-1.23-.29-2.55-.24-3.72.23-.88.2,1.83.36.41a14.56,14.56,0,0,1-.17,3.3Zm2.35,81c-.37.45-.4.3-1,.64a8.84,8.84,0,0,0,.33-1.46c.25.32.45.71.89.81-.13.22-.27.07-.27,0Z" transform="translate(0 -140.36)"/><path class="cls-3" d="M1063.37,188.06a2.53,2.53,0,0,1,.55,0Zm-3.12-6.6c-.06-.09-.39-.66-.55-1a6.25,6.25,0,0,0,.55,1Zm1.52,7.23c-.11.07-.45.31-.56.4C1061.32,189,1061.61,188.79,1061.77,188.69Zm4.21,0,.07.07Zm-.45-.2.18.09h-.06l.13.07h0l.24.13c-.16-.09-.32-.18-.49-.26Zm-3.14-.19a5.39,5.39,0,0,0-.52.3,3.78,3.78,0,0,0,.52-.27Zm2.11-2.44Zm-21.73,16.89c.54.07,1,1.23,1.63,1.71-.59,0-1.14-1.18-1.63-1.68Zm4.37-37.42c-.11-.4.71-.27,1-.77.18.66-.55.66-1,.8Zm-13,18.14c-.33-.49.2-1.65.27-2.36.52.31,0,2-.28,2.39Zm-.09,6.79c-.66-.29-.52-1.65-.62-2.5.32.17.34.62.36,1.13a3.06,3.06,0,0,0,.25,1.4Zm30.44-4.59v.39h0a1.17,1.17,0,0,0,0,.2.48.48,0,0,1,0,.17l-.07-.28h0a.53.53,0,0,0,0,.15l.06.25h0a5.74,5.74,0,0,0,1.16,2c.39.43.45.33-.12,0a4.42,4.42,0,0,0-1-.36l.41.13a5.3,5.3,0,0,0-1.81-.31h-.72l.85-.26h-.2a6.29,6.29,0,0,0-1.11.53,7.71,7.71,0,0,0-1.33,1l-.09.07a4.87,4.87,0,0,0-.66.78,3.8,3.8,0,0,1,.47-.59c-.15.17-.29.34-.42.52l-.11.16h0l.06-.11a3.09,3.09,0,0,0,.31-.85,9.2,9.2,0,0,0,.24-2.1v-.71a22.33,22.33,0,0,0-.21-2.3c0,.16.11.84.14,1.18a25.92,25.92,0,0,0-.46-2.89c-.13-.55-.28-1.11-.42-1.63l-.23-.74-.12-.35v-.09l-.33-1h0c.1.24.21.51.32.74a17.16,17.16,0,0,0,2.14,3.69c-.31-.39-.22-.28,0-.06a6.57,6.57,0,0,1,.46.56,10.64,10.64,0,0,0,1.31,1.29l.42.3.16.1,1.23.73h-.07a2.21,2.21,0,0,0-.35-.16,3,3,0,0,0,.73,0,4.07,4.07,0,0,0,1.53-.32l.17-.08h0c.19-.1.27-.16.17-.1l.1-.06h0l.39-.26a13.29,13.29,0,0,1,1.48-.82c.73-.51,1.55-1,2.44-1.55s1.84-1,2.71-1.46,2-1.3,2.88-1.87a3,3,0,0,1,2.79-.56,3.9,3.9,0,0,1,4.14.29,6.45,6.45,0,0,1,2.13,4,12.22,12.22,0,0,1-.26,5,24.19,24.19,0,0,1-1.46,4,6.08,6.08,0,0,1-1.63,4c-1,1.05-1.9,2.15-2.76,3.28-.27.31,0,.66-.16,1l-4.11,3.52a17.37,17.37,0,0,1-3.82,2.59c1.84-.42,2.56-1,4.52-2.22.86-.47-.2.45-.53.59a26.34,26.34,0,0,1-4.69,2.9c-.85.41-1.66.77-2.61,1.13a25.59,25.59,0,0,1-3.09.94,23.19,23.19,0,0,1-8.26.47,20.07,20.07,0,0,1-5.21-1.39,19.83,19.83,0,0,1-5-3c-1.27-1-2.06-2.76-3.07-2.87-1.09-1.82-1.75-2.79-2.69-4.19-.29.06.17,1,.4.75a4.45,4.45,0,0,1-1.9-2.77c-.46-1.25-.71-2.72-1.24-3.89a6.91,6.91,0,0,0,.15,2.79,14.27,14.27,0,0,0,1.24,3.24,37.13,37.13,0,0,0,4,5.93,21.23,21.23,0,0,1-4.92-7.27,27.82,27.82,0,0,1-1.3-3.69c-.19-.64-.37-1.29-.56-1.94s-.3-1.3-.45-2c.42,0-.16-.8.48-.56a17.83,17.83,0,0,1,0-4c.16-1.21.4-2.33.62-3.43.37-1.45,0-3.32,1.38-4.29a27.32,27.32,0,0,1,7.39-9.84,21.45,21.45,0,0,1,10.46-4.78c-.23.64-.87-.29-1.2.41a7,7,0,0,1,1.71.16,2.77,2.77,0,0,1,2.38-.73,2.73,2.73,0,0,1,2.51,1.33,8.68,8.68,0,0,0-3.4-.31c.37.39,1.15,0,1.36.62a3.17,3.17,0,0,1-1.32.26c-.5,0-1,0-1.44.09-.18.13.08.3.24.29a6,6,0,0,1-1.39.28c-.49.06-1,.13-1.47.23a6.1,6.1,0,0,0-1.45.45,3.05,3.05,0,0,0-1.11,1,4.4,4.4,0,0,0,1.21-.64,1.45,1.45,0,0,1,1.34-.16c-.07.33-1.06.3-1.46.76a4.42,4.42,0,0,0,2.05-.45c-.86-.39.5-.26.93-.61-1.07,1.05-2.3,1.88-.91,2.73,1.72-.5,1.88-.75,3.06-1.06-.32-.27-.46.1-.46-.59l-.62.21c.66-.2.78-1.26,1.73-1.65,0,.24-.29.23-.48.32a1,1,0,0,0,1.13.61c.09.48-.56.35-.29,1s.22-.23.49-.12c.19.52-.53.25-.47.66a6.92,6.92,0,0,0,2.13-.09.36.36,0,0,1-.3.41h0c.37.42.93-.17,1.31-.19,0,.86.63.64.7,1.37-.76-.69-.85.42-1.18-.43a1.13,1.13,0,0,1-1,.91,2.72,2.72,0,0,0-1.35.48,12.45,12.45,0,0,0,1.83-.07.46.46,0,0,1-.34.43c.08.17.5.53.3-.06.37.31-.18.68-.23.93.15.06.27,0,.36.83-.18.13-.53,0-.88-.12a.63.63,0,0,0-.77.42v.13a2.39,2.39,0,0,1-.52-.38c-.24.29-.2.81-.74.85.36-.54-.34-.29-.67-.84.25.58-1,.7-1.25,1.24a4.57,4.57,0,0,0,1.7-.68.8.8,0,0,1-.1.43c.86-.11,1.8-.13,2.4-1.06.18.56.52.38.78.56.3-.12.08-.93.47-1,.24,1.16.08,1.39-.41,1.68.33.06.7-.11,1.07,0s.7.47.86,1.53c-.56-1.25-1.41-1.34-2.21-.91.41.39,1.09-.36,1.4.27-.22,0-.16.38-.29.59.26.54.12.25.45.63-.06.46-.39-.33-.63-.06,0,.54.49.28.16.5,0,.28.34.54.29.13a6,6,0,0,0,.09,1.59c-.26.2-.18-.08-.44.25.33.93.41-.41.65.06-.13-.41.07-1.18-.25-1.2,0-.82.34,0,.53.44,0,.51-.19-.07-.28.05a12.42,12.42,0,0,0,.48,2.11,4.38,4.38,0,0,1,.19,1.68c0,.46.1.33.14.52,0,.72-.24.29-.29.76.11.29.27.25.28-.06.08.18,0,.5,0,.37.19,1.11.27.13.35.32a8.3,8.3,0,0,0,0,1.41c0-.2,0-.5-.07-.36a2.76,2.76,0,0,0-.06-.7,11.16,11.16,0,0,0,.08,1.42c.09.37.11.49.13.62v-.08a.38.38,0,0,1,0-.15s-.15.12-.15.07Zm-2.66,3a3.34,3.34,0,0,0-.61.43,8.07,8.07,0,0,1,1.46-.9c.23-.11.44-.19.59-.25l.18-.06h0l-.85.26h0a4.29,4.29,0,0,1,1.24,0,2.54,2.54,0,0,0-.39,0h.09a2.67,2.67,0,0,0-.4,0,2,2,0,0,0-.35,0h-.28l.85-.26h0l-.19.06h.09q-.4.15-.78.33c-.36.18-.68.38-.71.4Zm2.05-7.61-.13-1c-.64-.19-1.75-.33-2.12.67a2,2,0,0,1,1.6,0c0,.25.11.22,0,.52.32.15.27-.49.59-.18Zm-3.59-9h-1.19a1.18,1.18,0,0,0-1,.65c.32-.09,1.09-.72.83,0,.45.17,1-.37,1.36-.69Zm20.59,25.45c-.36.24-.3,0-.65-.3a15.2,15.2,0,0,0-2,1.85c1,.38,2.73,0,2.58-1.55Zm-6.4,5.55c.44.67,1.87-.3,1.37-1-.72.12-.72.57-1.38,1Zm-26.75.3c.13-.13.26,0,0,.25.85,0,1.13,1.09,2.1,1.24-.19-.41.18.23.51-.07.07.33.3.26.8.5.74.25,0-.22-1-.84s-1.91-1.38-2.1-1.38c.07-.07,0-.24-.13-.12.47.32-.59,0-.19.46Zm-5-7.17c-.38-.71-.24-.13-.06.4s.41,1,.07.07a12.74,12.74,0,0,0,1.91,3.49,11.58,11.58,0,0,0,3,2.84,14,14,0,0,1-2.92-3.35c-.81-1.19-1.41-2.33-2-3.46Zm.32,3.45c.15.87.61.71.62,1.62a33.92,33.92,0,0,0,4.56,4.08,23.5,23.5,0,0,0,5.3,3,19.45,19.45,0,0,0,10,1.4c-1.44-.31-3-.51-4.78-.8a28.38,28.38,0,0,1-5.87-1.48,20.31,20.31,0,0,1-5.83-3.4,19.63,19.63,0,0,1-4-4.43Zm8,8c-.62-.18-1.46-1.1-1.91-.93.51.19,1.39,1.08,1.84.85Zm-13.73-18c.63-.33.47-1.25.3-1.87-.12.66-.48,1-.3,1.93Zm22.88.2a5.61,5.61,0,0,0,.24-1c0-.29-.1.61,0,.13a6.17,6.17,0,0,1-.23.87Zm4.36-3.65Z" transform="translate(0 -140.36)"/><path class="cls-3" d="M1185.05,238.22c2.29-.3,5.09-.63,7.78-.82a57.39,57.39,0,0,0,6.79-.79c-3,.14-5.52.31-7.9.55S1187.19,237.81,1185.05,238.22Zm42.83,117.5a12.06,12.06,0,0,1-.26-2.55v-2c0-.72-.08-1.52-.13-2.33a53.17,53.17,0,0,0-1.28-9.64c.5.75,1.17,3.56,1.48,6.84.18,1.64.2,3.4.28,5.08s-.07,3.27-.09,4.61Zm-103-103.59a16.21,16.21,0,0,1-2.53,1.92c-.81.57-1.66,1.15-2.11,1.48a5.21,5.21,0,0,1,1.77-1.69c1-.62,2.07-1.26,2.85-1.7Zm175.32-20.77a32.85,32.85,0,0,1-7.61.26c3.91,0,5.07-.4,7.59-.25Zm-58.67,2c.6-.42,4.66-.25,6.64-.43-.14-.21-1.52-.09-2.5-.08.34-.41,4.09-.23,5.81-.4a14.81,14.81,0,0,1-2.48.44c2.52.3,8.59-.25,12.51-.26-5.25.53-14.58.65-20,.72Zm-110.81,13.7c-.7.72-4.09,2-5.67,3.07C1125.6,249.36,1128.88,247.94,1130.72,247.06Zm266.84-25.84c-2.76.29-3.59-.14-7,.39C1392,220.76,1397.8,220.28,1397.56,221.22Zm-297.48,7.49c-.77.91-2.56,2.45-4.41,4.29a45.52,45.52,0,0,0-5,5.83,13,13,0,0,1,1.45-2.17c.33-.42.7-.88,1.1-1.36s.85-.93,1.3-1.41a70.46,70.46,0,0,1,5.56-5.23Zm218.73-33c.82-.43,3.8,0,6.6-.36-1.34.58-4.47.39-6.6.3Zm-117.29,2.73c2-.63,7.69-.6,11.14-1C1211.88,198.16,1203.67,198.42,1201.52,198.44Zm-31,3.33c1.44-.82,7.27-1.22,11.16-1.81C1180.24,200.76,1173.26,201.06,1170.52,201.77Zm242.44,12c-2.13.5-4.56.65-6.73,1.68-1.92.15-4.18.43-6.64.8s-5.16.65-7.93,1c-.68.14-.82.3-1.67.44.57.27-1.2,1.42,1.86.77-2.52,1.38-8.72,1.43-8.6.82-2.62.2-3.08.56-5.09.81,1.83.12,3.16.29,4.66.32a26.27,26.27,0,0,0,5.72-.72c.08.81-.25,1,1.15,1.77-4.74.82-4.6,1.17-6.69,2.27-2,.08-4.27.22-6.92.51-1.12.2-1.31.47-2.54.66-.57.62,2.4,0,1.83.66-42.64,4.42-85.49,5.32-128.08,6.5a94,94,0,0,1-13.82,1.16l-6.82.13c-2.47,0-5.18.16-8.3.45a20.17,20.17,0,0,0,4.91,0,56.72,56.72,0,0,1,5.83-.12c-7.67.41-15.35,1-23,1.53-7.63.69-15.26,1.23-22.58,2.14-7.37.73-14.43,1.86-21.17,2.88a145.55,145.55,0,0,0-17.91,3.83,74.24,74.24,0,0,0-8.2,2,59.17,59.17,0,0,0-8.14,3.18c-.66.3-1.28.65-1.9,1s-1.24.69-1.83,1l-.89.54-.85.58-.84.58c-.28.19-.44.34-.67.51a20.44,20.44,0,0,0-4.27,4.44c-.85,1.23.39.25-.06,1-.15.24-.3.46-.45.67l-.33.57c-.25.35-.31.62-.47.87s-.16.42-.27.6a.54.54,0,0,0-.09.24v.09h0v.13a.27.27,0,0,0-.06.17,3,3,0,0,0,.08.45,1,1,0,0,1-.67-.06c-.12,0-.12-.1-.19-.17a.44.44,0,0,1-.14-.25.76.76,0,0,1,0-.3v-.31a5.15,5.15,0,0,1,.24-.76c.09-.28.28-.6.38-.91a4.67,4.67,0,0,1-.34.67c-.12.23-.17.45-.3.68a1.92,1.92,0,0,0-.11.31.21.21,0,0,1-.07.13.68.68,0,0,1-.11.32,2.42,2.42,0,0,0,.08,1.28c.14.31.36.45.51.37a11,11,0,0,0,2.93,2.56,58.65,58.65,0,0,0,7,3.94c6,3,12.17,6,19.55,9.41,1.77.48,5,2,5.54,1.55a135.53,135.53,0,0,0,15,6c-.88-.79-5.19-2.22-7.41-3.29a90.77,90.77,0,0,1,10.1,3.77c3.7,1.6,7,3.19,7.74,4,6.87,2.66,15.31,5.58,23.85,10.6a64.18,64.18,0,0,1,12.2,9.17,60.85,60.85,0,0,1,9.24,11.67,76,76,0,0,1,6.54,28.61,63.78,63.78,0,0,1-1.63,16c-.35,1.35-.7,2.7-1.11,4.06s-.91,2.7-1.42,4-1.08,2.58-1.68,3.84-1.24,2.5-1.94,3.71c1.81-3.21,2.43-4.4,2.43-4.27a26.79,26.79,0,0,1-1.54,3.46,63.53,63.53,0,0,1-3.54,6.09c-1.17,1.87-2.28,3.24-2.54,3.65a83.65,83.65,0,0,1-25.82,23,89.4,89.4,0,0,1-25.06,9.5,152.7,152.7,0,0,1-20.74,2.93c-3.82.31-7.6.45-11.34.47-1.87,0-3.71,0-5.58-.08l-5.66-.29a130.89,130.89,0,0,1-22.35-3.48,109.11,109.11,0,0,1-21.12-7.54,89.71,89.71,0,0,1-18.46-11.79c-1.2-1-2.12-1.66-3-2.34a21,21,0,0,1-3-2.49c.14-.11,1,.89,1.72,1.42a62.57,62.57,0,0,1-4.23-5.49,34.91,34.91,0,0,1-2.62-4.95c-.54-1.27-.53-2.17,0-2.2s1.62.67,3.59,2.32a10.38,10.38,0,0,0-1.33-3.48c-.71-1.63-1.62-3.55-2.36-5.36a9.18,9.18,0,0,0,6,1.84,8.09,8.09,0,0,1,1.3.15,10.19,10.19,0,0,1,1.54.38,16.87,16.87,0,0,1,4.11,2.23c-.91-2.39-.1-3,1-3.23s2.61-.08,3.36-.81,1-2.4,1.83-3.13a1.64,1.64,0,0,1,1.73-.31,10.56,10.56,0,0,1,3.51,1.85,5,5,0,0,1,3.49.08c.75.21,1.48.59,2.4.92s1.94.82,2.87,1.3a150.35,150.35,0,0,0,16.19,6.71,125.69,125.69,0,0,0,21.57,5c1.86.22,3.7.48,5.52.65s3.58.34,5.36.42c3.53.2,6.81.25,9.73.19a199.22,199.22,0,0,0,20.34-3.08,67.7,67.7,0,0,0,9.94-3,45.06,45.06,0,0,0,9.24-4.93c1.72-1.15,1.68-1.71,3.06-2.83a47.09,47.09,0,0,0,5.43-4.65,41.31,41.31,0,0,0,4.39-5.21,36.21,36.21,0,0,0,3.27-5.58,14.14,14.14,0,0,0,.64-1.43c.19-.49.42-1,.58-1.44.3-1,.66-1.87.87-2.85a32.46,32.46,0,0,0-.18-17.25c-.2-.91-.58-1.73-.85-2.6-.16-.42-.36-.82-.53-1.23a8.14,8.14,0,0,0-.56-1.2c.23.49.43,1,.61,1.48s.36,1,.5,1.44.29.94.43,1.39l.33,1.38c.11.45.2.89.27,1.34l.24,1.33c.06.91.25,1.78.26,2.69a8.92,8.92,0,0,0,.07,1.37,11.21,11.21,0,0,1,0,1.42c0,1-.12,1.94-.17,3a32.93,32.93,0,0,1-1.58,6.87c-1.59,4.07.49-1.85.78-3.48a32.71,32.71,0,0,0,.18-12,31.73,31.73,0,0,0-1.66-5.8,26.42,26.42,0,0,0-2.83-5.09c-.29-.37-.58-.74-.86-1.13l-1-1a24.49,24.49,0,0,0-2.2-2,36.71,36.71,0,0,0-5.78-3.76c-4.43-2.4-10-4.47-16.29-6.8-12.72-4.75-25.68-10.15-38.64-16.18-3.24-1.5-6.48-3.06-9.72-4.64l-4.85-2.41c-1.59-.79-3.32-1.67-5.1-2.64a63.15,63.15,0,0,1-11.34-7.61,38.06,38.06,0,0,1-5.8-6.23,33.84,33.84,0,0,1-4.44-8,33.28,33.28,0,0,1-1.2-19.2,41.12,41.12,0,0,1,6.18-13.63c2.52-3.73,5.08-6.49,6.38-8.34a63.65,63.65,0,0,1,6.7-5.55l3-2,2.89-1.79a101.87,101.87,0,0,1,12-6.13c.15-.21-1.12.22-2.36.75s-2.44,1.18-2.17,1.22c3.51-2.3,10.35-5.06,17.74-7s15.32-3.29,21.47-4.54a118,118,0,0,0-14,2,121.59,121.59,0,0,0-18.55,5.3,91.86,91.86,0,0,0-9.68,4.29c-1.58.78-3.13,1.69-4.65,2.55a49.4,49.4,0,0,0-4.39,2.87l-2.08,1.45-2.16,1.67c-1.37,1.14-2.68,2.25-3.86,3.42a57.06,57.06,0,0,0-6.09,6.82,54.89,54.89,0,0,1,9.73-10.3l1.33-1.06c.46-.36.92-.73,1.34-1l2.56-1.8c1.77-1.12,3.46-2.2,5.23-3.2a101.54,101.54,0,0,1,21-8.66,201,201,0,0,1,20.13-4.64c3.26-.62,6.45-1.1,9.67-1.64l9.74-1.64c-.28.43,3.9-.55,2.64.22,7.2-.89,13.9-1.76,20.25-2.21l9.32-.77,9-.59c8.34-.61,16.76-1.85,24.69-1.36,25.35-.9,48.53-1.25,70.43-1.93s42.51-1.64,62.7-3.41c-2.14.8-3.73-.07-6.5.78,2.59,0,6.08-.41,8.2-.29,3.88-1,22.33-3.31,25.3-2.18-1.49.25-2.92.37-4.32.49l-4.19.37c-2.82.25-5.77.59-9.38,1.11,1.48.27,6-.72,6.59-.13a61.9,61.9,0,0,1-7.43,1.1l-8,.66c-1.14.2,0,.32.85.25-2.59.31-5.25.61-8,.76l-8.41.43c-5.68.36-11.53.59-17.27,1.44,4.72-.07,11.89-1.09,15.69-.72a26.38,26.38,0,0,1-4.06.43c-1.87.09-4,.18-5.82.39,2.19.09,4,.07,5.92,0l6.47-.51c-3.84-.35,3.34-.34,6.55-.8-8.18,1.34-17.69,2.4-12.13,3.28,11.86-.87,13.56-1.12,21.39-2.07-1.5-.18-3,.32-1.72-.49l-4.09.5c4.41-.52,7-1.81,13-2.66-.23.26-2,.39-3.25.58.59.5,2.89.48,5.84.13-.07.54-3.86.72-3.16,1.3s1.74-.35,3.28-.44c.48.53-3.74.64-4,1.06,3.49-.28,7.52-.64,13.92-1.73a5.06,5.06,0,0,1-2.39.73,18.56,18.56,0,0,0,4.33-.5c1.68-.31,3.41-.7,4.62-1-.29.93,4-.09,4.3.59a25.3,25.3,0,0,0-5.33.84,4.8,4.8,0,0,1-2.88.14c-1.61.85-4.49,1.42-7.85,2l-5.33.84c-1.85.24-3.73.5-5.54.83,1.94-.11,4.31-.3,6.75-.63s5-.73,7.26-1a11,11,0,0,1-3.23.86c.36.13,3.28.11,2.46-.38,2.57,0-2.3,1-3.15,1.38,1.11-.09,2.2-.26,1.78.61a67.27,67.27,0,0,1-7.49.83,36.06,36.06,0,0,0-8.2,1.31,29.29,29.29,0,0,1-3.38-.11,44.54,44.54,0,0,1-9,1.47c5-.83-2-.23-2.6-.81,0,.32-2.7.64-5.88,1s-6.89.5-9,.82c2.09,0,5.48-.18,8.74-.44l7.92-.8a14.93,14.93,0,0,1-2.46.59l6-.38c2-.14,4.11-.28,6.16-.56,4.1-.5,8.18-1.12,11.9-1.94.34.59,3.85-.06,5.87-.16,3-.54,2.24-1.26,5.63-1.77.7,1.08-1,1.55-6.35,2.59,3.08-.36,7-1.09,10.57-1.5,1.77-.18,3.4-.4,4.76-.41a6,6,0,0,1,3.11.56,126,126,0,0,0-22.5,2.5c3.39,0,11.7-2,14.14-1.67-2.41.32-2.28.71-4,1.17,2.1.26.85.14,4.26,0-1.55.69-4.23.27-7.5,1-1.22.73,5.44-.49.92.39-.32.34,3.18.09,3.34-.35-.2.27-3.07,1.42-2.24,2-4.48.87-2.42.28-7.48,1.35,2,.67,7.7-1.55,10-1.4-.87-.29,3.47-1.7-1-1.08,2-1.14,4.52-.68,6.74-.53-.61.62-2.69.32-4.16.66-.94.85,1.68,1.23,3.73,1.61s3.52.69.26,1.67c-.24.28.21.29.82.24s1.38-.2,1.79-.19a32.84,32.84,0,0,1-7,1.43c-2.41.41-4.94.8-7.45,1.43a68.61,68.61,0,0,0,10.94-1.72c2.75-.23-.72.62-2.46.74,1.84,1,13.32-2.32,16-2.62.88.3-6.19,2-7.3,2.86a11.86,11.86,0,0,0-4.27.48c3.08-1-1,0,.72-.86-3.21,1.44-6.16,1.7-9.9,3,4,.1,9.22-.87,14.62-1.08a52.89,52.89,0,0,1,11-2.16c.1.55-5.1,1.92-2.26,1.89Zm-288.53,36.55a4.18,4.18,0,0,1-1.11.9c-.55.37-1.18.81-1.85,1.23-.35.22-.53.38-.8.57s-.45.34-.66.53a2.56,2.56,0,0,0-.75.92c.43-.37.86-.76,1.31-1.1l.68-.52c.22-.17.57-.38.85-.58.59-.4,1.17-.81,1.81-1.18s1.24-.77,1.92-1.12a61.18,61.18,0,0,1,8.68-3.86,126.33,126.33,0,0,1,21-5.1c3.76-.67,7.7-1.18,11.53-1.73l5.7-.83,2.82-.42,2.81-.33,21.14-2.64c-3.29.2-8.67.93-10.61.8a16.74,16.74,0,0,0,2.42-.59c-2.63.35-6.14.79-10.16,1.24-2,.24-4.15.44-6.35.73l-6.75,1-6.92,1c-2.31.34-4.52.75-6.65,1.14a106.84,106.84,0,0,0-11.17,2.7c.83-.24,2-.47,2.11-.7a94.83,94.83,0,0,0-13.32,3.87C1127.69,247.83,1124.51,249.83,1124.43,250.32Zm272-40.52-.17-1c-13.23,2-30.41,3.72-44.48,5.59l9.09-.8c2.85-.24,5.53-.46,8.08-.77,5.09-.57,9.66-1,14-1.4-.63.34,1.49,0-1.61.76,7-.81,8.7-1.76,15.14-2.38Zm-22.11-6.48c-2.44.26-5.93.5-9.55.82a81.59,81.59,0,0,0-10.34,1.17c2.84-.21,11-1.26,6.68-.29C1364.64,205.12,1370.88,203.92,1374.32,203.32ZM1168.32,391c2-.71.84-.09.94.35a46.57,46.57,0,0,0,12.45-6.95,14.1,14.1,0,0,0-2.38.87c-1,.41-2.14,1-3.38,1.56a74.31,74.31,0,0,0-7.58,4.17Zm29.25-31.63c-.2,0-.46.5-.72,1.29-.16.39-.33.84-.49,1.32s-.31,1-.51,1.51-.34,1-.5,1.5-.35,1-.47,1.36c-.22.83-.38,1.39-.19,1.48a13.16,13.16,0,0,0,1.06-2,11.56,11.56,0,0,0,.68-1.84c.1-.31.19-.62.3-1s.16-.69.25-1.06.19-.76.3-1.19S1197.46,359.86,1197.57,359.36Zm-109-110.86c.13.14-.49,1.44-.65,1-.28,1-.57,2.14-1,3.31-.19.6-.33,1.25-.52,1.93a16.55,16.55,0,0,0-.51,2.19,25,25,0,0,0-.25,9.2c0-1.41,0-.94.09,0a7.41,7.41,0,0,0,.68,2.58,8.26,8.26,0,0,0,.09,1,5,5,0,0,0,.25.94c.21.66.48,1.42.88,2.51.21.48.49,1.1.82,1.83.83,1.6,1.12,2,.93,1.57s-.83-1.66-1.55-3.48c-.29-.9-.61-1.93-.94-3a30.08,30.08,0,0,1-.7-3.67,32,32,0,0,1,.1-8c.1-.64.2-1.28.29-1.89s.29-1.23.43-1.8a28.81,28.81,0,0,1,.84-2.84c.53-1.66,1-2.71,1.15-3.08.09,0,.57-.78.49-1.07-1.49,3.28.78-3-1,.77Zm44-32.37c2.41-.73,2.7-.84,2-.68s-2.48.62-4.17,1.12c-3.38,1-6.48,2.1-.52.19a100.56,100.56,0,0,0-10.8,4,79.6,79.6,0,0,0-11.95,6.46l-2.81,2c-1,.72-2,1.48-2.86,2.29s-1.8,1.58-2.62,2.42c-.41.42-.81.83-1.22,1.23l-1.14,1.27a44.58,44.58,0,0,0-6.77,10,46.67,46.67,0,0,1,8.88-12l1.29-1.24,1.33-1.17c.88-.79,1.83-1.5,2.76-2.23,1.82-1.33,3.58-2.53,5.43-3.65a101.66,101.66,0,0,1,23.08-10Zm-19.15,6.22a32.06,32.06,0,0,0-4.54,2.46c-1.15.73-2.26,1.38-4.25,2.48l-1.33.93-1.28,1c-.85.68-1.65,1.4-2.44,2.11a57.38,57.38,0,0,0-4.42,4.54,49.89,49.89,0,0,0-7.08,10.54c-.48,1-.91,2-1.34,3s-.76,2.12-1.12,3.18c-.17.53-.3,1.11-.45,1.66s-.3,1.22-.43,1.83c-.21,1.2-.38,2.41-.53,3.61a31.62,31.62,0,0,0,1.87,14,33.57,33.57,0,0,0,3.15,6.14c.62,1,1.31,1.88,2,2.79a24.26,24.26,0,0,0,2.18,2.46,48.34,48.34,0,0,0,8.63,7c2.83,1.86,5.54,3.32,8.1,4.68s4.9,2.55,7.37,3.81c9.86,5,20,9.74,30.94,14.28-9.09-4.42-19-9.15-29.12-14.25l-7.69-3.89c-2.59-1.32-5.46-2.82-8.41-4.63a50.45,50.45,0,0,1-9.07-7,35.47,35.47,0,0,1-4.41-5.29,34.41,34.41,0,0,1-3.3-6.27,31.66,31.66,0,0,1-1.15-18.3,41.52,41.52,0,0,1,6.76-14.81,52.33,52.33,0,0,1,10.16-10.75l1.44-1.13,1.36-1c.91-.65,1.82-1.29,2.75-1.87,1.84-1.21,3.72-2.28,5.61-3.31Zm-23.2,59.48a26.28,26.28,0,0,1-2.41-3.66c-.37-.71-.74-1.45-1.09-2.18l-.91-2.17-1.63-4.6.24,1.07c.11.36.22.75.34,1.14l.78,2.5c1.3,3.55,3.53,7,4.59,7.9Zm82.48-77c1.48.49,6.27-.15,9.48-.72-3.28.29-5.24.11-9.57.76ZM1119.6,267c1.68.7,3.57,1.63,5.74,2.75l6.38,3.37c3,1.73-6.51-3-1.61-.41-1.09-.42-3.13-1.48-5.31-2.66s-4.1-2.25-5.29-3Zm265.12-43.44c1.91.09,1.29.21,2.73.64-1.65.07-4.1.43-6.08.52,1.31-.42,2.94-.81,3.33-1.33C1385.68,223.22,1385.19,223.47,1384.72,223.54Z" transform="translate(0 -140.36)"/><path class="cls-3" d="M1242.5,357.33c.25,1.41.1,3.52.6,4.48A11,11,0,0,0,1242.5,357.33ZM1236,280.06c.71.3.38,2.36.61,3.48C1235.89,283.25,1236.22,281.18,1236,280.06Zm4.94,56.27c-.45-.48-.31-2.15-.24-2.75.52.54.19,2,.24,2.72ZM1246.8,392a3,3,0,0,1-.23-2.25c0,1.14.39,1.47.23,2.22ZM1245,374.52c.41.14.21,1.39.37,2,.21-.07.11-.47.1-.77.4.07.2,1.22.35,1.73a1.89,1.89,0,0,1-.42-.71c-.33.79.2,2.58.2,3.76a22,22,0,0,1-.6-6Zm-2.09-35.35c-.43-.31-.22-1.73-.4-2.48C1243,337,1242.76,338.42,1242.94,339.17Zm8.47,81.1c0-.81.58-1.08.47-2.07.62.37.38,2.05-.47,2.05Zm22.7-88.89c-.44-.47-.24-2-.43-3C1274.12,328.9,1273.92,330.48,1274.11,331.38Zm8,63c.42.21-.11,1.16.21,2-.6-.4-.33-1.37-.2-2Zm-1.18-34.62c.46.55.28,2.22.49,3.2-.62-.2-.63-2.6-.48-3.23Zm-1-8.89c.66.37.58,2.06.82,3.17-.66-.41-.38-2.44-.82-3.2Zm-23.61,73.65c-.15-.62.1-1.35-.57-1.95a13.85,13.85,0,0,0,.23-4.31c-.06-.2-.2-.23-.23-.48-.34.19-1.26-.27-1,.61-1.06-.67-.34-2.54.25-2.55,0-.77-.28-.89-.34-1.47-.57,1.12-1.17,1.64-.72,3.1a3.78,3.78,0,0,0-1.89.46c-.23-1.37-.57-1.31-1.44-1.86a8.93,8.93,0,0,0,.13-2c-.1-.32-.35-.36-.43-.71-.56-.13-.26.72-.82.59-.42-12.42-2.4-24.92-3.22-37.76-1.67-3.14-.57-4.92-1.2-8.71-.58.5.08,2.46-.21,3.3-1.23-9.22-1.55-19.13-3-26.44a62.33,62.33,0,0,0-.54-13.09c-.13-.87-.47.06-.57-.45a53.13,53.13,0,0,0-.32-5.77c1.18.25,1.24,2.45,1.44,4.41,0-2,0-6.19-.54-6.25-.39-4.54-.9-8-1.27-13-.35-.53-.38-1.62-1-1.68a17.72,17.72,0,0,0-.76-5c-.37.38.08,1.75,0,2.51-.82-1.4-.94-5.36,0-6-.37-4.57-.57-9.42-1.54-13,1.55-3.82-.21-8.38-.29-13.32-.15,3.27-.62-1.79-.68-2.22-.42-2.71-1-5.45-1.45-8-.83-4.7-.51-8.56-1-11.76a112.31,112.31,0,0,1-.57-22.6c-.07-.71-.38-1-.45-1.74.17,0,.15.31.2.5.86-2.11,2.69-4.86,4.59-2.55.88-.27,1.38-1.39,2.14-2.38,2.49,1.38,5.53.44,7.71,2.54,1.66-1.42,3.92-.22,6-.36,2.26-.14,4.75-1.63,6.2.88,7.14.43,5.3,15.29,5.32,22.88,1.39,4.37.07,9.14.8,14.18.06.74.52.81.63,1.45,0,7.13,1.35,13.39,1.79,19.6.14-3.91-.2-5.74-.41-10.21,0-1.86.31.79.29,1.47,1.53,13.93,3.24,31.71,5,49.55.19,1.87-.18,4.29.63,5.2a35.27,35.27,0,0,0,.67,6.88c.29.08.16-1.38-.11-1.24,1.32,2,.81,7.31,1.68,10.84.85-4.17-1.12-13.77-1.12-18.39,1.2,8.12,1.45,15.24,2.94,22.72-.43-.06.2,1.12-.45.79.58,4.15.71,7.73,1,11.15.25,2.42,1.37,4.8.7,7.18,1.12,14.84,2.34,27.39,2.36,39.79-.61-.61.42-1.18-.21-2a18.1,18.1,0,0,1-.43,2.55c.83,1.12.89,6.84-.73,7.85.07-1.87.5-3.34.27-5.54-.4.48,0,1.86-.65,2.07a18.8,18.8,0,0,1-.17-4.74c-.1-.34-.31,0-.32.29-.37-3.14.65-6.84-.57-10.22-.13,1.45.66,3.55,0,4.77-.29-.35,0-1.92-.31-3a11.18,11.18,0,0,0-.13,3.78c.59-1.22.13,1,.39,2-.81-2.43-1.29-5.28-2.49-3.49.08,3.59.33,4.08.51,6.46.31-.48,0-.92.65-.57l-.14-1.24c.12,1.34,1.17,2.05,1.48,3.85-.24-.05-.21-.6-.28-1-.57.22-.71.93-.68,1.83-.5,0-.35-1.16-1-.9s.22.51.11,1c-.54.18-.26-1.12-.66-1.18a21.56,21.56,0,0,0,.12,4.25c-.23-.08-.4-.28-.44-.7-.4.65.22,2,.3,2.72-.86,0-.54,1.27-1.25,1.4.56-1.6-.6-1.94.25-2.54-1.29-.91-.85-3.45-1.5-5.61a35.54,35.54,0,0,0,.11,4.26,1.31,1.31,0,0,1-.46-1c-.17.12-.5,1,.09.75-.3.79-.72-.66-1-.9,0,.34,0,.67-.82.59-.31-1.1.58-3.39-.52-4.71a5.23,5.23,0,0,1,.42-1.05c-.3-.85-.86-1.22-.82-2.67.51,1.46.35-.62,1-.86-.63,0-.57-3.15-1-4.41a25.34,25.34,0,0,0,.35,5,1.91,1.91,0,0,1-.43-.71,17.51,17.51,0,0,0,1,7.18c-.58.14-.35,1.19-.51,1.81.16.91,1,.62,1.06,1.64-1.15.29-1.41-.21-1.78-1.81,0,1.87.93,4.75-1.14,5.66,1.05-1.79,1.05-4.11.48-6.84-.36,1,.54,3.5-.06,4.28,0-.73-.42-.67-.66-1.19-.51.67-.24.27-.56,1.32-.49-.44.25-1.29-.07-2.25-.57-.34-.19,1.65-.5.3-.29-.07-.48,1-.06,1-.24,0-1-.87-1.65-.58a16.87,16.87,0,0,0-.42-2.21c-.91.66.58,2.27.15,3,.4-.29,1.26,1,1.19-.39.88.56.13,1.36-.3,2-.53-.16,0-.81-.14-1.24-1.45-.48-2.75,3.3-3.72,1.41-.49-.11-.28.56-.44.81-.88-1.16-.53-2.7-1.17-4.15a6.24,6.24,0,0,0,.36,3.23c-.11.82-.52-.18-.43-.71-1.1.61.31,4,.17,4.77-.43.28-1-1.79-1.64-2.09a1.22,1.22,0,0,0,.21-1.28c.49.89.2-.31.73.17-1-.9-.9-1.77-1.73-2.83-.62,1.24-.19,2.74-.92,4.39a4.53,4.53,0,0,1,.35,3.23c-.54.24-1-1.28-1.45-.42Zm-13.6-88.1c-.55-.38-.06-2.58-.61-3,.7,9.25.65,20.25,2.59,28.23,0-1-.48-2.63-.13-3.26a1.89,1.89,0,0,0,.42.71c-.62-3.22-.77-10.88-1.76-15.2,0,.29,0,.71.24.73-.15-2.26,0-8-.78-8.21Zm20,82.83,1-.12c-.14-4-.32-9.07-1.44-13.18a89.6,89.6,0,0,1,.48,9.26c-.28-.17-.19.46-.58-.44.06,2.08.75,2.53.58,4.45Zm8.9-7.26c-.09-1.48.35-4.26-.46-6,0,.86.55,3.28-.14,2a9.23,9.23,0,0,0,.6,4Zm-7.1-152.56c-.1.74-.24.3-.68.3a27.83,27.83,0,0,0,0,5,4.76,4.76,0,0,0,.68-5.28Zm.83,16.43c.78-.08.56-3.53-.26-3.48-.24,1.34.19,1.87.26,3.5Zm5,50.83c-.19,0-.17-.3.15-.26-.67-.79-.11-2.1-.63-3.19-.18.54.06-.37-.39-.47.21-.34,0-.52-.11-1.24-.48-2,.21,4.74.46,5.21a.13.13,0,0,0-.09.16.12.12,0,0,0,.09.09c-.13-.74.55.6.45-.28Zm1.38,13.63c.44,2.69-.06-4.07.11-.75a82.5,82.5,0,0,0-1.65-12.32c.67,4.54.78,8.63,1.51,13.09Zm.75-5.31c.22-1.23-.27-1.38.14-2.52-2.29-11.33-1.78-19.87-2.74-30.25-1.17,9.81,1.23,22,2.57,32.79Zm-1.08-14.95c.18.74,0,2.16.39,2.46-.21-.72,0-2.13-.42-2.44Zm5.29,31.51c-.61.46-.39,1.84-.1,2.76a9,9,0,0,0,.07-2.74ZM1240.32,319c-.68-1.45-.51-3.06-.56-4.49.16-1.07.36,2.2.4.47a22.77,22.77,0,0,1,.16,4Zm10.34,97.57c-.32.58-.37.4-1,.86a11.66,11.66,0,0,0,.16-1.78c.29.36.53.82,1,.9,0,.29-.16.16-.17,0Z" transform="translate(0 -140.36)"/></g><g id="Pesky"><text class="cls-4" transform="translate(0 292.95)">P</text><text class="cls-5" transform="translate(135.96 295.37)">e</text><text class="cls-6" transform="translate(381.69 295.67)">k</text><text class="cls-5" transform="translate(515.64 295.67)">y</text><text class="cls-5" transform="translate(269.05 294.49)">s</text></g></svg>